<svg width="231" height="162" viewBox="0 0 231 162" fill="none" xmlns="http://www.w3.org/2000/svg">
<g id="codeTablet">
<path id="Rectangle 590" d="M216.936 4.43359C222.584 3.9401 227.441 8.3919 227.441 14.0615V136.578C227.441 141.716 223.422 145.956 218.291 146.229L13.4004 157.138C7.86882 157.432 3.22188 153.027 3.22168 147.487V31.9688C3.22172 26.9573 7.05248 22.7772 12.0449 22.3408L216.936 4.43359Z" fill="#090C15" stroke="#0E111A" style="fill:#090C15;fill:color(display-p3 0.0353 0.0471 0.0824);fill-opacity:1;stroke:#0E111A;stroke:color(display-p3 0.0549 0.0667 0.1020);stroke-opacity:1;" stroke-width="6.4431"/>
<circle id="Ellipse 207" cx="200.385" cy="17.4008" r="3.86586" fill="#6E717C" stroke="#2A2E3C" style="fill:#6E717C;fill:color(display-p3 0.4314 0.4431 0.4863);fill-opacity:1;stroke:#2A2E3C;stroke:color(display-p3 0.1647 0.1804 0.2353);stroke-opacity:1;" stroke-width="1.28862"/>
<circle id="Ellipse 208" cx="212.615" cy="16.7482" r="4.51017" fill="#6E717C" stroke="#2A2E3C" style="fill:#6E717C;fill:color(display-p3 0.4314 0.4431 0.4863);fill-opacity:1;stroke:#2A2E3C;stroke:color(display-p3 0.1647 0.1804 0.2353);stroke-opacity:1;" stroke-width="1.28862"/>
<path id="Vector" d="M150.771 60.5585L176.544 77.3106L150.771 99.8614M78.6088 103.727L54.125 86.9752L78.6088 67.0016M126.932 48.9609L101.16 110.53" stroke="#AFD84B" style="stroke:#AFD84B;stroke:color(display-p3 0.6863 0.8471 0.2941);stroke-opacity:1;" stroke-width="7.54763" stroke-linecap="round" stroke-linejoin="round"/>
<path id="Rectangle 589" d="M216.711 1.86621C223.865 1.24094 230.019 6.8799 230.019 14.0615V136.578C230.019 143.086 224.927 148.457 218.428 148.803L13.5371 159.712C6.53042 160.085 0.644735 154.504 0.644531 147.487V31.9688C0.644569 25.6209 5.49655 20.3261 11.8203 19.7734L216.711 1.86621Z" stroke="#2A2E3C" style="stroke:#2A2E3C;stroke:color(display-p3 0.1647 0.1804 0.2353);stroke-opacity:1;" stroke-width="1.28862"/>
</g>
</svg>
