<svg width="174" height="174" viewBox="0 0 174 174" fill="none" xmlns="http://www.w3.org/2000/svg">
<g id="iconExpress">
<path id="Ellipse 205" d="M86.8945 17.8457C124.304 17.8457 154.67 48.4525 154.67 86.2549C154.67 124.057 124.304 154.663 86.8945 154.663C49.4849 154.663 19.1193 124.057 19.1191 86.2549C19.1191 48.4525 49.4848 17.8457 86.8945 17.8457Z" fill="#07080E" stroke="url(#paint0_radial_1455_5717)" style="fill:#07080E;fill:color(display-p3 0.0268 0.0321 0.0532);fill-opacity:1;" stroke-width="5.06729"/>
<path id="Ellipse 206" d="M43.4455 130.336C19.4513 106.342 19.4513 67.4395 43.4455 43.4454C67.4396 19.4512 106.342 19.4512 130.336 43.4454C154.33 67.4395 154.33 106.342 130.336 130.336C106.342 154.33 67.4396 154.33 43.4455 130.336ZM129.334 44.4521C106.936 22.0546 68.734 23.939 46.3365 46.3364C23.9391 68.7339 22.0591 106.927 44.4565 129.325C66.854 151.722 105.047 149.842 127.445 127.445C149.842 105.047 151.731 66.8495 129.334 44.4521Z" fill="url(#paint1_linear_1455_5717)" fill-opacity="0.47"/>
<path id="Vector" d="M128.869 108.934C125.841 109.701 123.968 108.967 122.287 106.453C118.515 100.823 114.351 95.4516 110.332 89.9805C109.814 89.2727 109.276 88.578 108.605 87.6982C103.85 94.0888 99.101 100.175 94.6444 106.506C93.0504 108.769 91.3766 109.754 88.4011 108.954L106.281 85.052L89.6365 63.4656C92.4991 62.9099 94.4783 63.1943 96.2318 65.7479C100.104 71.3843 104.375 76.7495 108.632 82.4256C112.916 76.7694 117.133 71.3976 121.118 65.8141C122.719 63.5516 124.439 62.6916 127.315 63.5251C125.137 66.4029 123.005 69.2343 120.859 72.0459C117.964 75.8366 115.121 79.6736 112.119 83.3849C111.05 84.708 111.222 85.568 112.179 86.8183C117.731 94.0888 123.217 101.432 128.869 108.934ZM45.6215 84.6551C46.0997 82.2669 46.4185 79.8323 47.0827 77.4905C51.0677 63.3134 67.4065 57.419 78.6311 66.2044C85.2064 71.3579 86.8403 78.6217 86.5149 86.8117H49.4538C48.8959 101.505 59.5161 110.376 73.052 105.851C77.8009 104.263 80.5971 100.559 81.9985 95.9279C82.7091 93.6058 83.8847 93.242 86.0765 93.9035C84.9541 99.6987 82.4103 104.541 77.0968 107.571C69.1267 112.109 57.7494 110.641 51.7651 104.336C48.2317 100.632 46.7307 96.0205 46.0665 91.039C45.9669 90.2452 45.761 89.4645 45.6016 88.6773C45.6148 87.3365 45.6215 85.9958 45.6215 84.6551ZM49.5202 83.6693H83.0147C82.7955 73.0448 76.1537 65.4965 67.0744 65.4304C57.1118 65.351 49.9519 72.7207 49.5202 83.6693Z" fill="#F0F0F0" style="fill:#F0F0F0;fill:color(display-p3 0.9401 0.9428 0.9428);fill-opacity:1;"/>
</g>
<defs>
<radialGradient id="paint0_radial_1455_5717" cx="0" cy="0" r="1" gradientUnits="userSpaceOnUse" gradientTransform="translate(157.084 -2.53189) rotate(-148.076) scale(419.73 175.009)">
<stop stop-color="#3F4350" style="stop-color:#3F4350;stop-color:color(display-p3 0.2471 0.2627 0.3137);stop-opacity:1;"/>
<stop offset="0.5" stop-color="#151721" style="stop-color:#151721;stop-color:color(display-p3 0.0819 0.0916 0.1303);stop-opacity:1;"/>
<stop offset="0.75" stop-color="#32343D" style="stop-color:#32343D;stop-color:color(display-p3 0.1968 0.2042 0.2410);stop-opacity:1;"/>
<stop offset="1" stop-color="#93B937" style="stop-color:#93B937;stop-color:color(display-p3 0.5762 0.7238 0.2162);stop-opacity:1;"/>
</radialGradient>
<linearGradient id="paint1_linear_1455_5717" x1="74.1834" y1="-21.665" x2="225.007" y2="129.159" gradientUnits="userSpaceOnUse">
<stop stop-color="#303030" style="stop-color:#303030;stop-color:color(display-p3 0.1900 0.1900 0.1900);stop-opacity:1;"/>
<stop offset="0.25" stop-color="#303030" stop-opacity="0" style="stop-color:none;stop-opacity:0;"/>
<stop offset="0.5" stop-color="#303030" stop-opacity="0" style="stop-color:none;stop-opacity:0;"/>
<stop offset="0.75" stop-color="#303030" style="stop-color:#303030;stop-color:color(display-p3 0.1882 0.1882 0.1882);stop-opacity:1;"/>
<stop offset="1" stop-color="#303030" style="stop-color:#303030;stop-color:color(display-p3 0.1882 0.1882 0.1882);stop-opacity:1;"/>
</linearGradient>
</defs>
</svg>
