<svg width="174" height="174" viewBox="0 0 174 174" fill="none" xmlns="http://www.w3.org/2000/svg">
<g id="iconNode">
<path id="Ellipse 205" d="M86.9023 17.8535C124.312 17.8535 154.678 48.4603 154.678 86.2627C154.678 124.065 124.312 154.671 86.9023 154.671C49.4928 154.671 19.1271 124.065 19.127 86.2627C19.127 48.4603 49.4926 17.8535 86.9023 17.8535Z" fill="#07080E" stroke="url(#paint0_radial_1455_5729)" style="fill:#07080E;fill:color(display-p3 0.0268 0.0321 0.0532);fill-opacity:1;" stroke-width="5.06729"/>
<path id="Ellipse 206" d="M43.4455 130.336C19.4513 106.342 19.4513 67.4395 43.4455 43.4454C67.4396 19.4512 106.342 19.4512 130.336 43.4454C154.33 67.4395 154.33 106.342 130.336 130.336C106.342 154.33 67.4396 154.33 43.4455 130.336ZM129.334 44.4521C106.936 22.0546 68.734 23.939 46.3365 46.3364C23.9391 68.7339 22.0591 106.927 44.4565 129.325C66.854 151.722 105.047 149.842 127.445 127.445C149.842 105.047 151.731 66.8495 129.334 44.4521Z" fill="url(#paint1_linear_1455_5729)" fill-opacity="0.47"/>
<path id="Vector" d="M121.244 62.7344L90.9626 45.1517C89.053 44.064 86.5665 44.064 84.6417 45.1517L54.0373 62.7344C52.0665 63.8681 50.6719 65.9989 50.6719 68.278V103.397C50.6719 105.676 52.1029 107.807 54.0737 108.947L62.1595 113.54C66.0242 115.443 67.39 115.443 69.1486 115.443C74.8708 115.443 78.1394 111.983 78.1394 105.948V71.2768C78.1394 70.7872 77.8847 70.0586 77.404 70.0586H73.5427C73.0538 70.0586 71.9592 70.7872 71.9592 71.2761V105.947C71.9592 108.622 69.5393 111.285 65.0168 109.023L56.6619 104.208C56.3707 104.05 56.1654 103.732 56.1654 103.397V68.278C56.1654 67.947 56.5465 67.6147 56.8397 67.4451L87.3452 49.8926C87.6301 49.7312 88.049 49.7312 88.3333 49.8926L118.467 67.4409C118.755 67.6147 118.653 67.9367 118.653 68.278V103.397C118.653 103.732 118.779 104.058 118.494 104.219L88.2207 121.782C87.9611 121.938 87.6391 121.938 87.3548 121.782L79.5904 117.148C79.3562 117.012 79.0781 116.963 78.8536 117.089C76.6933 118.313 76.295 118.476 74.2686 119.178C73.77 119.352 73.0346 119.653 74.5501 120.503L84.7117 126.514C85.6819 127.074 86.7824 127.369 87.9028 127.37C89.0303 127.37 90.1345 127.077 91.1075 126.514L121.243 108.947C123.214 107.799 124.148 105.676 124.148 103.397V68.278C124.148 65.9989 123.214 63.8736 121.244 62.7344ZM97.3049 97.8317C89.2528 97.8317 87.4791 95.6103 86.8878 91.6062C86.8192 91.175 86.4532 90.6593 86.0144 90.6593H82.079C81.5921 90.6593 81.2007 91.2498 81.2007 91.7346C81.2007 96.8614 83.9879 103.073 97.3056 103.073C106.946 103.073 112.473 99.3273 112.473 92.698C112.473 86.1251 108.032 84.4001 98.6831 83.1627C89.2329 81.9136 88.2729 81.2825 88.2729 79.0686C88.2729 77.2434 89.0859 74.8091 96.0833 74.8091C102.336 74.8091 104.64 76.1509 105.588 80.3651C105.669 80.7613 106.031 81.0456 106.44 81.0456H110.391C110.634 81.0456 110.866 80.9474 111.037 80.7737C111.201 80.5869 111.289 80.3528 111.267 80.1014C110.655 72.8445 105.834 69.4626 96.0826 69.4626C87.409 69.4626 82.2348 73.1254 82.2348 79.265C82.2348 85.9245 87.3829 87.7649 95.709 88.5882C105.669 89.5647 106.444 91.0205 106.444 92.9796C106.444 96.3821 103.712 97.8317 97.3049 97.8317Z" fill="#83CD29" style="fill:#83CD29;fill:color(display-p3 0.5137 0.8039 0.1608);fill-opacity:1;"/>
</g>
<defs>
<radialGradient id="paint0_radial_1455_5729" cx="0" cy="0" r="1" gradientUnits="userSpaceOnUse" gradientTransform="translate(-67.0165 -34.0857) rotate(45) scale(321.094 318.227)">
<stop stop-color="#070913" style="stop-color:#070913;stop-color:color(display-p3 0.0273 0.0364 0.0727);stop-opacity:1;"/>
<stop offset="0.5" stop-color="#151721" style="stop-color:#151721;stop-color:color(display-p3 0.0819 0.0916 0.1303);stop-opacity:1;"/>
<stop offset="0.75" stop-color="#32343D" style="stop-color:#32343D;stop-color:color(display-p3 0.1968 0.2042 0.2410);stop-opacity:1;"/>
<stop offset="1" stop-color="#6E717C" style="stop-color:#6E717C;stop-color:color(display-p3 0.4330 0.4428 0.4870);stop-opacity:1;"/>
</radialGradient>
<linearGradient id="paint1_linear_1455_5729" x1="74.1834" y1="-21.665" x2="225.007" y2="129.159" gradientUnits="userSpaceOnUse">
<stop stop-color="#303030" style="stop-color:#303030;stop-color:color(display-p3 0.1900 0.1900 0.1900);stop-opacity:1;"/>
<stop offset="0.25" stop-color="#303030" stop-opacity="0" style="stop-color:none;stop-opacity:0;"/>
<stop offset="0.5" stop-color="#303030" stop-opacity="0" style="stop-color:none;stop-opacity:0;"/>
<stop offset="0.75" stop-color="#303030" style="stop-color:#303030;stop-color:color(display-p3 0.1882 0.1882 0.1882);stop-opacity:1;"/>
<stop offset="1" stop-color="#303030" style="stop-color:#303030;stop-color:color(display-p3 0.1882 0.1882 0.1882);stop-opacity:1;"/>
</linearGradient>
</defs>
</svg>
