<svg width="210" height="143" viewBox="0 0 210 143" fill="none" xmlns="http://www.w3.org/2000/svg">
<g id="codeTerminal">
<path id="Rectangle 591" d="M206.664 55.6807C206.473 46.0577 198.519 38.4166 188.896 38.6116L19.2454 42.0499C9.61791 42.245 1.96636 50.2096 2.15727 59.8371L3.4249 123.763C3.61572 133.386 11.5699 141.028 21.1932 140.833L190.842 137.395C200.47 137.2 208.122 129.235 207.931 119.607L206.664 55.6807Z" fill="#06080F" style="fill:#06080F;fill:color(display-p3 0.0235 0.0314 0.0588);fill-opacity:1;"/>
<path id="Rectangle 590" d="M206.477 39.1016L1.82991 43.2491L1.4372 23.1011C1.24959 13.4754 8.90059 5.51403 18.5262 5.31895L188.315 1.87785C197.941 1.68277 205.896 9.32784 206.084 18.9536L206.477 39.1016Z" fill="#1B1F2C" style="fill:#1B1F2C;fill:color(display-p3 0.1064 0.1219 0.1736);fill-opacity:1;"/>
<path id="outline" d="M208.074 119.54C208.262 129.166 200.611 137.127 190.985 137.322L21.1961 140.763C11.5705 140.958 3.61532 133.313 3.4277 123.687L1.45897 22.6809C1.27135 13.0552 8.92236 5.09382 18.548 4.89874L188.337 1.45763C197.963 1.26255 205.918 8.90763 206.106 18.5334L208.074 119.54Z" stroke="#2A2E3C" style="stroke:#2A2E3C;stroke:color(display-p3 0.1647 0.1804 0.2353);stroke-opacity:1;" stroke-width="2.90538"/>
<path id="greenborder" d="M190.948 135.414L21.1586 138.855C12.5825 139.029 5.49506 132.217 5.3279 123.641L3.35917 22.6345C3.19209 14.0582 10.0084 6.96454 18.5845 6.79049L188.374 3.34938C196.95 3.17557 204.038 9.98752 204.206 18.5639L206.174 119.57C206.342 128.147 199.524 135.24 190.948 135.414Z" stroke="#8CBC15" style="stroke:#8CBC15;stroke:color(display-p3 0.5472 0.7380 0.0820);stroke-opacity:1;" stroke-width="3.80047"/>
<path id="Vector" d="M37.6016 61.5234L71.0327 85.554L38.6027 110.919M87.9986 109.918L120.929 109.251" stroke="#AFD84B" style="stroke:#AFD84B;stroke:color(display-p3 0.6863 0.8471 0.2941);stroke-opacity:1;" stroke-width="8.71615" stroke-linecap="round" stroke-linejoin="round"/>
<circle id="Ellipse 208" cx="21.0992" cy="23.3246" r="5.81076" transform="rotate(-1.16106 21.0992 23.3246)" fill="#CE3A32" style="fill:#CE3A32;fill:color(display-p3 0.8078 0.2275 0.1961);fill-opacity:1;"/>
<circle id="Ellipse 209" cx="37.0836" cy="22.9965" r="5.81076" transform="rotate(-1.16106 37.0836 22.9965)" fill="#3DB54E" style="fill:#3DB54E;fill:color(display-p3 0.2392 0.7098 0.3059);fill-opacity:1;"/>
</g>
</svg>
