<svg xmlns="http://www.w3.org/2000/svg" width="60" height="74" viewBox="0 0 60 74" fill="none"><metadata><rdf:RDF xmlns:rdf="http://www.w3.org/1999/02/22-rdf-syntax-ns#" xmlns:dc="http://purl.org/dc/elements/1.1/"><rdf:Description><dc:creator>RealFaviconGenerator</dc:creator><dc:source>https://realfavicongenerator.net</dc:source></rdf:Description></rdf:RDF></metadata><g id="favicon">
<g id="menchen-head-only">
<path id="skin" d="M43.4103 61.75C43.4798 61.7502 43.2446 63.2243 43.2186 64.1468C43.114 67.8406 40.8518 71.59 38.1373 72.9671C36.7444 73.6737 34.7137 73.6199 33.3443 73.3324C31.8924 73.0274 30.3852 72.0061 29.7266 70.8809C29.1203 69.8452 28.8582 69.4418 30.4855 69.1023C34.4123 68.2829 38.1216 66.218 41.1094 63.1881C41.8438 62.4432 43.3407 61.7501 43.4103 61.75Z" fill="#EFBDA2" style="fill:#EFBDA2;fill:color(display-p3 0.9373 0.7412 0.6353);fill-opacity:1;"></path>
<g id="glasses">
<path fill-rule="evenodd" clip-rule="evenodd" d="M32.6699 31.5392C34.3278 31.1187 37.8424 31.3223 39.5727 31.9303C41.515 32.6126 42.1439 33.6708 43.12 34.9983C44.141 36.3869 44.768 37.9873 44.7499 39.7919C44.6888 45.816 38.511 50.5644 32.8616 49.0916C29.8253 48.3001 27.2726 45.2553 26.3422 42.1887C25.7664 40.2907 25.8803 37.8834 26.6299 36.2446C27.5988 34.1266 30.1103 32.1883 32.6699 31.5392Z" fill="white" style="fill:white;fill-opacity:1;"></path>
<path fill-rule="evenodd" clip-rule="evenodd" d="M7.55048 33.3685C9.70563 31.4739 13.5238 30.4259 16.946 31.1632C18.595 31.5185 20.7253 32.9481 21.6425 33.9707C23.0169 35.5025 23.8818 37.8935 23.466 40.1754C23.155 41.8823 21.6861 44.3737 20.4933 45.5443C16.3981 49.5635 9.27789 48.6034 6.78375 43.531C5.9522 41.8398 5.47009 39.4268 5.63307 37.8745C5.78899 36.3902 6.5981 34.2056 7.55048 33.3685Z" fill="white" style="fill:white;fill-opacity:1;"></path>
</g>
<path id="Group 574 (Traced)" fill-rule="evenodd" clip-rule="evenodd" d="M31.344 19.5506C34.7927 20.7542 38.3114 20.9396 41.9408 21.0532C44.6061 21.1368 47.1986 20.9998 47.2521 21.0532C47.3056 21.1066 46.9702 22.3728 46.6765 23.2022C46.1538 24.6776 45.9128 24.5039 45.9228 28.5294C45.9307 31.7334 46.0049 32.9321 46.2583 33.9472C46.4371 34.6643 47.2221 35.3678 46.6765 35.9533C46.0359 36.6406 45.4689 35.5759 44.5234 34.8799C42.8362 33.6381 40.9402 32.4695 38.9145 31.869C36.1695 31.0553 33.0293 31.202 30.4463 32.4261C28.6865 33.2599 26.2227 37.3833 23.9051 36.145C23.7038 36.0375 23.0598 35.3497 22.4738 34.6166C19.9111 31.4106 15.1188 30.7356 11.2814 31.2515C10.08 31.4128 9.0232 31.4995 8.93311 31.4438C8.84159 31.3874 8.97922 29.8065 9.09428 29.6256C10.461 27.4802 15.212 27.6974 17.3394 27.5164C18.4774 27.4198 19.6919 27.506 19.8385 27.3843C20.6285 26.7296 20.2252 24.9716 19.3919 24.5261C17.3149 23.4165 14.2234 24.7499 12.2581 25.4072C11.314 25.723 10.5318 25.8866 10.495 25.8866C10.113 25.8866 11.4703 22.0956 11.4911 22.0517C12.1538 20.6566 13.1306 19.4875 13.2776 19.4312C13.4247 19.375 14.246 19.4055 15.1343 19.7507C18.7399 21.1519 24.296 20.7411 27.7899 18.7918C28.3417 18.4841 28.5097 18.492 28.7486 18.5045C28.9874 18.5169 30.1842 19.1461 31.344 19.5506ZM32.3203 24.3154C31.6135 24.431 31.0192 24.6587 30.7388 24.9216C30.3439 25.2921 29.8894 27.1113 30.4771 27.4744C30.5803 27.5379 31.8245 27.7121 33.2423 27.8611C34.6599 28.0102 36.0636 28.1907 36.3615 28.2622C37.9001 28.6309 39.5052 29.8689 41.104 29.8689C41.7462 29.8689 42.3642 28.9199 42.3656 28.3185C42.3734 24.8769 34.6472 23.935 32.3203 24.3154ZM25.4494 36.6933C25.615 36.7601 25.6894 37.3018 25.6905 38.4483C25.6921 40.2774 25.8708 42.1248 26.6515 43.8024C28.1567 47.0378 31.901 49.3879 35.4654 49.3879C38.5297 49.3879 41.59 47.8046 43.3198 45.2736C44.4396 43.6341 44.9139 41.7219 45.0069 39.7664C45.0608 38.6318 45.1794 37.6576 45.2707 37.6013C46.4834 36.852 47.5383 40.9109 47.576 41.3708C47.614 41.835 48.0691 47.4584 48.167 47.4259C48.2789 47.3886 48.742 46.6428 49.1964 45.7685C49.7855 44.635 50.6093 42.9215 51.8124 42.2792C52.6565 41.8285 54.4775 41.9256 55.3085 42.3569C58.4282 43.9766 57.6772 48.9028 56.3598 51.3888C55.1915 53.5941 52.4047 55.8794 49.8406 56.1825C48.6895 56.3185 46.8686 55.3976 46.8686 53.9774C46.8686 52.9682 46.2567 54.6194 46.1943 54.7899C45.4761 56.7523 44.5288 59.2081 43.2681 60.8803C39.8551 65.4069 34.9025 68.3348 29.3661 69.38C25.328 70.1432 20.2172 69.3856 16.6686 67.112C11.8195 64.0051 9.24917 57.5199 8.51943 51.9641C8.45895 51.5037 7.70807 46.7088 8.70096 46.7088C8.84646 46.7088 9.42863 46.9201 9.99489 47.1783C12.61 48.3704 16.5444 48.8624 19.1044 47.1859C19.3447 47.0288 19.8292 46.8828 19.9283 46.8828C20.1342 46.8828 19.7288 50.0565 19.8201 50.4198C20.037 51.2826 21.2325 50.8612 21.7616 50.5348C23.0004 49.7704 23.3601 47.6977 23.7606 46.4409C24.0926 45.3988 24.3359 44.4085 24.3012 44.2403C24.2665 44.0719 23.9895 44.623 23.6856 45.465C23.4509 46.1154 21.7442 51.4383 20.4077 50.6218C19.1044 49.1837 21.2771 45.6545 21.7672 44.7899C22.9399 42.7206 23.7478 40.725 23.9051 38.3379C23.9813 37.1799 24.0574 36.1338 25.4494 36.6933Z" fill="#EFBDA2" style="fill:#EFBDA2;fill:color(display-p3 0.9373 0.7412 0.6353);fill-opacity:1;"></path>
<path id="Intersect" d="M26.6286 0.340869C24.9386 0.272416 24.5455 0.00700344 23.5977 0.408322C21.7414 1.19428 20.3739 2.20623 20.6228 2.60966C20.684 2.70877 19.9015 2.74689 18.7743 2.69972C16.2863 2.59541 14.4551 2.96694 12.4147 3.98952C10.0864 5.15647 8.86521 6.45513 7.22029 9.51382C5.44454 12.8155 4.61773 13.4529 2.15138 13.4208C1.33519 13.4103 0.674882 13.7432 0.551121 13.714C0.427596 13.6849 0.479826 13.7223 0.359375 13.9057C0.805038 14.5476 1.75131 17.105 3.83962 19.1191C5.68086 20.895 7.36362 21.8636 9.56318 21.8636C10.3558 21.8636 11.0972 22.2471 11.0972 22.2471C11.0972 22.2471 12.0732 20.4986 12.6311 19.7544C12.9051 19.389 13.3046 18.6462 14.4527 19.162C15.096 19.4509 15.7534 20.0196 16.466 20.1709C18.0959 20.5166 21.3552 20.6763 23.273 20.3338C24.8726 20.0481 27.0708 19.5499 27.5873 18.9783C27.7671 18.7793 28.2349 18.5076 28.2584 18.5076C28.2833 18.5083 28.5564 18.3465 29.1213 18.604C32.1691 19.9928 36.4771 20.8125 42.6394 20.9779C46.0502 21.0694 48.4328 20.3353 47.5394 20.9779C45.9846 24.2109 45.345 29.5349 46.4803 34.0759C46.4803 35.7084 47.7291 39.3157 47.9124 42.1533C48.0043 43.577 47.9635 44.6335 47.9124 45.1608C47.7914 46.4075 47.8696 47.27 48.3097 47.27C48.5351 47.27 48.4738 46.5745 48.7752 45.8319C49.2477 44.6682 49.939 43.9035 50.5968 43.1475C51.6015 41.9931 53.4758 40.8834 54.9111 41.7094C54.9111 41.7094 55.0218 41.5604 55.5383 39.7523C55.8546 38.6451 56.2438 37.189 56.3492 36.8198C57.3809 33.2027 57.4453 28.4841 56.3492 24.2605C56.0895 23.2594 55.8668 21.3566 56.0533 20.9779C56.0535 20.6916 56.6333 20.666 57.1784 20.9779C57.8228 21.3466 59.3688 21.8567 59.513 21.4802C59.744 20.8777 59.979 21.2142 59.513 20.6599C59.0702 20.1331 58.9803 19.6344 57.6828 19.162L57.1784 18.9783L56.948 17.6927C57.6084 14.8823 57.6136 14.453 55.3646 15.3087C54.1265 15.78 53.7606 15.7597 53.7606 15.3087C53.7606 14.3428 52.6666 11.0323 51.7473 9.11254C50.1361 5.7476 49.175 4.32806 47.2413 3.07212C45.3296 1.83058 44.9667 1.99902 45.1314 3.98952L45.2279 5.6607L43.5981 4.51022C40.9362 2.24325 39.1177 0.922469 36.887 0.579426C35.6718 0.392477 35.513 0.323265 35.2571 0.579426C34.9888 0.848245 35.4213 0.493615 35.7879 1.75183C36.011 2.51759 36.2298 3.51952 36.1872 3.56239C36.1436 3.60483 34.3866 3.03761 33.0163 2.27766C29.5634 0.362506 28.9231 0.433867 26.6286 0.340869Z" fill="#554845" style="fill:#554845;fill:color(display-p3 0.3333 0.2824 0.2706);fill-opacity:1;"></path>
<path id="Group 573 (Traced)" fill-rule="evenodd" clip-rule="evenodd" d="M29.1212 0.326342C29.6679 0.527828 31.0045 1.14916 32.0914 1.70722C33.1781 2.26528 34.3943 2.88834 34.794 3.09174C35.1936 3.29495 35.5661 3.41573 35.6218 3.35994C35.6778 3.30415 35.5406 2.64468 35.3173 1.89471C35.0941 1.14456 34.9707 0.434849 35.0433 0.317331C35.1297 0.177384 35.5776 0.142877 36.3458 0.217068C36.9898 0.279374 37.9585 0.463222 38.4983 0.625982C39.0383 0.788551 40.1162 1.3376 40.8936 1.84621C41.6712 2.35462 42.8165 3.21731 43.4389 3.7631C44.0613 4.3089 44.641 4.75539 44.7272 4.75539C44.8134 4.75539 44.8646 4.24123 44.841 3.61281C44.8098 2.77523 44.8807 2.38759 45.1064 2.161C45.3897 1.87688 45.4743 1.87688 46.1517 2.16004C46.5572 2.32951 47.3335 2.80399 47.8767 3.21443C48.4202 3.62469 49.2746 4.50598 49.7757 5.17274C50.2768 5.8395 51.054 7.1182 51.5028 8.01444C51.9516 8.91068 52.5332 10.2478 52.7951 10.9859C53.0571 11.724 53.424 12.9749 53.6105 13.7657C53.7967 14.5565 54.0133 15.2741 54.0913 15.3605C54.1695 15.4468 54.8618 15.3264 55.63 15.0931C56.9967 14.6777 57.0325 14.6763 57.2998 15.0319C57.4857 15.279 57.5403 15.6711 57.4702 16.2579C57.4136 16.7324 57.3111 17.5107 57.2425 17.9877C57.1178 18.8546 57.1178 18.8546 58.1926 19.3003C58.7837 19.5453 59.4437 19.9702 59.6593 20.2443C59.9063 20.5585 60.0299 20.9588 59.9938 21.328C59.9412 21.8662 59.8825 21.9104 59.2659 21.8779C58.897 21.8583 58.1106 21.7839 57.5181 21.7124C56.9058 21.6384 56.3934 21.6593 56.3308 21.7607C56.2702 21.8589 56.427 22.8391 56.6795 23.9391C56.9319 25.0391 57.2289 26.6702 57.3399 27.5637C57.4506 28.4571 57.5413 29.7684 57.5413 30.4775C57.5413 31.1865 57.4133 32.7435 57.2569 33.9377C57.1003 35.1316 56.6606 37.228 56.2794 38.5964C55.8985 39.9646 55.5514 41.2136 55.5085 41.3718C55.4629 41.5393 55.7141 41.8593 56.1108 42.1386C56.485 42.4022 57.022 43.0492 57.3038 43.5764C57.7597 44.4289 57.817 44.747 57.8226 46.452C57.8275 47.9802 57.7333 48.6609 57.3586 49.8069C57.0896 50.6301 56.4722 51.8594 55.9142 52.6826C55.2933 53.5986 54.5126 54.444 53.7632 55.0122C52.9758 55.609 52.2624 55.9735 51.6053 56.1145C51.0655 56.2303 50.0881 56.325 49.4329 56.325C48.608 56.325 48.022 56.2071 47.5268 55.9416C47.1334 55.7307 46.7253 55.5582 46.6195 55.5582C46.5137 55.5582 46.4271 55.6661 46.4269 55.7978C46.4269 55.9297 46.1814 56.5564 45.8814 57.1908C45.5815 57.8252 44.9773 58.935 44.5386 59.6571C43.7798 60.9067 43.7371 61.0593 43.6518 62.8173C43.6024 63.8331 43.3935 65.3231 43.1877 66.1283C42.9817 66.9332 42.5107 68.193 42.1411 68.9274C41.7712 69.6618 41.0254 70.7479 40.4837 71.341C39.831 72.0555 39.0688 72.631 38.2247 73.047C37.0554 73.6231 36.8007 73.6747 35.1228 73.6747C33.4523 73.6747 33.1875 73.6218 32.0423 73.0583C31.3534 72.7192 30.2343 71.9213 29.5554 71.285C28.356 70.1607 28.2915 70.1281 27.2661 70.1263C26.6857 70.1256 25.2307 70.038 24.0326 69.932C22.8346 69.8257 21.2393 69.5999 20.4876 69.4301C19.7359 69.2602 18.5603 68.8394 17.8752 68.4953C17.1902 68.151 16.096 67.4756 15.4435 66.9946C14.7912 66.5136 13.7996 65.5631 13.2398 64.8823C12.6803 64.2018 11.9351 63.1683 11.584 62.5861C11.2332 62.0038 10.6558 60.853 10.3011 60.0287C9.9464 59.2041 9.43324 57.7558 9.16075 56.8101C8.88826 55.8642 8.54295 54.3342 8.39348 53.4099C8.24421 52.4857 8.0614 50.4313 7.98762 48.845C7.8533 45.9607 7.8533 45.9607 7.15138 44.8643C6.76526 44.2614 6.25842 43.3151 6.02502 42.7615C5.79143 42.2078 5.51147 41.0441 5.40263 40.1757C5.29379 39.3071 5.25757 38.1641 5.32234 37.6357C5.38711 37.1072 5.48426 36.4424 5.53849 36.1582C5.62452 35.7075 5.53753 35.5906 4.85765 35.2436C4.26726 34.9422 4.07831 34.7323 4.07831 34.3771C4.07831 34.1194 4.33241 33.6189 4.64284 33.2652C5.00309 32.8549 5.69198 32.4316 6.54528 32.0967C7.28092 31.808 7.96501 31.469 8.06562 31.3435C8.16603 31.2181 8.39004 30.2724 8.56327 29.2423C8.75374 28.1105 9.22474 26.4794 9.75381 25.1206C10.2352 23.8837 10.6734 22.7641 10.7277 22.6322C10.7984 22.4601 10.5642 22.392 9.89543 22.3903C9.3836 22.3891 8.50175 22.2647 7.93588 22.114C7.37002 21.9634 6.42148 21.6058 5.82802 21.3194C5.13013 20.9824 4.20019 20.2462 3.19493 19.2346C1.9764 18.0084 1.47128 17.3215 0.855209 16.0537C0.423098 15.1644 0.0444477 14.221 0.0139795 13.9574C-0.0410164 13.4824 -0.0249116 13.477 1.86354 13.3424C2.91153 13.2676 4.01125 13.106 4.30769 12.9831C4.60413 12.8605 5.0968 12.4747 5.40263 12.1264C5.70846 11.7779 6.50561 10.5716 7.17418 9.44593C7.84276 8.32002 8.77788 6.9171 9.25215 6.32836C9.72642 5.73943 10.6497 4.89917 11.3041 4.46112C11.9583 4.02287 13.0793 3.46193 13.7952 3.21443C14.8832 2.8383 15.5523 2.75548 17.8752 2.70947C19.8257 2.67075 21.0125 2.73861 21.8573 2.93722C22.5194 3.09289 23.4033 3.39483 23.8215 3.6082C24.2398 3.82177 24.582 4.08364 24.582 4.19023C24.582 4.29682 24.4525 4.4337 24.2942 4.49447C24.1359 4.55525 23.6517 4.46303 23.2182 4.28954C22.7848 4.11604 21.8579 3.85762 21.1587 3.71537C20.4594 3.57293 19.3699 3.40193 18.7375 3.33502C18.0348 3.26083 16.9696 3.32141 15.9983 3.49107C15.1241 3.64386 13.8737 4.02095 13.2197 4.32903C12.5657 4.63711 11.5949 5.23581 11.0624 5.65968C10.5297 6.08335 9.69729 7.02369 9.21249 7.7495C8.72768 8.47511 7.96444 9.71087 7.51623 10.4955C7.06802 11.28 6.35998 12.2924 5.94301 12.745C5.49327 13.2331 4.90134 13.6466 4.48782 13.7617C4.10457 13.8681 3.20604 13.9557 2.49148 13.9563C1.4548 13.9572 1.16717 14.0222 1.06906 14.2778C0.997012 14.4656 1.19592 15.0793 1.55062 15.7635C1.88308 16.4044 2.49473 17.3397 2.90979 17.842C3.32485 18.3441 4.03329 19.063 4.4838 19.4397C4.9343 19.8162 5.79372 20.3722 6.3935 20.6751C6.99328 20.978 7.86019 21.3106 8.32009 21.4143C8.77999 21.518 9.54994 21.6472 10.0309 21.7017C10.9053 21.8004 10.9053 21.8004 11.6118 20.492C12.0002 19.7723 12.3181 18.9997 12.3181 18.7751C12.3181 18.5506 12.4329 18.3667 12.5734 18.3667C12.7138 18.3667 13.77 18.7026 14.9207 19.113C16.2541 19.5887 17.5341 19.9052 18.4501 19.9857C19.2405 20.0551 20.8789 20.0263 22.0909 19.9217C23.3029 19.817 24.8551 19.5526 25.5401 19.3343C26.2252 19.1159 26.9536 18.8086 27.1586 18.6512C27.4481 18.4294 27.4803 18.314 27.3023 18.1359C27.1762 18.0097 27.0731 17.7513 27.0731 17.5615C27.0731 17.3717 27.1937 17.2165 27.341 17.2165C27.4884 17.2165 27.9841 17.4323 28.4429 17.6963C28.9016 17.9601 30.3116 18.5145 31.5763 18.9282C32.841 19.3419 34.7812 19.8183 35.8878 19.987C37.1067 20.173 39.9205 20.3415 43.0258 20.4147C45.8449 20.4813 48.1517 20.5834 48.1517 20.6415C48.1517 20.6996 47.8476 21.4555 47.476 22.3213C47.015 23.395 46.7337 24.4331 46.5911 25.5882C46.4735 26.5393 46.4284 28.4573 46.4884 29.9651C46.5681 31.974 46.7427 33.2999 47.1832 35.2371C47.5067 36.6605 47.898 38.5584 48.0526 39.4547C48.2071 40.3509 48.3916 41.9252 48.4625 42.9534C48.5334 43.9815 48.6513 44.8225 48.7241 44.8225C48.7971 44.8225 48.9565 44.6036 49.0784 44.3358C49.2003 44.0681 49.7073 43.4137 50.205 42.8813C50.7026 42.3489 51.3712 41.7778 51.6908 41.6122C52.0171 41.4429 52.8141 41.2983 53.5103 41.282C54.7489 41.2529 54.7489 41.2529 55.2793 39.2566C55.5712 38.1585 55.9924 36.1795 56.2154 34.8588C56.544 32.9128 56.6061 31.8937 56.5429 29.4858C56.4816 27.1554 56.345 25.9499 55.909 23.8985C55.4409 21.6953 55.3935 21.2339 55.6084 20.9749C55.7712 20.7786 56.166 20.6672 56.6985 20.6672C57.1578 20.6672 57.8837 20.8074 58.3118 20.9787C58.7399 21.1501 59.1317 21.2487 59.1825 21.1979C59.2333 21.1471 59.222 20.9678 59.1574 20.7993C59.0928 20.631 58.6755 20.3166 58.2301 20.1009C57.7846 19.8852 57.1346 19.7087 56.7857 19.7087C56.1512 19.7087 56.1512 19.7087 56.2595 18.7981C56.3189 18.2971 56.4281 17.3913 56.5023 16.7851C56.5762 16.1789 56.6025 15.6828 56.5607 15.6828C56.5189 15.6828 56.1836 15.7761 55.8153 15.8904C55.4472 16.0047 54.865 16.1682 54.5215 16.2541C53.9888 16.3871 53.8441 16.3426 53.5359 15.9508C53.3374 15.6981 53.0864 14.9884 52.9781 14.3736C52.8699 13.7586 52.4638 12.3998 52.0758 11.3538C51.6879 10.308 51.0126 8.77418 50.5756 7.94562C50.1383 7.11686 49.3904 5.95434 48.9134 5.36196C48.4365 4.76958 47.6173 3.9598 47.093 3.56258C46.5687 3.16536 46.0209 2.83983 45.8758 2.83926C45.6723 2.83849 45.6384 3.04707 45.7275 3.74892C45.7911 4.24966 45.8992 5.11235 45.9678 5.66601C46.0444 6.28446 46.0197 6.67248 45.9036 6.67248C45.7995 6.67248 45.3674 6.39201 44.9434 6.04942C44.5191 5.70684 43.6231 4.94326 42.9522 4.35299C42.2813 3.76253 41.2581 2.96253 40.6784 2.57509C40.0987 2.18764 38.9517 1.65699 38.1294 1.39588C37.3072 1.13478 36.4648 0.921214 36.2574 0.921214C35.9441 0.921214 35.9012 1.01036 36.0034 1.44841C36.0708 1.73847 36.3404 2.52294 36.6022 3.19181C36.9036 3.96191 37.0113 4.47492 36.8958 4.59052C36.7802 4.70612 36.3337 4.6233 35.6782 4.36488C35.1091 4.14039 34.5568 3.88656 34.451 3.80068C34.3454 3.71499 33.1353 3.0789 31.7618 2.38721C30.3884 1.69572 28.7535 0.996555 28.1286 0.833794C27.5039 0.671034 26.6839 0.537796 26.3066 0.537796C25.9293 0.537796 25.1067 0.670268 24.4785 0.83207C23.8504 0.993872 22.8333 1.43499 22.2182 1.81247C21.4748 2.26854 21.0358 2.43456 20.9088 2.30746C20.7819 2.18055 20.8927 1.95433 21.2392 1.63284C21.5258 1.36694 22.2442 0.904728 22.8358 0.605854C23.7937 0.121981 24.1419 0.0567987 26.0192 0.0113638C27.7105 -0.0296619 28.3235 0.0326445 29.1212 0.326342ZM27.3797 19.4014C26.7851 19.7597 25.6752 20.2125 24.9133 20.4078C23.8389 20.6833 22.8185 20.7631 20.3663 20.7629C17.2616 20.7627 17.1735 20.7512 15.4799 20.1274C14.5314 19.7779 13.6217 19.4489 13.4587 19.3964C13.235 19.3243 12.8506 19.9531 11.8983 21.949C11.2033 23.4056 10.5903 24.7913 10.5362 25.0286C10.482 25.2659 10.4567 25.4599 10.4797 25.4599C10.5027 25.4599 11.2924 25.1858 12.2342 24.8507C13.8153 24.2884 14.1408 24.2405 16.4716 24.2276C18.7471 24.2152 19.0495 24.2535 19.5375 24.6156C19.851 24.8482 20.1538 25.3133 20.2569 25.7203C20.3941 26.2617 20.3619 26.5768 20.1164 27.0918C19.8666 27.6157 19.683 27.761 19.2675 27.7635C18.9761 27.7652 17.7459 27.8511 16.5338 27.9546C15.1513 28.0727 13.4073 28.391 11.8538 28.8089C10.4918 29.1752 9.30733 29.5851 9.22187 29.7201C9.1364 29.8549 9.06513 30.212 9.0634 30.5136C9.06072 31.0285 9.09866 31.0551 9.6833 30.9476C10.0259 30.8845 10.9959 30.7365 11.8391 30.619C12.7075 30.4977 14.0644 30.4599 14.9694 30.5318C15.848 30.6016 17.1415 30.836 17.8438 31.0527C18.5461 31.2693 19.5519 31.6621 20.0789 31.9255C20.6058 32.1889 21.3175 32.6151 21.6605 32.8724C22.0033 33.1298 22.5859 33.8127 22.9548 34.3897C23.3238 34.9668 23.8464 35.5229 24.1164 35.6255C24.3862 35.7282 24.9852 35.8122 25.4476 35.8122C26.2254 35.8122 26.3315 35.7491 26.8679 34.9695C27.1866 34.5057 27.9023 33.7611 28.458 33.3144C29.0137 32.8678 29.9802 32.2577 30.6057 31.9589C31.2312 31.66 32.2228 31.3155 32.8094 31.1934C33.4507 31.0598 34.7158 31.0114 35.9836 31.072C37.5452 31.1468 38.4586 31.2996 39.508 31.6615C40.2871 31.9303 41.6057 32.562 42.4381 33.0656C43.2707 33.569 44.4607 34.393 45.0829 34.8966C45.7049 35.4002 46.3108 35.8122 46.4292 35.8122C46.5476 35.8122 46.5978 35.6611 46.5405 35.4767C46.4834 35.2923 46.3012 34.5373 46.1358 33.7993C45.9705 33.0612 45.7848 31.2495 45.7233 29.7734C45.6547 28.1264 45.6991 26.4315 45.8382 25.3863C45.963 24.4494 46.2217 23.2848 46.4131 22.7982C46.6047 22.3115 46.8247 21.7624 46.9021 21.5778C47.0332 21.2659 46.8102 21.2421 43.717 21.2406C41.8877 21.2398 39.4035 21.1517 38.1967 21.0447C36.9898 20.9379 35.143 20.6753 34.0925 20.4611C33.0422 20.247 31.4427 19.78 30.5381 19.4236C29.6336 19.067 28.7962 18.7697 28.6772 18.7628C28.5582 18.7559 27.9743 19.0433 27.3797 19.4014ZM35.4087 24.255C35.7249 24.2988 36.501 24.4646 37.1334 24.6237C37.7657 24.7826 38.8957 25.2055 39.6444 25.5635C40.4469 25.9471 41.2925 26.532 41.7043 26.9879C42.1518 27.4834 42.4028 27.9508 42.4022 28.2882C42.4019 28.5779 42.2307 29.0953 42.0219 29.4379C41.75 29.884 41.5005 30.0609 41.1435 30.0609C40.8691 30.0609 39.973 29.7655 39.1519 29.4043C38.331 29.0432 37.196 28.6086 36.6298 28.4387C36.0637 28.2687 34.4794 28.048 33.1093 27.9483C31.1223 27.804 30.5697 27.701 30.3786 27.4397C30.2468 27.2595 30.1391 26.7452 30.1391 26.2967C30.1391 25.7243 30.2675 25.3351 30.5703 24.9906C30.8665 24.6536 31.3245 24.4402 32.0335 24.3091C32.6013 24.2039 33.4636 24.1308 33.9497 24.1467C34.4361 24.1624 35.0926 24.2111 35.4087 24.255ZM11.341 31.6703C10.8562 31.8199 10.0183 32.1661 9.47903 32.4395C8.93981 32.7129 8.20167 33.2335 7.83892 33.5964C7.47599 33.9593 6.89805 34.8278 6.55447 35.526C6.05951 36.5317 5.91253 37.1016 5.84642 38.269C5.7897 39.2731 5.86617 40.1389 6.08672 40.9883C6.26455 41.6737 6.68248 42.7475 7.01552 43.3744C7.34856 44.0014 8.02863 44.9222 8.52666 45.4205C9.02488 45.9189 9.97783 46.5952 10.6447 46.9236C11.3113 47.252 12.4492 47.6188 13.1731 47.7388C14.1732 47.9046 14.8106 47.9019 15.8267 47.7277C16.6308 47.5896 17.6903 47.2216 18.4826 46.805C19.275 46.3884 20.1651 45.7134 20.7137 45.1128C21.2158 44.5631 21.9014 43.5551 22.2373 42.8727C22.573 42.19 22.9898 41.0773 23.1634 40.3996C23.3828 39.5425 23.4434 38.7887 23.3625 37.9214C23.2866 37.1084 23.0446 36.2654 22.6667 35.4974C22.3479 34.8496 21.7326 33.9994 21.2993 33.6078C20.8661 33.2161 19.8968 32.6045 19.1455 32.2487C18.3941 31.8929 17.3051 31.5181 16.7255 31.4159C16.1458 31.3138 14.8955 31.2679 13.9469 31.3143C12.9984 31.3605 11.8257 31.5208 11.341 31.6703ZM31.9434 32.0591C31.24 32.3145 30.2006 32.8432 29.6336 33.2337C29.0668 33.6244 28.3447 34.2381 28.0293 34.5975C27.7137 34.9572 27.2433 35.6703 26.9838 36.1828C26.7244 36.6952 26.4185 37.7 26.3041 38.4156C26.1547 39.3525 26.1549 40.0942 26.3055 41.0643C26.4226 41.8202 26.7844 42.9622 27.1291 43.6652C27.5083 44.4383 28.221 45.4042 28.9894 46.1865C29.6744 46.884 30.6697 47.6744 31.2013 47.943C31.7326 48.2114 32.6768 48.5792 33.2992 48.7602C34.1366 49.0039 34.8444 49.0637 36.0218 48.9901C37.3242 48.9088 37.8749 48.7664 39.0584 48.2041C39.9675 47.7722 40.9285 47.1121 41.6476 46.4258C42.3884 45.719 43.0218 44.8735 43.4454 44.0265C43.8051 43.3071 44.202 42.2243 44.3273 41.6202C44.4528 41.0159 44.5168 39.8559 44.4697 39.0421C44.4022 37.876 44.2535 37.297 43.7678 36.3101C43.4288 35.6213 42.7648 34.6708 42.2921 34.1978C41.8193 33.7249 40.8729 33.0623 40.189 32.7255C39.5049 32.3885 38.4945 32.0037 37.9435 31.8701C37.3926 31.7365 36.1049 31.6199 35.082 31.6109C33.5663 31.5977 32.986 31.6805 31.9434 32.0591ZM24.0033 37.6814C24.0012 38.2877 23.9144 39.373 23.8104 40.0934C23.699 40.8632 23.3485 41.9697 22.9601 42.7774C22.5966 43.5331 21.9468 44.7123 21.516 45.3976C21.0853 46.083 20.6024 47.0925 20.443 47.6408C20.2833 48.1893 20.1793 49.052 20.2117 49.5579C20.2605 50.3221 20.3383 50.4877 20.671 50.5352C20.9385 50.5734 21.2997 50.3397 21.759 49.8309C22.2674 49.2679 22.6014 48.5781 23.0395 47.1855C23.3654 46.1495 23.7726 44.9784 23.9445 44.5829C24.1164 44.1876 24.321 43.864 24.3992 43.864C24.4774 43.864 24.4598 44.2307 24.3601 44.6787C24.2603 45.1268 23.877 46.3993 23.508 47.5064C23.1391 48.6136 22.7078 49.7176 22.5495 49.9599C22.3912 50.2021 21.9861 50.5684 21.6494 50.7739C21.3125 50.9794 20.7976 51.1478 20.5052 51.1481C20.1105 51.1487 19.9254 51.0222 19.7866 50.6572C19.6839 50.3867 19.5998 49.7607 19.5998 49.2659C19.5998 48.7713 19.6845 48.071 19.7882 47.7097C19.8917 47.3483 19.9394 47.0155 19.894 46.97C19.8487 46.9246 19.5268 47.0617 19.1788 47.2747C18.8306 47.4875 18.0961 47.7936 17.5464 47.9552C16.9964 48.1167 15.9617 48.3047 15.2469 48.3732C14.3601 48.4581 13.4901 48.4015 12.5097 48.1953C11.7193 48.0288 10.5447 47.6332 9.89926 47.3161C9.25407 46.999 8.67192 46.7396 8.60581 46.7396C8.5397 46.7396 8.48566 47.3822 8.48566 48.1676C8.48566 48.9531 8.61769 50.6137 8.77903 51.858C8.94038 53.1022 9.28415 54.9214 9.54285 55.9004C9.80154 56.8793 10.2724 58.3035 10.5893 59.0653C10.9062 59.827 11.5689 61.1396 12.0619 61.9822C12.6364 62.9643 13.5483 64.1009 14.6023 65.149C15.7284 66.269 16.6716 67.0055 17.5964 67.4873C18.3389 67.8742 19.5893 68.3657 20.3749 68.5796C21.1606 68.7938 22.6108 69.0591 23.5977 69.1693C24.8528 69.3097 25.9918 69.3089 27.3889 69.1667C28.4875 69.0549 30.1828 68.7564 31.1564 68.5031C32.1301 68.2501 33.6249 67.7484 34.4784 67.3884C35.3319 67.0283 36.7526 66.2623 37.6356 65.686C38.5188 65.1099 39.795 64.1266 40.4718 63.5011C41.1488 62.8757 42.2016 61.7374 42.8114 60.9715C43.4211 60.2056 44.2238 59.0358 44.595 58.3717C44.9662 57.7076 45.5694 56.3584 45.9354 55.3732C46.3016 54.3882 46.6912 53.492 46.8015 53.3815C46.941 53.242 47.002 53.3906 47.002 53.8704C47.002 54.4175 47.1396 54.6808 47.6686 55.1455C48.0352 55.4675 48.6488 55.7898 49.0322 55.8619C49.4157 55.9338 50.1877 55.8901 50.748 55.7645C51.3083 55.6391 52.2845 55.2018 52.917 54.7927C53.5497 54.3836 54.4632 53.5474 54.9469 52.9343C55.4305 52.3214 56.0397 51.3723 56.3005 50.8253C56.5613 50.2782 56.9125 49.2429 57.0812 48.5248C57.2718 47.7116 57.3546 46.7409 57.3002 45.9521C57.2416 45.0993 57.0637 44.4194 56.7564 43.8724C56.4904 43.3989 55.9721 42.8673 55.5145 42.5991C54.9057 42.2421 54.4527 42.1388 53.5003 42.1394C52.6085 42.1397 52.0988 42.2456 51.641 42.5247C51.2884 42.7398 50.5936 43.5601 50.0647 44.3862C49.5444 45.1985 48.9705 46.2759 48.789 46.7806C48.5769 47.3707 48.3468 47.6982 48.1439 47.6982C47.8673 47.6982 47.8131 47.2681 47.7031 44.1995C47.6339 42.2751 47.4965 40.3557 47.3977 39.9339C47.2714 39.3952 46.9719 38.9534 46.3913 38.4488C45.9367 38.0537 45.4569 37.7301 45.3253 37.7299C45.1507 37.7295 45.0857 38.2141 45.0857 39.5156C45.0857 40.6007 44.9644 41.7111 44.7768 42.3433C44.6069 42.9162 44.2093 43.8971 43.8933 44.5236C43.5773 45.15 42.816 46.1654 42.2014 46.7802C41.4537 47.5283 40.6207 48.1168 39.6835 48.5593C38.8712 48.9429 37.6998 49.3097 36.8938 49.4325C35.8878 49.5863 35.1213 49.5874 34.1153 49.4368C33.2083 49.3008 32.1855 48.9638 31.1685 48.4658C30.1751 47.979 29.2308 47.3283 28.5607 46.6685C27.983 46.0997 27.2469 45.1712 26.925 44.6053C26.6033 44.0394 26.1865 43.0588 25.9989 42.4262C25.75 41.5863 25.6632 40.6711 25.6773 39.0339C25.6967 36.7918 25.6967 36.7918 24.9957 36.7176C24.61 36.6768 24.23 36.6291 24.1509 36.6112C24.0717 36.5936 24.0054 37.075 24.0033 37.6814ZM15.2143 38.793C15.413 39.0128 15.5757 39.3632 15.5757 39.5718C15.5757 39.7807 15.474 40.1416 15.3497 40.3741C15.2084 40.638 14.8931 40.7966 14.51 40.7966C14.1724 40.7966 13.7337 40.6168 13.535 40.397C13.3362 40.1772 13.1735 39.8404 13.1735 39.6483C13.1735 39.4563 13.2185 39.0418 13.535 38.793C13.8514 38.5439 14.4432 38.3934 14.5886 38.3934C14.7339 38.3934 15.0156 38.5732 15.2143 38.793ZM35.7838 39.422C36.0518 39.6901 36.2711 40.0264 36.2711 40.1692C36.2711 40.3121 36.1575 40.6411 36.0189 40.9004C35.8435 41.228 35.5078 41.3718 34.9173 41.3718C34.2479 41.3718 34.0094 41.2428 33.7906 40.7625C33.583 40.3067 33.583 39.9996 33.7906 39.5439C33.9799 39.1286 34.2634 38.9346 34.6825 38.9346C35.0201 38.9346 35.5159 39.1539 35.7838 39.422ZM54.5671 44.8917C54.8919 45.1294 54.8465 45.1641 54.0575 45.2826C53.4804 45.3691 53.0257 45.5859 52.6943 45.9323C52.4211 46.2182 51.9819 46.9265 51.7182 47.5064C51.4547 48.0864 51.0981 49.1862 50.9257 49.9507C50.7532 50.7153 50.5208 51.3406 50.4092 51.3406C50.2785 51.3406 50.2462 51.0028 50.3184 50.3926C50.3801 49.8712 50.6353 48.8574 50.8856 48.14C51.1357 47.4225 51.5768 46.4622 51.8656 46.0061C52.1816 45.5071 52.6508 45.0679 53.0437 44.9038C53.4028 44.7537 53.8121 44.6308 53.9535 44.6308C54.0947 44.6308 54.3708 44.7481 54.5671 44.8917ZM35.3233 51.8908C35.7918 52.1935 36.4652 52.7468 36.8195 53.1202C37.1738 53.4939 37.4271 53.9099 37.3821 54.0447C37.3298 54.2021 36.9881 54.0019 36.429 53.4862C35.9497 53.0441 35.4685 52.6826 35.3599 52.6826C35.2512 52.6826 35.1161 52.8028 35.0598 52.9498C35.0035 53.0967 34.2828 53.4383 33.4584 53.7086C32.634 53.9789 31.0972 54.4139 30.0433 54.6752C28.9894 54.9363 27.414 55.2463 26.5425 55.3638C25.3757 55.5212 24.3402 55.5208 22.6142 55.3627C21.3252 55.2444 19.7081 55.0297 19.0205 54.8855C18.333 54.7411 17.5353 54.5337 17.248 54.4244C16.9606 54.3152 16.7255 54.1373 16.7255 54.0293C16.7255 53.9212 16.8167 53.8328 16.9282 53.8328C17.0395 53.8328 18.0097 54.0259 19.084 54.2617C20.689 54.6142 21.6343 54.6911 24.3904 54.693C27.7438 54.6955 27.7438 54.6955 30.5224 53.8963C32.0505 53.4567 33.6769 52.9979 34.1364 52.8768C34.9718 52.6565 34.9718 52.6565 34.5961 52.2382C34.3893 52.0081 34.1592 51.7121 34.0846 51.5802C34.0049 51.4393 34.0567 51.3406 34.2101 51.3406C34.3539 51.3406 34.8548 51.5883 35.3233 51.8908ZM41.7264 63.2498C41.0973 63.8952 39.9328 64.9111 39.1385 65.5075C38.344 66.1041 37.0075 66.948 36.1683 67.3832C35.329 67.8182 33.9093 68.3952 33.0135 68.6653C32.1176 68.9355 31.0137 69.2502 30.5605 69.3649C30.1071 69.4793 29.689 69.6958 29.6315 69.8457C29.574 69.9956 29.7166 70.4252 29.9482 70.8002C30.1799 71.1752 30.7636 71.7831 31.2455 72.1514C31.7275 72.5194 32.5976 72.959 33.1792 73.1281C33.9009 73.338 34.6095 73.4009 35.4103 73.3262C36.0557 73.2658 37.0954 73.0256 37.7209 72.7921C38.5788 72.4719 39.1674 72.0574 40.1187 71.1041C40.9283 70.2928 41.5955 69.3946 41.983 68.5944C42.3149 67.909 42.7175 66.8341 42.8778 66.2057C43.0382 65.5773 43.1695 64.391 43.1695 63.5697C43.1695 62.7482 43.102 62.0763 43.0198 62.0763C42.9374 62.0763 42.3553 62.6043 41.7264 63.2498Z" fill="black" style="fill:black;fill-opacity:1;"></path>
</g>
</g></svg>