<svg xmlns="http://www.w3.org/2000/svg" fill="none" viewBox="0 0 365 234">
  <g id="bubbleLiveSwr" fill-opacity="1">
    <path id="Rectangle 621" fill="color(display-p3 .0235 .0588 .04)" stroke="color(display-p3 .4381 .5328 .2072)" stroke-opacity="1" stroke-width="3.8" d="m288.6 38.3-267 53.2a8 8 0 0 0-6.4 10l21.5 93c1 4.4 5.3 7.2 9.7 6.3l268-54.7c4.6-1 7.5-5.5 6.4-10l-10-39.5a12 12 0 0 1 3.6-11.9l19.8-18c.4-.3.2-1-.3-1l-24.2-4.8a12 12 0 0 1-9.2-8.5l-2.4-8.4a8 8 0 0 0-9.5-5.7Z"/>
    <path id="shipping live software" fill="color(display-p3 .6863 .8471 .2941)" d="m68.6 130 1.6-.6 1-.6.3-.9v-.9q-.2-1-1.3-1.5t-3.7-.8q-1.1 0-2.2-.4-1.2-.2-2.1-.8a6 6 0 0 1-1.7-1.4q-.7-1-1-2.4-.3-1.5 0-2.8t1.1-2.3a7 7 0 0 1 2.2-1.7q1.4-.8 3.1-1.1a13 13 0 0 1 6.6.1l-.6 4-2.2-.3q-1-.1-2.6.1-1.8.4-2.4 1-.7.7-.4 1.6 0 .6.4 1l1 .5 2.8.6q1.8.2 3.1.6t2.3 1a5 5 0 0 1 1.6 1.6q.6.9 1 2.5.5 3-1.2 5t-6 2.9a16 16 0 0 1-7.3-.2l.6-4 2.5.4q1.4.1 3.5-.3m21-22.6 4.8-1 4.3 21.1-4.7 1-1.9-9-8 1.7 1.9 9-4.7.9-4.4-21.1 4.8-1 1.6 8 8-1.5zm9.7-2 4.7-1 4.4 21.1-4.8 1zm15.9-3.5q4.7-1 7.6.2t3.6 4.9-1.4 6a14 14 0 0 1-7 3.2l-1.5.3 1.5 7-4.8 1-4.2-20.8a27 27 0 0 1 6.2-1.8m1.1 4-1.9.4 1.3 6.1 1.5-.3q2.4-.5 3.6-1.4 1.1-.9.7-2.8l-.6-1.4-1.1-.7-1.6-.2zm18.5-8q4.6-1 7.6.1 2.8 1.1 3.6 5 .7 3.8-1.4 6a14 14 0 0 1-7 3.1l-1.5.4 1.5 7-4.8 1-4.3-20.8a27 27 0 0 1 6.3-1.8m1.1 4-1.9.4 1.3 6.1 1.5-.3q2.4-.5 3.5-1.4 1.2-1 .8-2.8a3 3 0 0 0-.7-1.4q-.3-.5-1-.7t-1.6-.2zm12.2-6.5 4.7-1 4.4 21-4.8 1zm28 16.2A109 109 0 0 0 164 99.7l2.8 13.8-4.7 1-4.3-21.1 3.9-.8a38 38 0 0 1 5.8 4.6 81 81 0 0 1 6.3 5.9L171 90.6l4.7-1 4.4 21.2zm15.6-21.4q-3.2.7-4.4 2.9a8 8 0 0 0-.4 5.3q.3 1.6 1 2.7.5 1.2 1.5 2 1 .7 2 1 1.4.3 2.7 0l2.4-.7-1.6-7.3 4.8-1 2.1 10.5-2.6 1.2q-1.8.8-4.5 1.4-2.4.5-4.5.1a9 9 0 0 1-6.6-4.4 14 14 0 0 1-1.6-4.5q-.6-2.7-.2-4.9a10 10 0 0 1 8.4-8.3 16 16 0 0 1 7.4.2l-.6 4a12 12 0 0 0-5.3-.2M227 97l.8 4-14 3-4.4-21.1 4.7-1 3.5 17zm-.5-17.7 4.8-1 4.3 21.2-4.7 1zm20.3 17.9A162 162 0 0 1 234 77.7l5.3-1 2 3.6 2.4 4L248 91l1.2-8 1.1-8.6 5-1-1.5 10.6-2.5 12.1zm15.7-3.3-4.4-21 14.3-3 .8 4-9.5 2 .8 4.1 8.5-1.7.8 3.9-8.5 1.7 1 5 10.3-2 .8 4zM75.8 165.2q1-.2 1.6-.5t1-.7l.4-.8v-.9q-.2-1-1.4-1.5t-3.6-.8l-2.3-.4-2-.8a6 6 0 0 1-1.8-1.5q-.7-.9-1-2.4-.3-1.4 0-2.7T68 150a7 7 0 0 1 2-2q1.5-.7 3.2-1a13 13 0 0 1 6.5 0l-.6 4.1-2.1-.4-2.7.2q-1.7.3-2.4 1t-.4 1.6q0 .6.5.9l.9.6 2.8.5q1.8.3 3.1.7 1.5.3 2.3 1a5 5 0 0 1 1.6 1.5q.7 1 1 2.5.6 3-1.2 5-1.6 2.1-5.9 3a16 16 0 0 1-7.4-.2l.6-4 2.5.4q1.5 0 3.5-.3M90.3 155q.3 1.6 1 2.7t1.5 2a5 5 0 0 0 4.5 1q1.3-.3 2.3-1t1.4-1.8.7-2.3l-.2-3q-.3-1.5-1-2.6a6 6 0 0 0-1.5-2q-1-.7-2-1-1.2-.3-2.5 0a5 5 0 0 0-3.7 2.7q-.6 1-.7 2.4t.2 2.9m16.1-3.3q.6 2.7.2 5a9 9 0 0 1-4.4 6.6 12 12 0 0 1-8.2 1.6 10 10 0 0 1-6.8-4.3q-1.2-2-1.8-4.6-.5-2.7-.1-5t1.6-3.9q1-1.6 2.9-2.8a12 12 0 0 1 11.9-.2 10 10 0 0 1 3 3 13 13 0 0 1 1.7 4.6m6.1 9.7-4.3-21 14.1-3 .9 4-9.4 2 .9 4.3 8.3-1.7.8 4-8.3 1.7 1.8 8.7zm29.5-28 .8 4-6.3 1.3 3.5 17-4.8 1-3.5-17-6.4 1.3-.8-4zm18.5-1.5 3 5.7 1.7 3.2 1.6 2.9a97 97 0 0 0 0-11.5v-3.9l4.8-1a212 212 0 0 1-1 22.2l-4.4.9a148 148 0 0 1-6.7-11.7l-.6 6.8q-.2 3.4-.8 6.5l-4.3 1a166 166 0 0 1-9.8-20l5.2-1a226 226 0 0 0 6 14 66 66 0 0 0 1-10.3l.2-3zm31.4 13.2-2.5-4.3-8.2 1.7-.6 5-5 1a380 380 0 0 1 3-18l1.1-4.9 4.6-1A162 162 0 0 1 197 144zm-9-15.1-.5 3.3-.9 5.2 6-1.2-2.8-4.5-1-1.7zm18.6-9.1q4.8-1 7.7.2 2.8 1.2 3.6 4.7a6 6 0 0 1-.3 3.8q-.7 1.6-2.5 2.8a28 28 0 0 1 3.5 3.4 32 32 0 0 1 3.5 4.1l-5.3 1.1-4.9-5.3-1.5-1.4-2.4.5 1.6 7.7-4.8 1-4.2-20.8a27 27 0 0 1 6-1.8m1.1 4-1.6.4 1.1 5.7 1.4-.2q2.7-.6 3.7-1.5t.7-2.5-1.7-2q-1.2-.3-3.6 0m17.4 14.4-4.3-21 14.2-3 .9 4-9.5 2 .8 4 8.5-1.7.8 4-8.5 1.7 1 5 10.3-2 .8 4z"/>
  </g>
</svg>
