<svg width="200" height="200" viewBox="0 0 200 200" fill="none" xmlns="http://www.w3.org/2000/svg">
<g id="iconGo">
<path id="Ellipse 205" d="M51.5053 148.251C25.0526 121.798 25.2231 78.6842 51.9534 51.9539C78.6837 25.2238 121.797 25.0538 148.25 51.5064C174.702 77.959 174.532 121.072 147.802 147.803C121.072 174.533 77.9579 174.704 51.5053 148.251Z" fill="#090C15" stroke="url(#paint0_radial_1455_5850)" style="fill:#090C15;fill:color(display-p3 0.0353 0.0471 0.0824);fill-opacity:1;" stroke-width="5.06729"/>
<path id="Ellipse 206" d="M56.3908 144.039C32.3966 120.045 32.3966 81.1426 56.3908 57.1485C80.3849 33.1543 119.287 33.1543 143.281 57.1485C167.275 81.1426 167.275 120.045 143.281 144.039C119.287 168.033 80.3849 168.033 56.3908 144.039ZM142.279 58.1552C119.881 35.7577 81.6793 37.6421 59.2819 60.0396C36.8844 82.437 35.0044 120.63 57.4018 143.028C79.7993 165.425 117.993 163.545 140.39 141.148C162.788 118.75 164.676 80.5527 142.279 58.1552Z" fill="url(#paint1_linear_1455_5850)" fill-opacity="0.47"/>
<g id="Group">
<g id="CXHf1q_3_">
<g id="Group_2">
<g id="Group_3">
<path id="Vector" d="M99.9062 89.4381C95.5156 90.5531 92.5189 91.3895 88.1979 92.5045C87.1526 92.7833 87.0829 92.853 86.1769 91.8076C85.1315 90.6228 84.3649 89.8562 82.9013 89.1593C78.5107 86.9988 74.2595 87.6261 70.287 90.2047C65.548 93.2711 63.1087 97.8011 63.1784 103.446C63.2481 109.022 67.0812 113.621 72.5869 114.388C77.326 115.015 81.2984 113.343 84.4346 109.788C85.0618 109.022 85.6193 108.185 86.3163 107.21C83.8073 107.21 80.6712 107.21 72.8656 107.21C71.4021 107.21 71.0536 106.304 71.5415 105.119C72.4475 102.958 74.1201 99.3344 75.0958 97.5224C75.3049 97.1042 75.7927 96.4073 76.8381 96.4073C80.3924 96.4073 93.4946 96.4073 102.206 96.4073C102.067 98.289 102.067 100.171 101.788 102.052C101.021 107.07 99.1396 111.67 96.0732 115.712C91.0553 122.333 84.5043 126.445 76.2109 127.56C69.381 128.466 63.039 127.142 57.4637 122.96C52.3064 119.057 49.3794 113.9 48.6127 107.488C47.7067 99.8919 49.9369 93.0621 54.5366 87.0685C59.4847 80.5872 66.0358 76.4753 74.0504 75.0118C80.6015 73.827 86.8738 74.5936 92.5189 78.4267C96.2126 80.8659 98.8609 84.2111 100.603 88.2533C101.021 88.8805 100.743 89.229 99.9062 89.4381Z" fill="#00ACD7" style="fill:#00ACD7;fill:color(display-p3 0.0000 0.6745 0.8431);fill-opacity:1;"/>
</g>
<g id="Group_4">
<path id="Vector_2" d="M122.969 127.989C116.627 127.849 110.842 126.037 105.964 121.856C101.852 118.302 99.2732 113.772 98.4369 108.405C97.1825 100.53 99.3429 93.5608 104.082 87.3582C109.17 80.6678 115.302 77.1831 123.596 75.7196C130.704 74.4651 137.395 75.1621 143.458 79.2739C148.964 83.0373 152.379 88.1248 153.285 94.8153C154.47 104.224 151.752 111.89 145.27 118.441C140.67 123.11 135.025 126.037 128.544 127.362C126.662 127.71 124.781 127.78 122.969 127.989ZM139.555 99.8331C139.486 98.9271 139.486 98.2302 139.346 97.5333C138.092 90.6338 131.75 86.731 125.129 88.2642C118.648 89.7277 114.466 93.8396 112.933 100.391C111.678 105.827 114.327 111.332 119.345 113.563C123.178 115.235 127.011 115.026 130.704 113.144C136.21 110.287 139.207 105.827 139.555 99.8331Z" fill="#00ACD7" style="fill:#00ACD7;fill:color(display-p3 0.0000 0.6745 0.8431);fill-opacity:1;"/>
</g>
</g>
</g>
</g>
</g>
<defs>
<radialGradient id="paint0_radial_1455_5850" cx="0" cy="0" r="1" gradientUnits="userSpaceOnUse" gradientTransform="translate(84.6563 310.547) rotate(-79.7256) scale(299.509 296.835)">
<stop stop-color="#070913" style="stop-color:#070913;stop-color:color(display-p3 0.0273 0.0364 0.0727);stop-opacity:1;"/>
<stop offset="0.5" stop-color="#151721" style="stop-color:#151721;stop-color:color(display-p3 0.0819 0.0916 0.1303);stop-opacity:1;"/>
<stop offset="0.75" stop-color="#32343D" style="stop-color:#32343D;stop-color:color(display-p3 0.1968 0.2042 0.2410);stop-opacity:1;"/>
<stop offset="1" stop-color="#AFD84B" style="stop-color:#AFD84B;stop-color:color(display-p3 0.6863 0.8471 0.2941);stop-opacity:1;"/>
</radialGradient>
<linearGradient id="paint1_linear_1455_5850" x1="87.1287" y1="-7.96189" x2="237.952" y2="142.862" gradientUnits="userSpaceOnUse">
<stop stop-color="#303030" style="stop-color:#303030;stop-color:color(display-p3 0.1900 0.1900 0.1900);stop-opacity:1;"/>
<stop offset="0.25" stop-color="#303030" stop-opacity="0" style="stop-color:none;stop-opacity:0;"/>
<stop offset="0.5" stop-color="#303030" stop-opacity="0" style="stop-color:none;stop-opacity:0;"/>
<stop offset="0.75" stop-color="#303030" style="stop-color:#303030;stop-color:color(display-p3 0.1882 0.1882 0.1882);stop-opacity:1;"/>
<stop offset="1" stop-color="#303030" style="stop-color:#303030;stop-color:color(display-p3 0.1882 0.1882 0.1882);stop-opacity:1;"/>
</linearGradient>
</defs>
</svg>
