<svg width="174" height="174" viewBox="0 0 174 174" fill="none" xmlns="http://www.w3.org/2000/svg">
<g id="iconTailwind">
<path id="Ellipse 205" d="M86.8945 17.8535C124.304 17.8535 154.67 48.4603 154.67 86.2627C154.67 124.065 124.304 154.671 86.8945 154.671C49.4849 154.671 19.1193 124.065 19.1191 86.2627C19.1191 48.4603 49.4848 17.8535 86.8945 17.8535Z" fill="#07080E" stroke="url(#paint0_radial_1455_5674)" style="fill:#07080E;fill:color(display-p3 0.0268 0.0321 0.0532);fill-opacity:1;" stroke-width="5.06729"/>
<path id="Ellipse 206" d="M43.4455 130.336C19.4513 106.342 19.4513 67.4395 43.4455 43.4454C67.4396 19.4512 106.342 19.4512 130.336 43.4454C154.33 67.4395 154.33 106.342 130.336 130.336C106.342 154.33 67.4396 154.33 43.4455 130.336ZM129.334 44.4521C106.936 22.0546 68.734 23.939 46.3365 46.3364C23.9391 68.7339 22.0591 106.927 44.4565 129.325C66.854 151.722 105.047 149.842 127.445 127.445C149.842 105.047 151.731 66.8495 129.334 44.4521Z" fill="url(#paint1_linear_1455_5674)" fill-opacity="0.47"/>
<path id="Vector" d="M88.0419 58.2734C75.7117 58.2734 68.0082 64.436 64.9233 76.7661C69.5456 70.6029 74.9416 68.2917 81.1049 69.8327C84.6239 70.7098 87.1388 73.2615 89.9239 76.0892C94.4566 80.6891 99.703 86.0143 111.16 86.0143C123.49 86.0143 131.194 79.851 134.279 67.518C129.656 73.6849 124.261 75.996 118.097 74.455C114.578 73.5772 112.066 71.0262 109.278 68.1985C104.748 63.5987 99.5029 58.2734 88.0419 58.2734ZM64.9233 86.0143C52.5938 86.0143 44.8896 92.1776 41.8047 104.511C46.427 98.3437 51.8223 96.0326 57.9863 97.5736C61.5053 98.4514 64.0202 101.002 66.8053 103.83C71.338 108.43 76.5844 113.755 88.0419 113.755C100.371 113.755 108.076 107.593 111.16 95.2625C106.537 101.426 101.142 103.737 94.9782 102.196C91.4598 101.319 88.9478 98.7671 86.1592 95.9394C81.6294 91.3395 76.3843 86.0143 64.9233 86.0143Z" fill="#38BDF8" style="fill:#38BDF8;fill:color(display-p3 0.2196 0.7412 0.9725);fill-opacity:1;"/>
</g>
<defs>
<radialGradient id="paint0_radial_1455_5674" cx="0" cy="0" r="1" gradientUnits="userSpaceOnUse" gradientTransform="translate(226.76 -6.33445) rotate(157.299) scale(239.625 237.485)">
<stop stop-color="#070913" style="stop-color:#070913;stop-color:color(display-p3 0.0273 0.0364 0.0727);stop-opacity:1;"/>
<stop offset="0.5" stop-color="#151721" style="stop-color:#151721;stop-color:color(display-p3 0.0819 0.0916 0.1303);stop-opacity:1;"/>
<stop offset="0.75" stop-color="#32343D" style="stop-color:#32343D;stop-color:color(display-p3 0.1968 0.2042 0.2410);stop-opacity:1;"/>
<stop offset="1" stop-color="#AFD84B" style="stop-color:#AFD84B;stop-color:color(display-p3 0.6863 0.8471 0.2941);stop-opacity:1;"/>
</radialGradient>
<linearGradient id="paint1_linear_1455_5674" x1="74.1834" y1="-21.665" x2="225.007" y2="129.159" gradientUnits="userSpaceOnUse">
<stop stop-color="#303030" style="stop-color:#303030;stop-color:color(display-p3 0.1900 0.1900 0.1900);stop-opacity:1;"/>
<stop offset="0.25" stop-color="#303030" stop-opacity="0" style="stop-color:none;stop-opacity:0;"/>
<stop offset="0.5" stop-color="#303030" stop-opacity="0" style="stop-color:none;stop-opacity:0;"/>
<stop offset="0.75" stop-color="#303030" style="stop-color:#303030;stop-color:color(display-p3 0.1882 0.1882 0.1882);stop-opacity:1;"/>
<stop offset="1" stop-color="#303030" style="stop-color:#303030;stop-color:color(display-p3 0.1882 0.1882 0.1882);stop-opacity:1;"/>
</linearGradient>
</defs>
</svg>
