<svg width="174" height="174" viewBox="0 0 174 174" fill="none" xmlns="http://www.w3.org/2000/svg">
<g id="iconDB">
<path id="Ellipse 205" d="M86.8945 17.8535C124.304 17.8535 154.67 48.4603 154.67 86.2627C154.67 124.065 124.304 154.671 86.8945 154.671C49.4849 154.671 19.1193 124.065 19.1191 86.2627C19.1191 48.4603 49.4848 17.8535 86.8945 17.8535Z" fill="#090C15" stroke="url(#paint0_radial_1455_5721)" style="fill:#090C15;fill:color(display-p3 0.0353 0.0471 0.0824);fill-opacity:1;" stroke-width="5.06729"/>
<path id="Ellipse 206" d="M43.4455 130.336C19.4513 106.342 19.4513 67.4395 43.4455 43.4454C67.4396 19.4512 106.342 19.4512 130.336 43.4454C154.33 67.4395 154.33 106.342 130.336 130.336C106.342 154.33 67.4396 154.33 43.4455 130.336ZM129.334 44.4521C106.936 22.0546 68.734 23.939 46.3365 46.3364C23.9391 68.7339 22.0591 106.927 44.4565 129.325C66.854 151.722 105.047 149.842 127.445 127.445C149.842 105.047 151.731 66.8495 129.334 44.4521Z" fill="url(#paint1_linear_1455_5721)" fill-opacity="0.47"/>
<g id="Group 668">
<g id="Vector">
<path d="M121.612 63.75C121.612 73.0734 106.296 80.6329 87.4073 80.6329C68.5183 80.6329 53.2031 73.0734 53.2031 63.75M121.612 63.75C121.612 54.4266 106.296 46.8672 87.4073 46.8672C68.5183 46.8672 53.2031 54.4266 53.2031 63.75M121.612 63.75V109.794C121.612 119.118 106.296 126.677 87.4073 126.677C68.5183 126.677 53.2031 119.118 53.2031 109.794V63.75M121.612 63.75V79.0981ZM53.2031 63.75V79.0981ZM121.612 79.0981V94.4461C121.612 103.77 106.296 111.329 87.4073 111.329C68.5183 111.329 53.2031 103.77 53.2031 94.4461V79.0981M121.612 79.0981C121.612 88.4215 106.296 95.9809 87.4073 95.9809C68.5183 95.9809 53.2031 88.4215 53.2031 79.0981" fill="#3F4350" style="fill:#3F4350;fill:color(display-p3 0.2471 0.2627 0.3137);fill-opacity:1;"/>
<path d="M121.612 63.75C121.612 73.0734 106.296 80.6329 87.4073 80.6329C68.5183 80.6329 53.2031 73.0734 53.2031 63.75M121.612 63.75C121.612 54.4266 106.296 46.8672 87.4073 46.8672C68.5183 46.8672 53.2031 54.4266 53.2031 63.75M121.612 63.75V109.794C121.612 119.118 106.296 126.677 87.4073 126.677C68.5183 126.677 53.2031 119.118 53.2031 109.794V63.75M121.612 63.75V79.0981M53.2031 63.75V79.0981M121.612 79.0981V94.4461C121.612 103.77 106.296 111.329 87.4073 111.329C68.5183 111.329 53.2031 103.77 53.2031 94.4461V79.0981M121.612 79.0981C121.612 88.4215 106.296 95.9809 87.4073 95.9809C68.5183 95.9809 53.2031 88.4215 53.2031 79.0981" stroke="#070913" style="stroke:#070913;stroke:color(display-p3 0.0275 0.0353 0.0745);stroke-opacity:1;" stroke-width="3.10947" stroke-linecap="round" stroke-linejoin="round"/>
</g>
<path id="Line 100" d="M83.6129 50.0469C82.6587 49.963 81.7398 49.9083 80.7893 49.8856C72.5289 49.8305 62.8299 51.44 57.4341 59.4101C54.5931 63.6072 57.0516 69.5875 60.7031 71.9274C64.3317 74.6191 68.4415 75.8936 72.6108 76.788C73.4996 76.9688 74.4263 77.1342 75.3915 77.2836C74.4664 76.9702 73.5849 76.6506 72.746 76.326C68.8081 74.7987 65.0083 73.0265 61.9869 70.3671C58.9319 67.8014 57.5877 63.8727 59.6296 60.6747C63.8319 54.2528 72.7215 51.5726 80.8164 50.3663C81.7492 50.2377 82.6588 50.1319 83.6129 50.0469Z" fill="#6E717C" style="fill:#6E717C;fill:color(display-p3 0.4314 0.4431 0.4863);fill-opacity:1;"/>
</g>
</g>
<defs>
<radialGradient id="paint0_radial_1455_5721" cx="0" cy="0" r="1" gradientUnits="userSpaceOnUse" gradientTransform="translate(48.7711 198.891) rotate(-65.2772) scale(155.076 136.427)">
<stop stop-color="#0E111A" style="stop-color:#0E111A;stop-color:color(display-p3 0.0549 0.0667 0.1020);stop-opacity:1;"/>
<stop offset="0.5" stop-color="#1B1F2C" style="stop-color:#1B1F2C;stop-color:color(display-p3 0.1064 0.1219 0.1736);stop-opacity:1;"/>
<stop offset="0.75" stop-color="#3F4350" style="stop-color:#3F4350;stop-color:color(display-p3 0.2471 0.2627 0.3137);stop-opacity:1;"/>
<stop offset="1" stop-color="#6E7C73" style="stop-color:#6E7C73;stop-color:color(display-p3 0.4330 0.4870 0.4492);stop-opacity:1;"/>
</radialGradient>
<linearGradient id="paint1_linear_1455_5721" x1="74.1834" y1="-21.665" x2="225.007" y2="129.159" gradientUnits="userSpaceOnUse">
<stop stop-color="#303030" style="stop-color:#303030;stop-color:color(display-p3 0.1900 0.1900 0.1900);stop-opacity:1;"/>
<stop offset="0.25" stop-color="#303030" stop-opacity="0" style="stop-color:none;stop-opacity:0;"/>
<stop offset="0.5" stop-color="#303030" stop-opacity="0" style="stop-color:none;stop-opacity:0;"/>
<stop offset="0.75" stop-color="#303030" style="stop-color:#303030;stop-color:color(display-p3 0.1882 0.1882 0.1882);stop-opacity:1;"/>
<stop offset="1" stop-color="#303030" style="stop-color:#303030;stop-color:color(display-p3 0.1882 0.1882 0.1882);stop-opacity:1;"/>
</linearGradient>
</defs>
</svg>
