<svg width="79" height="100" viewBox="0 0 79 100" fill="none" xmlns="http://www.w3.org/2000/svg">
<g clip-path="url(#clip0_280_5149)">
<mask id="mask0_280_5149" style="mask-type:luminance" maskUnits="userSpaceOnUse" x="0" y="0" width="79" height="100">
<path d="M78.125 0H0V100H78.125V0Z" fill="white"/>
</mask>
<g mask="url(#mask0_280_5149)">
<path d="M6.31769 13.14C9.346 13.14 11.0516 11.61 12.0784 9.738L8.71944 7.776C8.21472 8.712 7.57078 9.36 6.42209 9.36C5.082 9.36 4.14216 8.208 4.14216 6.57V6.534C4.14216 5.022 5.04719 3.78 6.42209 3.78C7.53597 3.78 8.17991 4.41 8.63244 5.31L11.9914 3.276C10.9646 1.35 9.15456 0 6.47431 0C2.83687 0 0 2.808 0 6.57V6.606C0 10.512 2.94129 13.14 6.31769 13.14ZM11.7641 12.87H16.1151L16.7417 11.178H21.0057L21.6496 12.87H26.0702L20.936 0.180001H16.8983L11.7641 12.87ZM17.7685 8.19L18.8823 5.13L19.9962 8.19H17.7685ZM26.5715 12.87H30.6093V7.056L35.1344 12.87H38.7544V0.270001H34.7166V5.832L30.383 0.270001H26.5715V12.87ZM44.2069 12.96H48.1053L53.0481 0.270001H48.5578L46.1909 7.344L43.8237 0.270001H39.2641L44.2069 12.96ZM50.9231 12.87H55.2741L55.9006 11.178H60.1647L60.8087 12.87H65.2294L60.095 0.180001H56.0575L50.9231 12.87ZM56.9275 8.19L58.0416 5.13L59.1553 8.19H56.9275ZM70.7994 13.104C74.0712 13.104 76.1772 11.484 76.1772 8.838V8.802C76.1772 6.264 74.0888 5.328 70.9734 4.734C69.6856 4.482 69.355 4.266 69.355 3.924V3.888C69.355 3.582 69.6334 3.366 70.2425 3.366C71.3738 3.366 72.7487 3.744 73.8975 4.608L75.8816 1.764C74.4716 0.612 72.7312 0.0359997 70.3819 0.0359997C67.0228 0.0359997 65.2128 1.89 65.2128 4.284V4.32C65.2128 6.984 67.6144 7.794 70.3469 8.37C71.6522 8.64 72.035 8.838 72.035 9.198V9.234C72.035 9.576 71.7219 9.774 70.9909 9.774C69.5638 9.774 68.0497 9.342 66.7269 8.298L64.5513 10.98C66.1003 12.384 68.3281 13.104 70.7994 13.104Z" fill="#ECEFF4"/>
<path d="M11.0405 91.9959L4.80859 19.6523H73.3221L67.0903 91.9571L39.0087 100.004" fill="#434C5E"/>
<path d="M39.0625 93.8475V25.5859H67.0684L61.7241 87.3047" fill="#4C566A"/>
<path d="M21.4672 79.3984L17.4062 34.3984H39.0647V43.1984H26.6884L29.3957 72.7984L39.0647 75.3984V84.7984L21.4672 79.3984Z" fill="#ECEFF4"/>
<path d="M60.5275 34.3984H39.0625V43.1984H51.0519L50.2784 52.3984H58.7872L60.5275 34.3984Z" fill="white"/>
<path d="M39.0625 84.8063L55.6931 80.0062L57.24 66.4062H49.3116L48.7316 72.4063L39.0625 75.4062V84.8063Z" fill="white"/>
</g>
</g>
<defs>
<clipPath id="clip0_280_5149">
<rect width="78.125" height="100" fill="white"/>
</clipPath>
</defs>
</svg>
