<svg width="100" height="69" viewBox="0 0 100 69" fill="none" xmlns="http://www.w3.org/2000/svg">
<g clip-path="url(#clip0_280_5160)">
<path d="M98.2364 14.0957L0.855469 16.0481L1.66499 58.9052C1.71261 63.5243 5.47452 67.1433 10.0936 67.0481L90.9031 65.429C95.4745 65.3338 99.0936 61.5243 98.9983 56.9528L98.2364 14.0957Z" fill="#06080F"/>
<path d="M98.3329 18.6197L0.856756 20.5721L0.66628 11.0006C0.64101 9.90853 0.831943 8.82221 1.22809 7.80419C1.62424 6.78616 2.21779 5.85651 2.97458 5.06874C3.73137 4.28097 4.63647 3.65062 5.63779 3.21397C6.63912 2.77732 7.7169 2.54298 8.80914 2.52444L89.6663 0.953009C94.2377 0.857771 98.0472 4.47682 98.1425 9.04825L98.3329 18.6197Z" fill="#1B1F2C"/>
<path d="M99.0472 56.9052C99.1901 61.5243 95.5234 65.2862 90.952 65.3814L10.0948 67.0481C5.52341 67.1433 1.71388 63.4766 1.61865 58.9052L0.666264 10.81C0.640992 9.71392 0.833489 8.62375 1.2326 7.60264C1.63171 6.58152 2.2295 5.64977 2.99133 4.86137C3.75316 4.07296 4.66387 3.44359 5.67071 3.00971C6.67754 2.57584 7.76047 2.34609 8.85674 2.33378L89.7139 0.714728C94.3329 0.61949 98.0948 4.23854 98.1901 8.80997L99.0472 56.9052Z" stroke="#2A2E3C" stroke-width="2.9"/>
<path d="M90.9506 64.4756L10.0458 66.1899C5.95056 66.2375 2.56961 62.9994 2.47437 58.9042L1.52199 10.8089C1.49656 9.82374 1.66868 8.84343 2.0282 7.92583C2.38773 7.00823 2.92737 6.17192 3.61531 5.46623C4.30324 4.76054 5.12553 4.19977 6.03367 3.81699C6.94182 3.43421 7.91742 3.23717 8.90294 3.2375L89.7601 1.57083C93.8077 1.52321 97.1887 4.76131 97.2839 8.85655L98.2363 56.9518C98.2839 60.9994 95.0458 64.3804 90.9506 64.4756Z" stroke="#8CBC15" stroke-width="3.8"/>
<path d="M17.9062 29.2852L33.811 40.7137L18.3824 52.8566M41.9063 52.3804L57.6205 52.0471" stroke="#AFD84B" stroke-width="8.7" stroke-linecap="round" stroke-linejoin="round"/>
<path d="M10.1035 13.8573C11.6286 13.8254 12.8389 12.5632 12.807 11.0382C12.7751 9.51317 11.5129 8.30279 9.98786 8.33474C8.46284 8.36668 7.25246 9.62885 7.2844 11.1539C7.31635 12.6789 8.57852 13.8893 10.1035 13.8573Z" fill="#CE3A32"/>
<path d="M17.7246 13.7128C19.2497 13.6809 20.46 12.4187 20.4281 10.8937C20.3962 9.36864 19.134 8.15826 17.609 8.19021C16.0839 8.22215 14.8736 9.48432 14.9055 11.0093C14.9374 12.5344 16.1996 13.7447 17.7246 13.7128Z" fill="#3DB54E"/>
</g>
<defs>
<clipPath id="clip0_280_5160">
<rect width="100" height="68.0952" fill="white"/>
</clipPath>
</defs>
</svg>
