<svg width="100" height="100" viewBox="0 0 100 100" fill="none" xmlns="http://www.w3.org/2000/svg">
<path d="M90.3758 54.1313L78.1953 47.1469L76.0945 46.2383L26.2656 46.5789V71.8766H90.3758V54.1313Z" fill="white"/>
<path d="M68.1992 69.5488C68.7953 67.5043 68.568 65.6309 67.5742 64.2395C66.6656 62.9621 65.1328 62.2238 63.2867 62.1387L28.3359 61.6848C28.1086 61.6848 27.9102 61.5715 27.7961 61.4012C27.682 61.2309 27.6539 61.0035 27.7109 60.7762C27.8242 60.4355 28.1648 60.1801 28.5344 60.1512L63.7977 59.6973C67.9711 59.4988 72.5141 56.1199 74.1039 51.9746L76.1195 46.7223C76.2047 46.4949 76.2328 46.2684 76.1766 46.041C73.9062 35.7613 64.7359 28.0957 53.7766 28.0957C43.6687 28.0957 35.0945 34.6262 32.0281 43.6832C29.9492 42.135 27.3682 41.4164 24.7883 41.6676C19.9328 42.1504 16.0437 46.0402 15.5609 50.8949C15.4477 52.1441 15.5328 53.3652 15.8164 54.5004C7.89375 54.7277 1.5625 61.2012 1.5625 69.1793C1.5625 69.8895 1.61953 70.5988 1.70469 71.309C1.72912 71.473 1.81105 71.623 1.93583 71.7321C2.06062 71.8413 2.22014 71.9026 2.38594 71.9051H66.8938C67.2625 71.9051 67.6039 71.6496 67.7172 71.2801L68.1992 69.5488Z" fill="#F38020"/>
<path d="M79.3298 47.0898C79.0173 47.0898 78.6767 47.0898 78.3642 47.118C78.1369 47.118 77.9384 47.2883 77.8533 47.5156L76.4908 52.257C75.8947 54.3016 76.122 56.175 77.1158 57.5664C78.0244 58.8437 79.5572 59.582 81.4033 59.6672L88.8423 60.1211C89.0697 60.1211 89.2681 60.2344 89.3822 60.4047C89.4955 60.575 89.5244 60.8305 89.4673 61.0297C89.354 61.3703 89.0134 61.6258 88.6439 61.6547L80.8908 62.1094C76.6884 62.3078 72.1744 65.6867 70.5845 69.832L70.0166 71.2797C69.9033 71.5633 70.1017 71.8477 70.4142 71.8477H97.0462C97.3587 71.8477 97.6423 71.6492 97.7275 71.3367C98.1814 69.6898 98.4376 67.9578 98.4376 66.1695C98.4376 55.6641 89.8634 47.0898 79.3298 47.0898Z" fill="#FAAE40"/>
</svg>
