<svg width="85" height="100" viewBox="0 0 85 100" fill="none" xmlns="http://www.w3.org/2000/svg">
<g clip-path="url(#clip0_280_5185)">
<path d="M57.7722 11.4492H80.3728L83.5878 14.6642V85.3925L80.3728 88.6072H49.5741L51.1331 86.1962H79.3763L81.1766 84.3956V15.6608L79.3763 13.8604H59.8941L57.5953 25.7395H55.1359L57.3381 13.7479L57.7881 11.4492H57.7722ZM3.21491 88.6072L0 85.3925V14.6642L3.21491 11.4492H35.2034L33.5797 13.8604H4.21153L2.41119 15.6608V84.3956L4.21153 86.1962H27.4875L27.1017 88.6072H3.21491ZM8.03728 80.57H21.7007L21.2185 82.9812H6.42984L5.62609 82.1775V67.7103L8.03728 72.5328V80.57ZM62.6909 80.57L65.1022 82.9812H53.0463L54.6538 80.57H62.6909Z" fill="#B7BBBD"/>
<path d="M36.4332 59.6687H14.4592L11.7908 54.6538L48.7622 0L54.5813 2.41119L47.2835 40.3794H69.1128L71.8132 45.3466L36.4491 100L30.5659 97.7497L36.4332 59.6687ZM8.83306 22.6973C8.19356 22.6973 7.58028 22.4433 7.12809 21.9911C6.67591 21.5389 6.42188 20.9256 6.42188 20.2861C6.42188 19.6467 6.67591 19.0333 7.12809 18.5812C7.58028 18.129 8.19356 17.8749 8.83306 17.8749C9.47253 17.8749 10.0858 18.129 10.538 18.5812C10.9902 19.0333 11.2443 19.6467 11.2443 20.2861C11.2443 20.9256 10.9902 21.5389 10.538 21.9911C10.0858 22.4433 9.47253 22.6973 8.83306 22.6973ZM15.2629 22.6973C14.6234 22.6973 14.0101 22.4433 13.5579 21.9911C13.1058 21.5389 12.8517 20.9256 12.8517 20.2861C12.8517 19.6467 13.1058 19.0333 13.5579 18.5812C14.0101 18.129 14.6234 17.8749 15.2629 17.8749C15.9024 17.8749 16.5157 18.129 16.9678 18.5812C17.42 19.0333 17.6741 19.6467 17.6741 20.2861C17.6741 20.9256 17.42 21.5389 16.9678 21.9911C16.5157 22.4433 15.9024 22.6973 15.2629 22.6973ZM21.6927 22.6973C21.0532 22.6973 20.4399 22.4433 19.9877 21.9911C19.5356 21.5389 19.2815 20.9256 19.2815 20.2861C19.2815 19.6467 19.5356 19.0333 19.9877 18.5812C20.4399 18.129 21.0532 17.8749 21.6927 17.8749C22.3322 17.8749 22.9455 18.129 23.3977 18.5812C23.8499 19.0333 24.1039 19.6467 24.1039 20.2861C24.1039 20.9256 23.8499 21.5389 23.3977 21.9911C22.9455 22.4433 22.3322 22.6973 21.6927 22.6973Z" fill="url(#paint0_linear_280_5185)"/>
</g>
<defs>
<linearGradient id="paint0_linear_280_5185" x1="7734.38" y1="-239" x2="-1978.57" y2="5913.09" gradientUnits="userSpaceOnUse">
<stop stop-color="#FBB743"/>
<stop offset="1" stop-color="#EA6B00"/>
</linearGradient>
<clipPath id="clip0_280_5185">
<rect width="84.375" height="100" fill="white"/>
</clipPath>
</defs>
</svg>
