<svg width="74" height="100" viewBox="0 0 74 100" fill="none" xmlns="http://www.w3.org/2000/svg">
<g clip-path="url(#clip0_280_5188)">
<path d="M33.0045 0.000634845C36.6259 -0.122822 41.9757 0.700223 45.556 1.52327C46.9963 1.85249 48.6013 2.46977 50.0827 2.75784C50.9058 2.9636 52.1403 3.0459 53.0045 3.16936C57.2895 3.81055 61.3248 5.58666 64.6918 8.31339C65.9264 9.3422 66.9552 10.371 67.7371 11.8113C68.0663 12.3875 68.5601 13.5809 68.8893 14.0336C70.4531 16.2969 72.7988 18.8484 73.0457 21.6879C73.2515 23.7455 72.5107 26.5027 71.3996 28.3134C70.9881 29.0541 70.2885 29.7949 69.877 30.4945C69.1114 31.9022 68.2012 33.2262 67.1609 34.4451C67.984 28.1076 66.2144 28.8895 61.3173 31.0294C62.9634 32.7167 63.4161 34.0747 65.7206 35.9677L66.9552 35.762C65.6383 40.2064 64.4037 40.9883 59.9593 41.3175C56.914 41.5644 56.2556 42.0994 53.2103 40.4945C50.2473 39.013 47.449 37.1611 44.5683 35.7208C40.4531 36.2558 39.2185 38.5603 38.1074 42.0994C30.9469 42.3052 25.6383 41.2764 20.9058 35.4327C20.9881 39.301 20.4531 39.6303 23.7864 42.4286C28.0251 45.9266 32.7576 46.1735 37.984 45.6797C37.984 46.5027 37.984 47.1611 38.0663 48.0253L35.5971 48.1899C33.0574 48.4258 30.4964 48.1346 28.0746 47.3344C25.6527 46.5342 23.4223 45.2423 21.5231 43.5397C22.2638 45.7208 22.5107 48.7249 24.4037 49.9595C29.0128 52.8127 33.9236 53.6632 39.1362 52.5109C39.3831 53.4163 39.5889 53.9101 40.0004 54.7331H39.9181C34.8061 56.006 29.4005 55.2695 24.8152 52.6755C25.3914 53.7043 27.2432 57.5315 27.8605 58.0253C31.1527 60.7414 38.5601 61.729 42.3461 59.6714C42.7028 60.4396 43.1143 61.1529 43.5807 61.8113C41.6284 62.5416 39.5727 62.9583 37.4901 63.0459C34.6095 63.0871 32.5519 62.7578 29.9181 61.6056L33.5395 67.0788C35.6143 68 37.8537 68.4931 40.1235 68.5284C42.3933 68.5638 44.6469 68.1407 46.7494 67.2846C47.0375 67.943 47.5724 68.7661 47.9428 69.3422C43.8276 70.9883 39.7124 71.3998 35.3914 70.0829C37.8605 73.2928 37.0375 75.4739 41.6465 76.3381C45.1445 76.9554 47.2844 76.8731 50.2885 75.0212L50.9881 77.4904L50.6177 77.6138C48.9275 78.452 47.0812 78.9288 45.1965 79.0138C43.3118 79.0988 41.43 78.7902 39.6712 78.1076C40.4943 79.836 40.8235 81.5644 41.4819 83.334C44.3214 85.4739 47.984 85.8031 51.0704 84.0336C50.8235 84.8155 50.6177 86.0912 50.4531 86.9142L50.2062 86.9554C48.8181 87.4 47.3538 87.5564 45.9031 87.4149C44.4524 87.2733 43.0459 86.8369 41.77 86.1323C42.058 91.6056 40.9469 94.8155 38.0663 99.3011C39.6301 85.4739 23.951 72.0171 15.6794 62.5932C8.88932 54.7743 2.46956 47.12 0.535408 36.6262C-0.325868 32.4223 -0.237071 28.0791 0.795311 23.914C1.82769 19.7489 3.77758 15.867 6.50249 12.5521C10.7313 8.00155 16.1476 4.72326 22.1403 3.08705C22.9634 2.84014 24.1157 2.05825 24.9387 1.72903C27.514 0.725222 30.2418 0.168525 33.0045 0.0829394" fill="black"/>
<path d="M33.2081 2.88115C36.418 2.63424 38.9694 3.21037 42.0558 3.74535C49.0504 4.83477 55.4886 8.20581 60.3686 13.3338C58.9438 10.5992 56.9847 8.17825 54.6073 6.21448C55.2932 6.40653 55.9927 6.63972 56.7061 6.91407C58.6131 7.46521 60.39 8.39399 61.9311 9.64527C63.4723 10.8965 64.7462 12.4448 65.6772 14.198C64.9914 14.3352 64.3055 14.6095 63.6196 15.0211L63.5373 14.9388C60.8213 13.6219 59.5456 14.0746 56.8295 15.0211C55.5482 14.602 54.3503 13.9612 53.2904 13.1281C52.0558 12.1404 50.6567 10.4532 49.2575 9.75358C48.1052 9.17745 45.9653 9.42436 44.6073 9.17745C43.0847 8.93053 42.5497 8.76592 41.1505 8.18979C41.8912 8.79336 42.6457 9.36949 43.4139 9.91819C42.2181 10.7213 41.242 11.8105 40.5744 13.0869C41.8678 12.3804 43.2006 11.7484 44.5661 11.1939C44.8954 13.4984 45.883 15.6384 47.6526 17.2021L47.3645 17.4491C45.2657 19.3421 44.6896 21.3585 44.525 24.0746C41.0042 22.488 37.1931 21.6473 33.3316 21.6054C29.0106 17.1198 30.1217 11.5231 35.8419 9.05399C37.1039 8.61503 38.3796 8.20351 39.669 7.81942C35.9653 7.81942 32.0147 8.72477 29.5456 11.7289C27.68 11.6466 25.8007 11.7426 23.9077 12.017C21.3538 12.3458 18.8965 13.2037 16.6928 14.5359C14.4891 15.868 12.5875 17.6451 11.1093 19.7536C12.0899 24.5977 14.8877 28.8827 18.9283 31.7289C18.7225 33.0458 18.5991 34.1157 18.5168 35.4326C15.9755 34.2403 13.6193 32.688 11.5209 30.8235C10.0643 29.4693 8.84076 27.8842 7.89947 26.1322L7.61141 27.6137C6.86443 32.131 7.28952 36.7644 8.84597 41.0705C9.05173 41.5643 9.58671 43.2104 9.87478 43.5396C12.1382 45.9264 17.4468 47.6548 20.4098 48.1898C20.6978 49.1363 21.562 51.2351 22.0558 52.1404C19.3967 52.0137 16.7667 51.5293 14.2369 50.7001C17.776 57.2021 22.8789 62.7577 27.4056 68.4779C29.669 71.3585 33.7019 76.3791 35.06 79.7536C34.1135 78.6013 33.1258 77.1198 32.1793 75.8853C30.5976 73.9905 28.9505 72.1513 27.241 70.3709C17.9406 60.1651 5.22457 48.9717 3.29042 34.5272C1.1505 18.1075 12.3028 7.11983 28.1052 5.14452C27.6114 4.84274 27.145 4.49981 26.7061 4.11572C29.2986 3.62189 30.2451 3.21037 33.2081 2.96345" fill="#F7C000"/>
<path d="M28.0672 13.2501C28.1495 13.4971 27.7791 15.1843 27.8203 15.8839C28.1084 19.4641 29.3841 21.6452 31.9355 23.9909C35.3923 23.9909 37.5322 24.8139 40.4952 26.3777C39.8916 27.2556 39.4664 28.2021 39.2195 29.2172C39.096 29.6287 39.096 30.4518 38.8079 30.7398C36.0096 29.958 32.594 29.7933 30.166 28.0238C28.4001 26.6538 27.0978 24.7743 26.4354 22.6398C25.7729 20.5052 25.7823 18.2187 26.4623 16.0896C26.8578 15.0497 27.4132 14.0778 28.1084 13.209M53.5405 16.9538C54.9808 16.7069 57.8203 19.6699 58.6845 20.6575C56.1402 22.1935 54.1512 24.4997 53.0055 27.2419L52.059 26.8715L46.38 24.8139C46.2977 21.5217 47.4911 18.5588 51.0302 17.9003C51.7709 17.7769 52.882 17.2831 53.5405 16.9538Z" fill="#F7C000"/>
<path d="M66.1325 22.222C67.2436 22.0162 69.3424 22.3866 70.4535 22.6746C70.2331 24.1281 69.8034 25.5419 69.1778 26.8722C65.8033 25.6376 62.9226 27.1602 59.7127 27.9421C58.6839 28.1891 57.2024 28.0244 56.1325 27.9421L54.6099 27.6952C54.9391 23.8681 55.5152 23.8269 58.8897 22.3043C60.5358 24.1973 61.4411 23.2508 62.8815 26.4607C62.8815 25.281 62.95 24.1013 63.0872 22.9216C64.0749 22.6198 65.0763 22.4003 66.0913 22.2631M42.0584 27.3249C42.4699 27.5306 43.4987 28.3537 44.0749 28.724C48.1901 31.4401 52.7168 35.9668 57.3671 37.6129C58.1078 37.8598 61.2765 37.7775 62.223 37.7775C61.6469 38.0244 60.6592 38.1891 60.042 38.3948C58.3959 38.6829 56.9555 39.1356 55.3094 38.3125C50.4123 35.9257 45.7621 32.4277 40.4946 30.8228C41.0296 29.1767 41.1119 28.7652 42.0584 27.3249ZM59.7539 15.7611C60.1654 15.6788 61.4 15.8434 61.8115 15.9257C63.828 16.4195 64.9802 18.8063 65.9267 20.5347C65.0625 20.6993 63.8691 20.9463 63.0461 21.2755H62.758C61.7292 20.6993 61.3177 20.6582 60.2889 20.2055C58.6839 19.5471 57.5728 17.7364 56.7498 16.2549C57.8197 16.0491 58.6839 15.8434 59.7539 15.7611ZM66.0502 15.4318C67.3259 15.8845 69.507 19.8351 70.1654 21.152L69.2189 20.8639L67.4494 20.4936C66.7498 19.3002 65.4741 17.0368 64.5687 16.008L66.0502 15.4318ZM47.1613 12.4277L49.1366 12.5923C49.6304 13.0039 51.4 14.7323 51.7292 15.2672C50.4946 15.3495 49.8773 15.5142 48.6428 15.1438C47.6551 14.2384 47.4905 13.6623 47.1613 12.4277ZM41.4823 83.2919C44.3218 85.4318 47.902 85.7611 50.9885 84.0327C51.688 80.2055 50.9885 77.4072 50.9885 77.4072C47.3671 79.0533 43.4576 79.4648 39.6716 78.0656C40.4946 79.794 40.8239 81.5224 41.4823 83.2919ZM41.6469 76.296C45.1037 76.9133 47.2848 76.831 50.2889 74.9792C49.7789 72.985 48.9891 71.073 47.9432 69.3002C43.828 70.9463 39.7127 71.3578 35.3918 70.0409C37.8197 73.2508 37.0378 75.4318 41.6469 76.296ZM33.5399 67.0779C35.6175 67.9926 37.8582 68.4786 40.1281 68.5069C42.3979 68.5352 44.6501 68.1051 46.7498 67.2425C45.8357 65.3477 44.7906 63.5188 43.6222 61.7693C41.6438 62.5082 39.5597 62.925 37.4494 63.0039C34.5687 63.045 32.5934 62.7158 29.9185 61.5635L33.5399 67.0779ZM27.8609 58.0244C31.1531 60.7405 38.5605 61.7281 42.3465 59.6705C41.4511 58.0869 40.6805 56.4358 40.042 54.7323C34.8889 55.9957 29.4485 55.2605 24.8156 52.6746C25.3918 53.7035 27.2436 57.4895 27.8609 58.0244ZM24.4452 49.9586C29.0543 52.8393 33.828 53.6211 39.1366 52.51C38.5812 51.0693 38.2213 49.5607 38.0666 48.0244L35.5975 48.189C33.0578 48.425 30.4968 48.1337 28.0749 47.3335C25.6531 46.5333 23.4226 45.2414 21.5234 43.5388C22.2642 45.7199 22.5111 48.724 24.4041 49.9586" fill="#F7C000"/>
<path d="M23.7869 42.3865C28.0256 45.8845 32.7581 46.1314 37.9844 45.6787C37.9305 44.4702 37.9718 43.2593 38.1079 42.0573C30.9474 42.2631 25.6388 41.2342 20.9062 35.3906C20.9886 39.2589 20.4536 39.5882 23.7869 42.3865ZM41.7704 86.0902C42.0585 91.5635 40.9474 94.8557 38.0256 99.3001C38.2314 99.5059 38.7663 99.8762 39.1367 99.7939C39.5071 99.7116 41.9762 99.1355 42.717 98.5182C46.9145 95.1026 50.4536 86.831 50.4536 86.831L50.2067 86.9133C48.8186 87.3579 47.3543 87.5143 45.9036 87.3728C44.4529 87.2312 43.0464 86.7948 41.7704 86.0902Z" fill="#F7C000"/>
</g>
<defs>
<clipPath id="clip0_280_5188">
<rect width="73.251" height="100" fill="white"/>
</clipPath>
</defs>
</svg>
