<svg width="100" height="100" viewBox="0 0 100 100" fill="none" xmlns="http://www.w3.org/2000/svg">
<path d="M14.6984 89.159L6.84375 1.05664H93.1563L85.2938 89.1457L49.9477 98.9449L14.6984 89.159Z" fill="#1572B6"/>
<path d="M50 91.4551L78.5617 83.5363L85.2813 8.25977H50V91.4551Z" fill="#33A9DC"/>
<path d="M50 40.1789H64.2984L65.2859 29.1141H50V18.3086H77.0953L76.8359 21.2078L74.1797 50.9844H50V40.1789Z" fill="white"/>
<path d="M50.0633 68.2418L50.0156 68.2559L37.982 65.0066L37.2125 56.3887H26.3672L27.8805 73.3551L50.0141 79.498L50.0633 79.484V68.2418Z" fill="#EBEBEB"/>
<path d="M63.3805 50.5273L62.0789 64.9977L50.0273 68.2508V79.493L72.1789 73.3539L72.3414 71.5281L74.2211 50.5273H63.3805Z" fill="white"/>
<path d="M50.0359 18.3086V29.1141H23.9359L23.7195 26.6859L23.2273 21.2078L22.9688 18.3086H50.0359ZM49.9992 40.1805V50.9859H38.1172L37.9008 48.5578L37.4078 43.0797L37.15 40.1805H49.9992Z" fill="#EBEBEB"/>
</svg>
