<svg width="100" height="100" viewBox="0 0 100 100" fill="none" xmlns="http://www.w3.org/2000/svg">
<path d="M57.6372 52.7578C56.0239 52.7797 57.9427 53.5883 60.0489 53.9133C60.5975 53.4858 61.1249 53.0319 61.6294 52.5531C60.3177 52.8734 58.9833 52.8805 57.6372 52.7578ZM66.2981 50.5992C67.2583 49.2734 67.9599 47.8211 68.206 46.3195C67.9903 47.3891 67.4099 48.3141 66.8622 49.2891C63.8466 51.1883 66.5786 48.1617 66.8606 47.0109C63.6185 51.093 66.4153 49.4586 66.2981 50.5992ZM69.4958 42.2805C69.6903 39.3742 68.9231 40.293 68.6653 41.4016C68.9653 41.5586 69.2044 43.45 69.4958 42.2805ZM51.5185 2.56406C52.3794 2.71875 53.3786 2.8375 53.2388 3.04219C54.181 2.83672 54.395 2.64687 51.5185 2.56406ZM53.2388 3.04219L52.6302 3.16875L53.1966 3.11875L53.2388 3.04219ZM80.0919 43.382C80.188 45.9914 79.3278 47.2578 78.5536 49.4984L77.1583 50.1953C76.0177 52.4125 77.2692 51.6031 76.4528 53.3664C74.6708 54.95 71.0458 58.3234 69.8856 58.6305C69.0388 58.6125 70.4591 57.632 70.645 57.2469C68.2606 58.8859 68.7317 59.7055 65.0841 60.7016L64.9778 60.4633C55.981 64.6953 43.4856 56.3086 43.6505 44.8648C43.5544 45.5922 43.3778 45.4094 43.1778 45.7039C42.7138 39.8156 45.8974 33.9016 51.2661 31.4883C56.5177 28.8875 62.6739 29.9547 66.4356 33.4602C64.37 30.7531 60.2567 27.8844 55.3825 28.1531C50.6083 28.2289 46.1419 31.2625 44.6521 34.5562C42.2052 36.0969 41.9216 40.4937 40.856 41.2969C39.4224 51.8367 43.5536 56.3891 50.5419 61.7461C51.6411 62.4875 50.8513 62.6 51.0005 63.1641C48.6786 62.0766 46.5521 60.4352 44.8044 58.4258C45.731 59.7844 46.7325 61.1047 48.0271 62.1414C45.8372 61.4 42.913 56.8367 42.0583 56.6508C45.8333 63.4078 57.37 68.5016 63.4122 65.975C60.6161 66.0773 57.0653 66.032 53.9239 64.8711C52.6052 64.1922 50.8114 62.7859 51.1317 62.5219C59.3763 65.6031 67.8942 64.8562 75.0271 59.1367C76.8419 57.7226 78.8247 55.3187 79.3974 55.2851C78.5341 56.5828 79.5442 55.9101 78.8817 57.0555C80.6911 54.1391 78.0966 55.8672 80.7521 52.018L81.7333 53.3687C81.3685 50.9484 84.7396 48.0086 84.3974 44.1797C85.1708 43.0086 85.2599 45.4391 84.4396 48.1336C85.5778 45.1453 84.7396 44.6648 85.0325 42.1984C85.3481 43.0281 85.763 43.9078 85.9763 44.7828C85.2341 41.8953 86.738 39.9187 87.1091 38.2414C86.7442 38.0789 85.9653 39.518 85.7872 36.107C85.8138 34.6258 86.1997 35.3312 86.3481 34.9664C86.0567 34.7984 85.2942 33.6633 84.8294 31.4852C85.1661 30.9734 85.7286 32.8117 86.188 32.8875C85.8927 31.1555 85.3849 29.8352 85.3653 28.5055C84.027 25.7094 84.8919 28.8789 83.806 27.3055C82.3817 22.8625 84.988 26.2742 85.1638 24.2562C87.3224 27.3836 88.5536 32.2312 89.1185 34.2383C88.6872 31.7906 87.9911 29.4195 87.1403 27.125C87.7958 27.4016 86.0841 22.0891 87.9927 25.607C85.9544 18.107 79.2692 11.1 73.1192 7.81172C73.8708 8.5 74.8216 9.36562 74.481 9.50078C71.4224 7.67969 71.9599 7.5375 71.5224 6.76797C69.0302 5.75469 68.8669 6.84922 67.2169 6.77031C62.52 4.27969 61.6146 4.54375 57.2927 2.98281L57.4895 3.90234C54.377 2.86562 53.8638 4.29531 50.5013 3.90547C50.2958 3.74531 51.5786 3.32734 52.6341 3.17344C49.6263 3.57031 49.7669 2.58047 46.8231 3.28281C47.5489 2.77422 48.3146 2.4375 49.0888 2.00391C46.6364 2.15312 43.2333 3.43203 44.2833 2.26875C40.2825 4.05469 33.1755 6.56016 29.188 10.3L29.0622 9.46172C27.2349 11.6562 21.0935 16.0141 20.6044 18.8539L20.1161 18.968C19.1646 20.5773 18.5505 22.4023 17.7958 24.0594C16.5521 26.1789 15.9724 24.875 16.1497 25.207C13.7028 30.1672 12.488 34.3344 11.4388 37.7516C12.1872 38.8703 11.456 44.4812 11.7396 48.9734C10.5114 71.1562 27.3083 92.6937 45.6692 97.668C48.3606 98.6289 52.3622 98.593 55.7661 98.6922C51.7497 97.543 51.2302 98.0844 47.3185 96.7195C44.495 95.3906 43.8771 93.8727 41.8778 92.1383L42.67 93.5367C38.7489 92.15 40.3903 91.8195 37.1997 90.8094L38.0458 89.7062C36.7747 89.6101 34.6794 87.5656 34.1067 86.432L32.7169 86.4867C31.0466 84.4258 30.1567 82.9414 30.2216 81.7906L29.7724 82.5906C29.263 81.7164 23.6278 74.8617 26.5513 76.4578C26.0075 75.9601 25.2856 75.6492 24.5028 74.2266L25.0981 73.5461C23.6903 71.7367 22.5083 69.4156 22.5981 68.643C23.3481 69.657 23.8692 69.8461 24.3849 70.0203C20.8317 61.2039 20.6325 69.5344 17.9411 61.0461L18.5106 61C18.0739 60.3422 17.8091 59.6281 17.4583 58.9281L17.7052 56.4586C15.1474 53.5008 16.9896 43.882 17.3591 38.6062C17.6153 36.4609 19.4942 34.1773 20.9239 30.5969L20.0536 30.4469C21.7185 27.543 29.5591 18.7844 33.1903 19.2352C34.9489 17.025 32.8419 19.2266 32.4981 18.6703C36.3614 14.6711 37.5763 15.8445 40.1841 15.1258C42.9966 13.4562 37.7708 15.7766 39.1036 14.4891C43.9653 13.2477 42.5489 11.6664 48.8911 11.0359C49.5606 11.4164 47.3388 11.6234 46.781 12.118C50.8317 10.1367 59.5997 10.5875 65.2942 13.218C71.9021 16.3055 79.3263 25.4352 79.6192 34.0234L79.9528 34.1125C79.7841 37.5266 80.4755 41.475 79.2771 45.1016L80.0919 43.382ZM40.0255 54.9726L39.7989 56.1039C40.8591 57.5453 41.7013 59.1062 43.0544 60.2312C42.081 58.3297 41.3567 57.5437 40.0255 54.9726ZM42.5317 54.8742C41.9708 54.2531 41.638 53.5062 41.2661 52.7617C41.6224 54.0703 42.3505 55.1945 43.0278 56.3383L42.5317 54.8742ZM86.895 45.2312L86.6575 45.8266C86.2203 48.9523 85.2703 51.9844 83.8458 54.8008C85.4265 51.819 86.4592 48.5778 86.895 45.2312ZM51.838 1.79062C52.9286 1.38984 54.52 1.57109 55.6771 1.30859C54.1692 1.43516 52.6677 1.51094 51.1849 1.70156L51.838 1.79062ZM13.5356 22.157C13.7872 24.4844 11.7841 25.3875 13.9786 23.8531C15.1552 21.2047 13.5192 23.1227 13.5356 22.157ZM10.9567 32.9289C11.4614 31.3773 11.5536 30.4445 11.7466 29.5477C10.3497 31.3328 11.1036 31.7141 10.9567 32.9289Z" fill="#A80030"/>
</svg>
