<svg width="100" height="100" viewBox="0 0 100 100" fill="none" xmlns="http://www.w3.org/2000/svg">
<path d="M98.9609 76.9055C95.3984 77.8118 93.1953 76.9446 91.2188 73.9759C86.7813 67.3274 81.8828 60.9837 77.1563 54.5227C76.5469 53.6868 75.9141 52.8665 75.125 51.8274C69.5313 59.3743 63.9453 66.5618 58.7031 74.0383C56.8281 76.7102 54.8594 77.8743 51.3594 76.929L72.3906 48.7024L52.8125 23.2102C56.1797 22.554 58.5078 22.8899 60.5703 25.9055C65.125 32.5618 70.1484 38.8977 75.1563 45.6008C80.1953 38.9212 85.1563 32.5774 89.8438 25.9837C91.7266 23.3118 93.75 22.2962 97.1328 23.2805C94.5703 26.679 92.0625 30.0227 89.5391 33.343C86.1328 37.8196 82.7891 42.3508 79.2578 46.7337C78 48.2962 78.2031 49.3118 79.3281 50.7884C85.8594 59.3743 92.3125 68.0462 98.9609 76.9055ZM1.03906 48.2337C1.60156 45.4133 1.97656 42.5383 2.75781 39.7727C7.44531 23.0305 26.6641 16.0696 39.8672 26.4446C47.6016 32.5305 49.5234 41.1087 49.1406 50.7805H5.54688C4.89063 68.1321 17.3828 78.6087 33.3047 73.2649C38.8906 71.3899 42.1797 67.0149 43.8281 61.5462C44.6641 58.804 46.0469 58.3743 48.625 59.1555C47.3047 65.9993 44.3125 71.718 38.0625 75.2962C28.6875 80.6555 15.3047 78.9212 8.26563 71.4758C4.10937 67.1008 2.34375 61.6555 1.5625 55.7727C1.44531 54.8352 1.20313 53.9133 1.01562 52.9837C1.03125 51.4003 1.03906 49.817 1.03906 48.2337ZM5.625 47.0696H45.0234C44.7656 34.5227 36.9531 25.6087 26.2734 25.5305C14.5547 25.4368 6.13281 34.1399 5.625 47.0696Z" fill="#E6E6E6"/>
</svg>
