<svg width="100" height="100" viewBox="0 0 100 100" fill="none" xmlns="http://www.w3.org/2000/svg">
<path fill-rule="evenodd" clip-rule="evenodd" d="M49.9984 3.98633C23.9461 3.98633 2.82031 25.1074 2.82031 51.1645C2.82031 72.0098 16.3383 89.6934 35.0836 95.9324C37.4406 96.3699 38.3063 94.909 38.3063 93.6629C38.3063 92.5379 38.2625 88.8215 38.2422 84.8793C25.1172 87.7332 22.3477 79.3129 22.3477 79.3129C20.2016 73.8598 17.1094 72.4098 17.1094 72.4098C12.8281 69.4816 17.432 69.5426 17.432 69.5426C22.1688 69.8746 24.6641 74.4043 24.6641 74.4043C28.8719 81.6152 35.7008 79.5309 38.393 78.3262C38.8164 75.277 40.0391 73.1949 41.3883 72.0168C30.9094 70.8254 19.893 66.7793 19.893 48.702C19.893 43.5512 21.7367 39.3426 24.7547 36.0379C24.2641 34.8504 22.6492 30.052 25.2109 23.5535C25.2109 23.5535 29.1719 22.2855 38.1875 28.3895C41.9516 27.3434 45.9883 26.8176 49.9984 26.7996C54.0063 26.8176 58.0453 27.3418 61.8164 28.3879C70.8211 22.284 74.7773 23.552 74.7773 23.552C77.3453 30.0496 75.7305 34.8488 75.2406 36.0363C78.2656 39.341 80.0961 43.5496 80.0961 48.7004C80.0961 66.8207 69.0594 70.8098 58.5539 71.9785C60.2469 73.4426 61.7547 76.3145 61.7547 80.7152C61.7547 87.0277 61.7 92.1082 61.7 93.6621C61.7 94.9176 62.55 96.3887 64.9406 95.9254C83.675 89.6801 97.1773 72.002 97.1773 51.1645C97.1766 25.109 76.0531 3.98633 49.9984 3.98633Z" fill="#E6E6E6"/>
<path d="M20.6901 71.7225C20.5862 71.9568 20.2175 72.0271 19.8815 71.867C19.5378 71.7139 19.3464 71.3943 19.4573 71.1592C19.5589 70.917 19.9284 70.8506 20.2698 71.0123C20.6136 71.1662 20.8089 71.4889 20.6893 71.7232L20.6901 71.7225ZM22.6011 73.8545C22.3768 74.0631 21.937 73.9662 21.6386 73.6357C21.3292 73.3076 21.2714 72.8678 21.5003 72.656C21.7331 72.4482 22.1596 72.5467 22.469 72.8748C22.7768 73.2076 22.8378 73.6435 22.6018 73.8553L22.6011 73.8545ZM24.462 76.5709C24.1729 76.7725 23.6995 76.5842 23.4073 76.1646C23.1182 75.7443 23.1182 75.2404 23.4151 75.0396C23.7065 74.8381 24.1729 75.0201 24.4698 75.4357C24.7573 75.8615 24.7573 76.3662 24.462 76.5709ZM27.0097 79.1967C26.7518 79.4818 26.2003 79.4053 25.7972 79.017C25.3854 78.6365 25.2706 78.0951 25.5292 77.8107C25.7917 77.5248 26.3456 77.6045 26.7511 77.9904C27.1628 78.3701 27.287 78.9123 27.0112 79.1959L27.0097 79.1967ZM30.5253 80.7209C30.4104 81.0904 29.8807 81.2584 29.3456 81.1006C28.812 80.9389 28.4628 80.5068 28.5722 80.1334C28.6815 79.7607 29.2151 79.5865 29.7534 79.7545C30.287 79.9154 30.6362 80.3451 30.5253 80.7209ZM34.387 81.0029C34.4003 81.392 33.9471 81.7139 33.387 81.7217C32.8221 81.735 32.3651 81.4193 32.3597 81.0365C32.3597 80.6435 32.8034 80.3256 33.3675 80.3146C33.9276 80.3045 34.3878 80.617 34.3878 81.0021L34.387 81.0029ZM37.9792 80.392C38.0464 80.7709 37.6565 81.1607 37.0995 81.2646C36.5526 81.3662 36.0448 81.1303 35.9745 80.7545C35.9073 80.3654 36.3042 79.9756 36.8511 79.8748C37.4089 79.7787 37.9089 80.0068 37.9792 80.392Z" fill="#E6E6E6"/>
</svg>
