<svg width="100" height="38" viewBox="0 0 100 38" fill="none" xmlns="http://www.w3.org/2000/svg">
<path d="M7.54432 11.355C7.34963 11.355 7.30095 11.2739 7.3983 11.1117L8.42043 9.79748C8.55023 9.63524 8.72869 9.55412 8.95584 9.55412H26.3321C26.5268 9.55412 26.5755 9.65146 26.4781 9.84616L25.6507 11.1117C25.5209 11.2739 25.3586 11.3712 25.164 11.4037L7.54432 11.355ZM0.194692 15.8329C0 15.8329 -0.048673 15.7518 0.048673 15.5896L1.07081 14.2754C1.2006 14.1132 1.37907 14.032 1.60621 14.032H23.8011C23.9958 14.032 24.0769 14.1294 24.0445 14.3241L23.6551 15.4922C23.5902 15.6869 23.4442 15.7843 23.217 15.7843L0.194692 15.8329ZM11.9736 20.3109C11.7789 20.3109 11.7302 20.2135 11.8275 20.0188L12.509 18.802C12.6388 18.6397 12.801 18.5424 12.9957 18.51H22.7303C22.925 18.51 23.0223 18.6235 23.0223 18.8507L22.925 20.0188C22.8925 20.246 22.779 20.3595 22.5843 20.3595L11.9736 20.3109ZM62.4962 10.4789L54.3191 12.6205C53.589 12.8152 53.5403 12.8639 52.9076 12.1338C52.3009 11.3461 51.5172 10.7125 50.6199 10.2842C49.2327 9.5605 47.6687 9.24495 46.1094 9.37418C44.55 9.5034 43.0593 10.0721 41.8101 11.0143C40.2238 11.9629 38.9243 13.3238 38.0501 14.9523C37.1758 16.5808 36.7595 18.4159 36.8455 20.2622C36.8941 24.156 39.5712 27.3684 43.4163 27.9038C46.7261 28.3906 49.5005 27.1738 51.6907 24.6914C52.1126 24.2047 52.5506 23.6044 53.0049 22.8905H43.611C42.5889 22.8905 42.3455 22.2578 42.6862 21.4303C43.319 19.9701 44.4871 17.3905 45.1686 16.125C45.3146 15.8329 45.6553 15.3462 46.3854 15.3462H64.1024C64.0699 16.6442 63.9726 17.9583 63.8103 19.2887C63.2989 22.7525 61.9266 26.0326 59.8191 28.8286C58.1902 31.0777 56.1201 32.9714 53.7351 34.394C51.3501 35.8166 48.7003 36.7384 45.9473 37.103C43.6612 37.4866 41.3208 37.3995 39.0695 36.8471C36.8182 36.2947 34.7033 35.2887 32.8543 33.8906C31.1146 32.6329 29.6632 31.0185 28.5973 29.1551C27.5313 27.2918 26.8752 25.2224 26.6728 23.0852C26.3686 20.5521 26.5782 17.9836 27.2891 15.5333C27.9999 13.083 29.1974 10.8011 30.81 8.82402C34.0925 4.35984 38.9774 1.34165 44.4385 0.403591C46.6407 -0.0918927 48.9211 -0.131594 51.1392 0.286929C53.3574 0.705452 55.4665 1.57335 57.3368 2.83724C59.9003 4.52457 61.7823 6.79598 62.9829 9.65146C63.2425 10.1057 63.0802 10.3816 62.4962 10.4789Z" fill="#00ACD7"/>
<path d="M78.6093 37.3959C74.2708 37.4052 70.067 35.8891 66.7331 33.1127C63.8855 30.7342 62.0141 27.3899 61.4764 23.7188C61.0533 21.1292 61.186 18.4792 61.8658 15.9448C62.5455 13.4105 63.7567 11.0498 65.4189 9.0195C67.0341 6.82466 69.0719 4.9749 71.4123 3.579C73.7527 2.18309 76.3486 1.26922 79.0474 0.89111C81.4077 0.351088 83.8527 0.292585 86.2362 0.719099C88.6196 1.14561 90.8926 2.04838 92.9192 3.37343C94.7911 4.56644 96.3767 6.15776 97.563 8.03393C98.7493 9.91009 99.507 12.0249 99.7821 14.2275C100.242 17.2326 99.9743 20.3043 99.0003 23.1841C98.0262 26.064 96.3747 28.6677 94.1847 30.7763C91.0015 33.9653 86.9303 36.1197 82.5032 36.9578L78.6093 37.3959ZM90.1935 17.732C90.1935 17.1154 90.1448 16.58 90.0475 16.1258C89.8665 15.0255 89.4585 13.975 88.8493 13.0411C88.24 12.1073 87.443 11.3105 86.509 10.7015C85.575 10.0926 84.5243 9.68478 83.424 9.50413C82.3238 9.32348 81.1979 9.37392 80.1182 9.65225C75.5754 10.6906 72.7361 13.5136 71.6004 18.1214C70.7243 21.9179 72.5739 25.763 76.0783 27.3692C78.7716 28.4725 81.4161 28.3589 84.012 27.0285C85.7906 26.2011 87.3077 24.901 88.3978 23.2702C89.4879 21.6394 90.1091 19.7404 90.1935 17.7806" fill="#00ACD7"/>
</svg>
