<svg width="100" height="100" viewBox="0 0 100 100" fill="none" xmlns="http://www.w3.org/2000/svg">
<g clip-path="url(#clip0_280_5214)">
<path d="M50 25C50 38.8071 38.8071 50 25 50C11.1929 50 0 38.8071 0 25C0 11.1929 11.1929 0 25 0C38.8071 0 50 11.1929 50 25Z" fill="url(#paint0_linear_280_5214)"/>
<path d="M100 25C100 38.8071 88.8069 50 75 50C61.1929 50 50 38.8071 50 25C50 11.1929 61.1929 0 75 0C88.8069 0 100 11.1929 100 25Z" fill="url(#paint1_linear_280_5214)"/>
<path d="M100 75C100 88.8069 88.8069 100 75 100C61.1929 100 50 88.8069 50 75C50 61.1929 61.1929 50 75 50C88.8069 50 100 61.1929 100 75Z" fill="url(#paint2_linear_280_5214)"/>
<path d="M50 75C50 88.8069 38.8071 100 25 100C11.1929 100 0 88.8069 0 75C0 61.1929 11.1929 50 25 50C38.8071 50 50 61.1929 50 75Z" fill="url(#paint3_linear_280_5214)"/>
</g>
<defs>
<linearGradient id="paint0_linear_280_5214" x1="0" y1="50" x2="100" y2="50" gradientUnits="userSpaceOnUse">
<stop stop-color="#11E349"/>
<stop offset="1" stop-color="#A5FE81"/>
</linearGradient>
<linearGradient id="paint1_linear_280_5214" x1="0" y1="50" x2="100" y2="50" gradientUnits="userSpaceOnUse">
<stop stop-color="#11E349"/>
<stop offset="1" stop-color="#A5FE81"/>
</linearGradient>
<linearGradient id="paint2_linear_280_5214" x1="0" y1="50" x2="100" y2="50" gradientUnits="userSpaceOnUse">
<stop stop-color="#11E349"/>
<stop offset="1" stop-color="#A5FE81"/>
</linearGradient>
<linearGradient id="paint3_linear_280_5214" x1="0" y1="50" x2="100" y2="50" gradientUnits="userSpaceOnUse">
<stop stop-color="#11E349"/>
<stop offset="1" stop-color="#A5FE81"/>
</linearGradient>
<clipPath id="clip0_280_5214">
<rect width="100" height="100" fill="white"/>
</clipPath>
</defs>
</svg>
