<svg width="16" height="16" viewBox="0 0 16 16" fill="none" xmlns="http://www.w3.org/2000/svg">
<g id="gsapIcon">
<path d="M8 4C8 6.20914 6.20914 8 4 8C1.79086 8 0 6.20914 0 4C0 1.79086 1.79086 0 4 0C6.20914 0 8 1.79086 8 4Z" fill="url(#paint0_linear_1355_567)"/>
<path d="M16 4C16 6.20914 14.2091 8 12 8C9.79086 8 8 6.20914 8 4C8 1.79086 9.79086 0 12 0C14.2091 0 16 1.79086 16 4Z" fill="url(#paint1_linear_1355_567)"/>
<path d="M16 12C16 14.2091 14.2091 16 12 16C9.79086 16 8 14.2091 8 12C8 9.79086 9.79086 8 12 8C14.2091 8 16 9.79086 16 12Z" fill="url(#paint2_linear_1355_567)"/>
<path d="M8 12C8 14.2091 6.20914 16 4 16C1.79086 16 0 14.2091 0 12C0 9.79086 1.79086 8 4 8C6.20914 8 8 9.79086 8 12Z" fill="url(#paint3_linear_1355_567)"/>
</g>
<defs>
<linearGradient id="paint0_linear_1355_567" x1="0" y1="8" x2="16" y2="8" gradientUnits="userSpaceOnUse">
<stop stop-color="#11E349" style="stop-color:#11E349;stop-color:color(display-p3 0.0667 0.8902 0.2863);stop-opacity:1;"/>
<stop offset="1" stop-color="#A5FE81" style="stop-color:#A5FE81;stop-color:color(display-p3 0.6471 0.9961 0.5059);stop-opacity:1;"/>
</linearGradient>
<linearGradient id="paint1_linear_1355_567" x1="0" y1="8" x2="16" y2="8" gradientUnits="userSpaceOnUse">
<stop stop-color="#11E349" style="stop-color:#11E349;stop-color:color(display-p3 0.0667 0.8902 0.2863);stop-opacity:1;"/>
<stop offset="1" stop-color="#A5FE81" style="stop-color:#A5FE81;stop-color:color(display-p3 0.6471 0.9961 0.5059);stop-opacity:1;"/>
</linearGradient>
<linearGradient id="paint2_linear_1355_567" x1="0" y1="8" x2="16" y2="8" gradientUnits="userSpaceOnUse">
<stop stop-color="#11E349" style="stop-color:#11E349;stop-color:color(display-p3 0.0667 0.8902 0.2863);stop-opacity:1;"/>
<stop offset="1" stop-color="#A5FE81" style="stop-color:#A5FE81;stop-color:color(display-p3 0.6471 0.9961 0.5059);stop-opacity:1;"/>
</linearGradient>
<linearGradient id="paint3_linear_1355_567" x1="0" y1="8" x2="16" y2="8" gradientUnits="userSpaceOnUse">
<stop stop-color="#11E349" style="stop-color:#11E349;stop-color:color(display-p3 0.0667 0.8902 0.2863);stop-opacity:1;"/>
<stop offset="1" stop-color="#A5FE81" style="stop-color:#A5FE81;stop-color:color(display-p3 0.6471 0.9961 0.5059);stop-opacity:1;"/>
</linearGradient>
</defs>
</svg>
