<svg width="100" height="100" viewBox="0 0 100 100" fill="none" xmlns="http://www.w3.org/2000/svg">
<path d="M14.8711 88.9648L7.05469 1.29688H92.9422L85.1172 88.9516L49.9461 98.7016L14.8711 88.9648Z" fill="#E44D26"/>
<path d="M50 91.2492L78.4203 83.3695L85.107 8.46484H50V91.2492Z" fill="#F16529"/>
<path d="M50.0008 40.9813H35.7727L34.7898 29.9703H50.0008V19.2188H23.0391L23.2969 22.1031L25.9391 51.7336H50.0008V40.9813ZM50.0008 68.9055L49.9531 68.9187L37.9789 65.6844L37.2141 57.1102H26.4195L27.9258 73.9922L49.9516 80.1063L50.0008 80.093V68.9055Z" fill="#EBEBEB"/>
<path d="M49.9609 40.9813V51.7336H63.2008L61.9531 65.6781L49.9609 68.9148V80.1016L72.0039 73.9922L72.1656 72.1758L74.6922 43.8688L74.9539 40.9813H72.057H49.9609ZM49.9609 19.2188V29.9703H75.9328L76.1484 27.5547L76.6391 22.1031L76.8961 19.2188H49.9609Z" fill="white"/>
</svg>
