<svg width="100" height="100" viewBox="0 0 100 100" fill="none" xmlns="http://www.w3.org/2000/svg">
<path d="M1.10156 1.09961H98.9016V98.9004H1.10156V1.09961Z" fill="#F0DB4F"/>
<path d="M90.8961 75.5743C90.1797 71.1126 87.2703 67.3649 78.6524 63.8704C75.6586 62.4946 72.3211 61.5095 71.3266 59.2407C70.9734 57.9204 70.9266 57.1767 71.15 56.3774C71.7914 53.7837 74.8875 52.9751 77.3414 53.7189C78.9219 54.2485 80.418 55.4665 81.3203 57.4095C85.5406 54.6767 85.532 54.6946 88.4789 52.8165C87.4 51.1439 86.8242 50.372 86.118 49.6564C83.5797 46.8212 80.1211 45.361 74.5898 45.4728L71.7086 45.8454C68.9477 46.5431 66.3164 47.9923 64.7734 49.9353C60.1438 55.1884 61.4641 64.3821 67.0977 68.1657C72.6477 72.3314 80.8008 73.279 81.8422 77.1743C82.8555 81.9431 78.3375 83.4868 73.8469 82.9384C70.5375 82.2501 68.6969 80.5681 66.707 77.5095C63.0445 79.629 63.0445 79.629 59.2789 81.7946C60.1719 83.747 61.1102 84.6306 62.607 86.322C69.6914 93.5079 87.4195 93.1548 90.5992 82.2782C90.7281 81.9048 91.5844 79.4142 90.8961 75.5743ZM54.2672 46.0485H45.1195L45.082 69.6985C45.082 74.7282 45.3422 79.3392 44.5242 80.7524C43.1859 83.5321 39.718 83.1876 38.1375 82.6485C36.5289 81.8579 35.7109 80.7337 34.7633 79.1446C34.5031 78.6884 34.3078 78.3353 34.2422 78.3079L26.8047 82.8626C28.0414 85.4009 29.8633 87.604 32.1969 89.0353C35.6828 91.1274 40.368 91.7689 45.268 90.6439C48.457 89.7149 51.2086 87.7907 52.6492 84.8618C54.732 81.022 54.2852 76.3743 54.2664 71.2337C54.3133 62.847 54.2672 54.4618 54.2672 46.0485Z" fill="#323330"/>
</svg>
