<svg width="100" height="100" viewBox="0 0 100 100" fill="none" xmlns="http://www.w3.org/2000/svg">
<path d="M49.9805 97.7266C37.2328 97.7266 25.2477 92.7617 16.2328 83.7477C7.21797 74.7336 2.25391 62.7484 2.25391 50C2.25391 37.2516 7.21875 25.2664 16.2328 16.2523C25.2469 7.23828 37.232 2.27344 49.9805 2.27344C62.7289 2.27344 74.7141 7.23828 83.7289 16.2523C92.7437 25.2664 97.707 37.2516 97.707 50C97.707 62.7484 92.7422 74.7336 83.7281 83.7484C74.7141 92.7633 62.7289 97.7266 49.9805 97.7266Z" fill="white"/>
<path opacity="0.9" d="M49.9805 49.832H97.707M49.9805 49.832L83.7281 16.0852M49.9805 49.832V2.10547M49.9805 49.832L16.2336 16.0852M49.9805 49.832H2.25391M49.9805 49.832L16.2336 83.5797M49.9805 49.832V97.5586M49.9805 49.832L83.7281 83.5797" stroke="#858585" stroke-width="0.856" stroke-miterlimit="7.976" stroke-linecap="round" stroke-linejoin="round" stroke-dasharray="0.41 0.81"/>
<path opacity="0.9" d="M55.2859 49.8301L55.1281 48.5465L54.6648 47.341L53.9234 46.2824L52.9469 45.4348L51.7953 44.848L50.5375 44.5566L49.2453 44.5801L47.9961 44.9152L46.8656 45.541L45.9211 46.4223L45.218 47.5066L44.7969 48.7293L44.6836 50.0176L44.8859 51.2941L45.3906 52.484L46.1672 53.516L47.1719 54.3293L48.3437 54.8746L49.6117 55.1215L50.9031 55.0543L52.1391 54.6762L53.2469 54.0105L54.1609 53.0965L54.8258 51.9895L55.2039 50.7535L55.2859 49.8301Z" stroke="#818181" stroke-width="0.856" stroke-miterlimit="199.409" stroke-linecap="square" stroke-linejoin="round" stroke-dasharray="0.41 0.81"/>
<path opacity="0.9" d="M65.8922 49.8316L65.7375 47.6184L65.2766 45.4473L64.5164 43.3621L63.475 41.402L62.1703 39.6059L60.6289 38.009L58.8805 36.6418L56.9578 35.5324L54.9008 34.7012L52.7461 34.1637L50.5391 33.9316L48.3203 34.009L46.1352 34.3949L44.0242 35.0801L42.0289 36.0535L40.1883 37.2941L38.5391 38.7793L37.1125 40.4801L35.9359 42.3613L35.0336 44.3895L34.4227 46.5223L34.1133 48.7207V50.941L34.4227 53.1395L35.0336 55.2723L35.9359 57.3004L37.1125 59.1816L38.5391 60.8824L40.1883 62.3684L42.0289 63.609L44.0242 64.5816L46.1352 65.2668L48.3211 65.6527L50.5398 65.7309L52.7461 65.498L54.9008 64.9613L56.9578 64.1293L58.8805 63.0199L60.6289 61.6527L62.1703 60.0559L63.475 58.2598L64.5164 56.2988L65.2758 54.2145L65.7375 52.0434L65.8922 49.8316Z" stroke="#818181" stroke-width="0.856" stroke-miterlimit="199.409" stroke-linecap="square" stroke-linejoin="round" stroke-dasharray="0.41 0.81"/>
<path opacity="0.9" d="M76.4961 49.8316L76.3516 47.0598L75.918 44.3184L75.1992 41.6387L74.2055 39.0473L72.9453 36.5738L71.4336 34.2473L69.6867 32.0895L67.7242 30.1277L65.5672 28.3809L63.2398 26.8691L60.7672 25.609L58.1758 24.6145L55.4961 23.8965L52.7539 23.4629L49.982 23.3184L47.2102 23.4629L44.4695 23.8965L41.7898 24.6152L39.1977 25.609L36.725 26.8691L34.3977 28.3809L32.2406 30.1277L30.2781 32.0895L28.5313 34.2473L27.0195 36.5738L25.7594 39.0473L24.7648 41.6387L24.0469 44.3184L23.6133 47.0598L23.4688 49.8316L23.6133 52.6035L24.0469 55.3449L24.7656 58.0246L25.7594 60.616L27.0195 63.0895L28.5313 65.416L30.2781 67.5738L32.2406 69.5355L34.3977 71.2824L36.725 72.7941L39.1977 74.0551L41.7891 75.0488L44.4687 75.7676L47.2109 76.2012L49.982 76.3457L52.7547 76.2012L55.4953 75.7668L58.175 75.0488L60.7672 74.0551L63.2398 72.7941L65.5672 71.2824L67.7242 69.5355L69.6867 67.5738L71.4336 65.416L72.9453 63.0895L74.2055 60.616L75.1992 58.0246L75.918 55.3449L76.3516 52.6035L76.4961 49.8316Z" stroke="#818181" stroke-width="0.856" stroke-miterlimit="199.409" stroke-linecap="square" stroke-linejoin="round" stroke-dasharray="0.41 0.81"/>
<path opacity="0.9" d="M87.1016 49.8309L86.8984 45.9512L86.2891 42.1145L85.2844 38.3613L83.8922 34.7348L82.1289 31.2723L80.0125 28.0137L77.5672 24.9934L74.8203 22.2457L71.8 19.8004L68.5414 17.684L65.0789 15.9215L61.4523 14.5301L57.6992 13.5246L53.8617 12.916L49.982 12.7129L46.1023 12.916L42.2664 13.5246L38.5125 14.5301L34.8859 15.9215L31.4234 17.6848L28.1656 19.802L25.1445 22.2473L22.3969 24.9941L19.9516 28.0145L17.8359 31.2723L16.0727 34.7355L14.6805 38.3621L13.675 42.1152L13.0672 45.952L12.8633 49.8316L13.0664 53.7113L13.675 57.548L14.6805 61.302L16.0727 64.9285L17.8359 68.3902L19.9523 71.6488L22.3977 74.6691L25.1445 77.4168L28.1648 79.8621L31.4234 81.9785L34.8859 83.7418L38.5125 85.1332L42.2656 86.1395L46.1023 86.7473L49.982 86.9504L53.8617 86.7473L57.6992 86.1395L61.4523 85.1332L65.0789 83.7418L68.5414 81.9785L71.7992 79.8613L74.8203 77.4168L77.5672 74.6691L80.0125 71.6488L82.1297 68.391L83.8922 64.9285L85.2844 61.302L86.2898 57.548L86.8976 53.7121L87.1016 49.8309Z" stroke="#818181" stroke-width="0.856" stroke-miterlimit="199.409" stroke-linecap="square" stroke-linejoin="round" stroke-dasharray="0.41 0.81"/>
<path d="M50 98.4375C37.0625 98.4375 24.8984 93.3992 15.75 84.2508C6.60156 75.1023 1.5625 62.9383 1.5625 50C1.5625 37.0617 6.60078 24.8984 15.7492 15.7492C24.8977 6.6 37.0617 1.5625 50 1.5625C62.9383 1.5625 75.1023 6.60078 84.2508 15.7492C93.3992 24.8977 98.4375 37.0617 98.4375 50C98.4375 62.9383 93.3992 75.1023 84.2508 84.2508C75.1023 93.3992 62.9383 98.4375 50 98.4375ZM50 2.98437C37.4422 2.98437 25.6352 7.875 16.7555 16.7547C7.875 25.6352 2.98437 37.4414 2.98437 50C2.98437 62.5586 7.875 74.3656 16.7547 83.2453C25.6344 92.125 37.4414 97.0156 50 97.0156C62.5586 97.0156 74.3656 92.125 83.2453 83.2453C92.125 74.3656 97.0156 62.5586 97.0156 50C97.0156 37.4414 92.125 25.6352 83.2453 16.7547C74.3648 7.875 62.5586 2.98437 50 2.98437Z" fill="#11557C"/>
<path opacity="0.6" d="M49.9805 49.832L50.0812 49.7992L50.182 49.7664L50.2828 49.7336L50.3836 49.7008L50.4844 49.668L50.5852 49.6352L50.6859 49.6023L50.7867 49.5695L50.8875 49.5367L50.9883 49.5039L51.0891 49.4711L51.1898 49.4383L51.2906 49.4055L51.3914 49.3727L51.4922 49.3398L51.593 49.307L51.6938 49.2742L51.7945 49.2414L51.8953 49.2086L51.9961 49.1758L52.0969 49.143L52.1977 49.1102L52.2984 49.0773L52.3992 49.0445L52.5 49.0117L52.6008 48.9789L52.7016 48.9461L52.8023 48.9133L52.9031 48.8805L53.0039 48.8477L53.1047 48.8148L53.2055 48.782L53.3063 48.7492L53.407 48.7164L53.5078 48.6836L53.6086 48.6508L53.7094 48.618L53.8102 48.5852L53.9109 48.5523L54.0117 48.5195L54.1125 48.4867L54.2133 48.4539L54.3141 48.4211L54.4148 48.3883L54.5156 48.3555L54.6164 48.3227L54.7172 48.2898L54.818 48.257L54.9187 48.2242L55.0195 48.1914L55.1203 48.1586L55.2211 48.1258L55.3219 48.093L55.4227 48.0602L55.5234 48.0273L55.6242 47.9945L55.725 47.9617L55.8258 47.9289L55.9266 47.8961L56.0273 47.8633L56.1281 47.8305L56.2289 47.7977L56.3297 47.7648L56.4305 47.732L56.5313 47.6992L56.632 47.6664L56.7328 47.6336L56.8336 47.6008L56.9344 47.568L57.0352 47.5352L57.1359 47.5023L57.2367 47.4695L57.3375 47.4367L57.4383 47.4039L57.5391 47.3711L57.6398 47.3383L57.7406 47.3055L57.8414 47.2727L57.9422 47.2398L58.043 47.207L58.1438 47.1742L58.2445 47.1414L58.3453 47.1086L58.4461 47.0758L58.5469 47.043L58.6477 47.0102L58.7484 46.9773L58.8492 46.9445L58.95 46.9117L59.0508 46.8789L59.1516 46.8461L59.2523 46.8133L59.3531 46.7805L59.4539 46.7477L59.5547 46.7148L59.6555 46.682L59.7563 46.6492L59.857 46.6164L59.9578 46.5836L60.0586 46.5508L60.0781 46.5867L60.0883 46.6188L60.0984 46.6508L60.1086 46.6828L60.1188 46.7148L60.1289 46.7469L60.1383 46.7789L60.1477 46.8109L60.1563 46.8414L60.1656 46.8734L60.175 46.9055L60.1844 46.9375L60.1937 46.9695L60.2023 47.0016L60.2109 47.0336L60.2195 47.0656L60.2281 47.0977L60.2367 47.1297L60.2453 47.1617L60.2539 47.1938L60.2625 47.2258L60.2703 47.2578L60.2781 47.2898L60.2859 47.3219L60.2938 47.3539L60.3016 47.3859L60.3094 47.4188L60.3172 47.4516L60.3242 47.4844L60.3313 47.5172L60.3383 47.55L60.3453 47.5828L60.3523 47.6156L60.3594 47.6484L60.3664 47.6812L60.3734 47.7141L60.3805 47.7469L60.3867 47.7797L60.393 47.8125L60.3992 47.8453L60.4055 47.8781L60.4117 47.9109L60.418 47.9438L60.4234 47.9766L60.4289 48.0094L60.4344 48.0422L60.4398 48.075L60.4453 48.1078L60.4508 48.1406L60.4563 48.1734L60.4617 48.2062L60.4672 48.2391L60.4719 48.2719L60.4766 48.3047L60.4813 48.3375L60.4859 48.3703L60.4906 48.4031L60.4953 48.4359L60.5 48.4688L60.5039 48.5016L60.5078 48.5344L60.5117 48.5672L60.5156 48.6L60.5195 48.6328L60.5234 48.6656L60.5273 48.6984L60.5313 48.7313L60.5344 48.7641L60.5375 48.7969L60.5406 48.8297L60.5438 48.8625L60.5469 48.8953L60.55 48.9281L60.5531 48.9617L60.5555 48.9953L60.5578 49.0289L60.5602 49.0625L60.5625 49.0961L60.5648 49.1297L60.5672 49.1633L60.5695 49.1969L60.5719 49.2305L60.5734 49.2641L60.575 49.2977L60.5766 49.3313L60.5781 49.3648L60.5797 49.3984L60.5813 49.432L60.5828 49.4656L60.5836 49.4992L60.5844 49.5328L60.5852 49.5664L60.5859 49.6L60.5867 49.6336L60.5875 49.6672L60.5883 49.7008V49.8352H50.0859L49.9805 49.832Z" fill="#004CFF"/>
<path opacity="0.6" d="M49.9805 49.832L50.0922 49.5344L50.2039 49.2367L50.3156 48.9391L50.4273 48.6414L50.5391 48.3438L50.6508 48.0461L50.7625 47.7484L50.8742 47.4508L50.9859 47.1531L51.0977 46.8555L51.2094 46.5578L51.3211 46.2602L51.4328 45.9625L51.5445 45.6648L51.6563 45.3672L51.768 45.0695L51.8797 44.7719L51.9914 44.4742L52.1031 44.1766L52.2148 43.8789L52.3266 43.5813L52.4383 43.2836L52.55 42.9859L52.6617 42.6883L52.7734 42.3906L52.8852 42.093L52.9969 41.7953L53.1086 41.4977L53.2203 41.2L53.332 40.9023L53.4437 40.6047L53.5555 40.307L53.6672 40.0094L53.7789 39.7117L53.8906 39.4141L54.0023 39.1164L54.1141 38.8188L54.2258 38.5211L54.3375 38.2234L54.4492 37.9258L54.5609 37.6281L54.6727 37.3305L54.7844 37.0328L54.8961 36.7352L55.0078 36.4375L55.1195 36.1398L55.2313 35.8422L55.343 35.5445L55.4547 35.2469L55.5664 34.9492L55.6781 34.6516L55.7898 34.3539L55.9016 34.0563L56.0133 33.7586L56.125 33.4609L56.2367 33.1633L56.3484 32.8656L56.4602 32.568L56.5719 32.2703L56.6836 31.9727L56.7953 31.675L56.907 31.3773L57.0188 31.0797L57.1305 30.782L57.2422 30.4844L57.3539 30.1867L57.4656 29.8891L57.5773 29.5914L57.6891 29.2937L57.8008 28.9961L57.9125 28.6984L58.0242 28.4008L58.1359 28.1031L58.2477 27.8055L58.3594 27.5078L58.4711 27.2102L58.5828 26.9125L58.6945 26.6148L58.8063 26.3172L58.918 26.0195L59.0297 25.7219L59.1414 25.4242L59.2531 25.1266L59.3648 24.8289L59.4766 24.5313L59.5883 24.2336L59.7 23.9359L59.8117 23.6383L59.9234 23.3406L60.0352 23.043L60.1469 22.7453L60.2586 22.4477L60.3703 22.15L60.482 21.8523L60.5937 21.5547L60.7055 21.257L60.8172 20.9594L60.9375 20.6383L61.0492 20.3406L61.1609 20.043L61.2547 20.0781L61.3484 20.1141L61.4414 20.15L61.5344 20.1859L61.6273 20.2227L61.7203 20.2594L61.8133 20.2961L61.9062 20.3336L61.9992 20.3711L62.0914 20.4094L62.1836 20.4477L62.2758 20.4859L62.368 20.525L62.4602 20.5641L62.5523 20.6031L62.6437 20.643L62.7352 20.6828L62.8266 20.7227L62.918 20.7633L63.0094 20.8039L63.1008 20.8453L63.1914 20.8867L63.282 20.9281L63.3727 20.9703L63.4633 21.0125L63.5539 21.0547L63.6445 21.0977L63.7344 21.1406L63.8242 21.1836L63.9141 21.2273L64.0039 21.2711L64.0938 21.3156L64.1836 21.3602L64.2727 21.4047L64.3617 21.45L64.4508 21.4953L64.5398 21.5406L64.6289 21.5867L64.7172 21.6328L64.8055 21.6789L64.8938 21.7258L64.982 21.7727L65.0703 21.8203L65.1586 21.868L65.2461 21.9156L65.3336 21.9641L65.4211 22.0125L65.5086 22.0609L65.5961 22.1102L65.6828 22.1594L65.7695 22.2086L65.8562 22.2586L65.943 22.3086L66.0297 22.3586L66.1156 22.4094L66.2016 22.4602L66.2875 22.5109L66.3734 22.5625L66.4594 22.6141L66.5445 22.6656L66.6297 22.718L66.7148 22.7703L66.8 22.8227L66.8844 22.8758L66.9688 22.9289L67.0531 22.982L67.1375 23.0359L67.2219 23.0898L67.3055 23.1437L67.3891 23.1984L67.4727 23.2531L67.5562 23.3086L67.6398 23.3641L67.7227 23.4195L67.8055 23.4758L67.8883 23.532L67.9711 23.5883L68.0531 23.6453L68.1352 23.7023L68.2172 23.7594L68.2992 23.8172L68.3805 23.875L68.4617 23.9328L68.543 23.9906L68.6242 24.0492L68.7055 24.1078L68.7859 24.1664L68.8664 24.2258L68.9469 24.2852L69.0273 24.3445L69.107 24.4047L69.1867 24.4648L69.2664 24.525L69.3461 24.5859L69.425 24.6469L69.5039 24.7078L69.5828 24.7695L69.6617 24.8313L69.7398 24.893L69.818 24.9555L69.6195 25.2039L69.4211 25.4523L69.2227 25.7008L69.0242 25.9492L68.8258 26.1977L68.6273 26.4461L68.4289 26.6945L68.2305 26.943L68.032 27.1914L67.8336 27.4398L67.6352 27.6883L67.4367 27.9367L67.2383 28.1852L67.0414 28.4383L66.843 28.6867L66.6445 28.9352L66.4461 29.1836L66.2477 29.432L66.0492 29.6805L65.8516 29.9305L65.6531 30.1789L65.4547 30.4273L65.2562 30.6758L65.0578 30.9242L64.8594 31.1727L64.6609 31.4211L64.4625 31.6695L64.2641 31.918L64.0656 32.1664L63.8672 32.4148L63.6688 32.6633L63.4703 32.9117L63.2719 33.1602L63.0734 33.4086L62.875 33.657L62.6766 33.9055L62.4781 34.1539L62.2797 34.4023L62.0812 34.6508L61.8828 34.8992L61.6844 35.1477L61.4859 35.3961L61.2875 35.6445L61.0891 35.893L60.8906 36.1414L60.6922 36.3898L60.4937 36.6383L60.2953 36.8867L60.0969 37.1352L59.8984 37.3836L59.7 37.632L59.5031 37.8914L59.3047 38.1398L59.1062 38.3883L58.9078 38.6367L58.7094 38.8852L58.5109 39.1336L58.3125 39.3836L58.1141 39.632L57.9156 39.8805L57.7172 40.1289L57.5188 40.3773L57.3203 40.6258L57.1219 40.8742L56.9234 41.1227L56.725 41.3711L56.5266 41.6195L56.3281 41.868L56.1297 42.1164L55.9313 42.3648L55.7328 42.6133L55.5344 42.8617L55.3359 43.1102L55.1375 43.3586L54.9391 43.607L54.7406 43.8555L54.5422 44.1039L54.3437 44.3523L54.1453 44.6008L53.9469 44.8492L53.75 45.1055L53.5516 45.3539L53.3531 45.6023L53.1547 45.8508L52.9562 46.0992L52.7578 46.3477L52.5594 46.5961L52.3609 46.8445L52.1625 47.093L51.9641 47.3414L51.7656 47.5898L51.5672 47.8383L51.3688 48.0867L51.1703 48.3352L50.9719 48.5836L50.7734 48.832L50.575 49.0805L50.3766 49.3289L50.1781 49.5773L49.9805 49.832Z" fill="#CEFF29"/>
<path opacity="0.6" d="M49.9812 49.8309L49.7094 49.5051L49.4375 49.1793L49.1656 48.8535L48.8938 48.5277L48.6219 48.202L48.35 47.8762L48.0781 47.5504L47.8063 47.2246L47.5344 46.8988L47.2625 46.573L46.9906 46.2473L46.7188 45.9215L46.4469 45.5957L46.175 45.2699L45.9031 44.9441L45.6313 44.6184L45.3594 44.2926L45.0875 43.9668L44.8156 43.641L44.5437 43.3152L44.2719 42.9895L44 42.6637L43.7281 42.3379L43.4563 42.0121L43.1844 41.6863L42.9125 41.3605L42.6406 41.0348L42.3687 40.709L42.0969 40.3832L41.825 40.0574L41.5531 39.7316L41.2813 39.4059L41.0094 39.0801L40.7375 38.7543L40.4656 38.4285L40.1937 38.1027L39.9219 37.777L39.65 37.4512L39.3781 37.1254L39.1063 36.7996L38.8344 36.4738L38.5625 36.148L38.2906 35.8223L38.0187 35.4965L37.7469 35.1707L37.475 34.8449L37.2031 34.5191L36.9313 34.1934L36.6594 33.8676L36.3875 33.5418L36.1156 33.216L35.8438 32.8902L35.5719 32.5645L35.3 32.2387L35.0281 31.9129L34.7562 31.5871L34.4844 31.2613L34.2125 30.9355L33.9406 30.6098L33.6688 30.284L33.3969 29.9582L33.125 29.6324L32.8531 29.3066L32.5812 28.9809L32.3094 28.6551L32.0375 28.3293L31.7656 28.0035L31.4938 27.6777L31.2219 27.352L30.95 27.0262L30.6781 26.7004L30.4062 26.3746L30.1344 26.0488L29.8625 25.723L29.5906 25.3973L29.3188 25.0715L29.0469 24.7457L28.775 24.4199L28.5031 24.0941L28.2312 23.7684L27.9594 23.4426L27.6875 23.1168L27.4156 22.791L27.1438 22.4652L26.8719 22.1395L26.6 21.8137L26.3281 21.4879L26.0563 21.1621L25.7844 20.8363L25.5125 20.5105L25.2406 20.1848L24.9687 19.859L24.6969 19.5332L24.4242 19.2184L24.1523 18.8926L23.8805 18.5668L23.6086 18.241L23.3367 17.9152L23.0648 17.5895L22.793 17.2637L22.9469 17.1355L23.1016 17.0082L23.2563 16.8816L23.4117 16.7559L23.568 16.6309L23.725 16.5066L23.882 16.3832L24.0398 16.2605L24.1984 16.1387L24.3578 16.0176L24.5172 15.8973L24.6773 15.7777L24.8383 15.659L24.9992 15.541L25.1609 15.4238L25.3234 15.3074L25.4867 15.1918L25.65 15.077L25.8141 14.9629L25.9789 14.8496L26.1438 14.7371L26.3094 14.6254L26.4758 14.5145L26.6422 14.4043L26.8094 14.2949L26.9773 14.1863L27.1453 14.0785L27.3141 13.9715L27.4836 13.8652L27.6531 13.7598L27.8234 13.6551L27.9945 13.5512L28.1656 13.448L28.3375 13.3457L28.5094 13.2441L28.682 13.1434L28.8555 13.0434L29.0289 12.9441L29.2031 12.8457L29.3773 12.748L29.5523 12.6512L29.7281 12.5551L29.9039 12.4598L30.0805 12.3652L30.257 12.2715L30.4344 12.1793L30.6117 12.0879L30.7898 11.9973L30.968 11.9074L31.1469 11.8184L31.3266 11.7301L31.5062 11.6426L31.6867 11.5559L31.8672 11.4699L32.0484 11.3848L32.2297 11.3004L32.4117 11.2168L32.5938 11.1348L32.7766 11.0535L32.9594 10.973L33.143 10.8934L33.3266 10.8145L33.5109 10.7363L33.6953 10.659L33.8805 10.5824L34.0656 10.5066L34.2508 10.4324L34.4367 10.359L34.6227 10.2863L34.8094 10.2145L34.9961 10.1434L35.1836 10.073L35.3711 10.0035L35.5586 9.93477L35.7469 9.86758L35.9352 9.80117L36.1242 9.73555L36.3133 9.6707L36.5023 9.60664L36.6922 9.54336L36.882 9.48086L37.0727 9.41992L37.2633 9.35977L37.4539 9.30039L37.6453 9.2418L37.8367 9.18398L38.0281 9.12695L38.2203 9.0707L38.4125 9.01602L38.6047 8.96211L38.7977 8.90898L38.9906 8.85664L39.1836 8.80508L39.3773 8.7543L39.5711 8.70508L39.7648 8.65664L39.9594 8.60898L40.1539 8.56211L40.3484 8.51602L40.543 8.4707L40.6375 8.88398L40.732 9.29727L40.8266 9.71055L40.9211 10.1238L41.0156 10.5371L41.1102 10.9504L41.2047 11.3637L41.2992 11.777L41.3938 12.1902L41.4883 12.6035L41.5828 13.0168L41.6773 13.4301L41.7719 13.8434L41.8664 14.2566L41.9609 14.6699L42.0555 15.0832L42.15 15.4965L42.2445 15.9098L42.3391 16.323L42.4336 16.7363L42.5281 17.1496L42.6227 17.5629L42.7172 17.9762L42.8117 18.3895L42.9062 18.8027L43.0008 19.216L43.0953 19.6293L43.1898 20.0426L43.2844 20.4559L43.3789 20.8691L43.4734 21.2824L43.568 21.6957L43.6625 22.109L43.7508 22.5332L43.8453 22.9465L43.9398 23.3598L44.0344 23.773L44.1289 24.1863L44.2234 24.5996L44.318 25.0129L44.4125 25.4262L44.507 25.8395L44.6016 26.2527L44.6961 26.666L44.7906 27.0793L44.8852 27.4926L44.9797 27.9059L45.0742 28.3191L45.1687 28.7324L45.2633 29.1457L45.3578 29.559L45.4523 29.9723L45.5469 30.3855L45.6414 30.7988L45.7359 31.2121L45.8305 31.6254L45.925 32.0387L46.0195 32.452L46.1141 32.8652L46.2086 33.2785L46.3031 33.6918L46.3977 34.1051L46.4922 34.5184L46.5867 34.9316L46.6812 35.3449L46.7758 35.7582L46.8703 36.1715L46.9648 36.5848L47.0594 36.998L47.1539 37.4113L47.2484 37.8246L47.343 38.2379L47.4375 38.6512L47.532 39.0645L47.6266 39.4777L47.7211 39.891L47.8156 40.3043L47.9102 40.7176L48.0047 41.1309L48.0992 41.5441L48.1938 41.9574L48.2883 42.3707L48.3828 42.784L48.4773 43.1973L48.5719 43.6105L48.6664 44.0238L48.7609 44.4371L48.8555 44.8504L48.95 45.2637L49.0445 45.677L49.1391 46.0902L49.2336 46.5035L49.3281 46.9168L49.4227 47.3301L49.5172 47.7434L49.6117 48.1566L49.7063 48.5699L49.8008 48.9832L49.8953 49.3965L49.9812 49.8309Z" fill="#FF6800"/>
<path opacity="0.6" d="M49.9789 49.8316L49.6133 49.898L49.2477 49.9645L48.882 50.0309L48.5164 50.0973L48.1508 50.1637L47.7852 50.2301L47.4195 50.2965L47.0539 50.3629L46.6883 50.4293L46.3266 50.4941L45.9609 50.5606L45.5953 50.627L45.2297 50.6934L44.8641 50.7598L44.4984 50.8262L44.1328 50.8926L43.7672 50.959L43.4016 51.0254L43.0359 51.0918L42.6703 51.1582L42.3047 51.2246L41.9437 51.2895L41.5781 51.3559L41.2125 51.4223L40.8469 51.4887L40.4828 51.5551L40.1172 51.6215L39.7516 51.6879L39.3859 51.7543L39.0203 51.8207L38.6547 51.8871L38.2891 51.9535L37.9234 52.0199L37.5578 52.0863L37.1922 52.1527L36.8266 52.2191L36.4609 52.2856L36.0953 52.352L35.7297 52.4184L35.3641 52.4848L34.9984 52.5512L34.6328 52.6176L34.2672 52.684L33.9016 52.7504L33.5359 52.8168L33.1703 52.8832L32.8047 52.9496L32.4391 53.016L32.0734 53.0824L31.7172 53.1457L31.3516 53.2121L30.9859 53.2785L30.6203 53.3449L30.2547 53.4113L29.8891 53.4777L29.5234 53.5441L29.1578 53.6106L28.7922 53.677L28.4266 53.7434L28.0609 53.8098L27.6953 53.8762L27.3297 53.9426L26.9641 54.009L26.5984 54.0754L26.2328 54.1418L25.8672 54.2082L25.5016 54.2746L25.1359 54.341L24.7703 54.4074L24.4047 54.4738L24.0391 54.5402L23.6734 54.6066L23.3078 54.6731L22.9422 54.7395L22.5766 54.8059L22.2109 54.8723L21.8453 54.9387L21.4797 55.0051L21.1141 55.0715L20.7484 55.1379L20.3828 55.2043L20.0172 55.2707L19.6516 55.3371L19.2859 55.4035L18.9203 55.4699L18.5688 55.5316L18.2031 55.598L17.8375 55.6645L17.4719 55.7309L17.1078 55.7973L16.7422 55.8637L16.3766 55.9301L16.0109 55.9965L15.6453 56.0629L15.2797 56.1293L14.9141 56.1957L14.5484 56.2621L14.1828 56.3285L13.8172 56.3949L13.4516 56.4613L13.4109 56.2316L13.3711 56.002L13.3328 55.7715L13.2961 55.541L13.2609 55.3105L13.2312 55.0785L13.1992 54.8473L13.1687 54.616L13.1391 54.3848L13.1109 54.1535L13.0844 53.9215L13.0594 53.6895L13.0359 53.4574L13.0141 53.2254L12.9938 52.9934L12.975 52.7605L12.957 52.5277L12.9406 52.2949L12.9258 52.0621L12.9125 51.8293L12.9008 51.5965L12.8906 51.3637L12.882 51.1309L12.875 50.898L12.8688 50.6652L12.8641 50.4324L12.8609 50.1988L12.8594 49.9652V49.7316L12.8609 49.498L12.8641 49.2645L12.868 49.0316L12.8734 48.7988L12.8805 48.566L12.8891 48.3332L12.8992 48.1004L12.9109 47.8676L12.9242 47.6348L12.9391 47.402L12.9547 47.1691L12.9719 46.9363L12.9906 46.7035L13.0109 46.4715L13.0328 46.2395L13.0563 46.0074L13.0813 45.7754L13.1078 45.5434L13.1352 45.3121L13.1641 45.0809L13.1945 44.8496L13.2266 44.6184L13.2602 44.3879L13.2953 44.1574L13.332 43.927L13.3695 43.6965L13.4086 43.4668L13.4492 43.2371L13.4914 43.0074L13.5352 42.7785L13.5805 42.5496L13.6266 42.3207L13.6742 42.0926L13.7234 41.8645L13.7742 41.6371L13.8266 41.4098L13.8805 41.1824L13.9352 40.9559L13.9914 40.7293L14.0492 40.5035L14.1086 40.2777L14.1695 40.0527L14.232 39.8277L14.2953 39.6035L14.3602 39.3793L14.4266 39.1559L14.4945 38.9324L14.5641 38.7098L14.6344 38.4871L14.7063 38.2652L14.7797 38.0441L14.8547 37.823L14.9305 37.6027L15.0078 37.3824L15.0867 37.1629L15.1672 36.9441L15.2492 36.7254L15.332 36.5074L15.4164 36.2902L15.5023 36.073L15.5898 35.8566L15.6781 35.641L15.768 35.4254L15.8594 35.2105L15.9516 34.9965L16.0453 34.7832L16.1406 34.5699L16.2375 34.3574L16.3352 34.1457L16.4344 33.9348L16.5352 33.7246L16.8695 33.8855L17.2039 34.0465L17.5383 34.2074L17.8727 34.3684L18.207 34.5293L18.5414 34.6902L18.8758 34.8512L19.2102 35.0121L19.5445 35.173L19.8789 35.334L20.2133 35.4949L20.5477 35.6559L20.882 35.8168L21.2164 35.9777L21.5508 36.1387L21.8852 36.2996L22.2195 36.4605L22.5539 36.6215L22.8883 36.7824L23.2227 36.9434L23.557 37.1043L23.8914 37.2652L24.2258 37.4262L24.5602 37.5871L24.8945 37.748L25.2289 37.909L25.5633 38.0699L25.8977 38.2309L26.232 38.3918L26.5664 38.5527L26.9008 38.7137L27.2352 38.8746L27.5695 39.0355L27.9039 39.1965L28.2383 39.3574L28.5727 39.5184L28.907 39.6793L29.2414 39.8402L29.5758 40.0012L29.9102 40.1621L30.2445 40.323L30.5789 40.484L30.9133 40.6449L31.2477 40.8059L31.582 40.9668L31.9164 41.1277L32.2508 41.2887L32.5852 41.4496L32.9195 41.6105L33.2539 41.7715L33.5883 41.9324L33.9227 42.0934L34.257 42.2543L34.5914 42.4152L34.9258 42.5762L35.2602 42.7371L35.5945 42.898L35.9289 43.059L36.2633 43.2199L36.5977 43.3809L36.932 43.5418L37.2664 43.7027L37.6008 43.8637L37.9352 44.0246L38.2695 44.1855L38.6039 44.3465L38.9383 44.5074L39.2727 44.6684L39.607 44.8293L39.9414 44.9902L40.2758 45.1512L40.6102 45.3121L40.9445 45.473L41.2789 45.634L41.6133 45.7949L41.9477 45.9559L42.282 46.1168L42.6164 46.2777L42.9508 46.4387L43.2852 46.5996L43.6195 46.7605L43.9539 46.9215L44.2883 47.0824L44.6227 47.2434L44.957 47.4043L45.2914 47.5652L45.6258 47.7262L45.9602 47.8871L46.2945 48.048L46.6289 48.209L46.9633 48.3699L47.2977 48.5309L47.632 48.6918L47.9664 48.8527L48.3008 49.0137L48.6352 49.1746L48.9695 49.3355L49.3039 49.4965L49.6383 49.6574L49.9789 49.8316Z" fill="#FFC400"/>
<path opacity="0.6" d="M49.9789 49.832L49.8047 49.9531L49.6305 50.0742L49.4562 50.1953L49.282 50.3164L49.1078 50.4375L48.9336 50.5586L48.7594 50.6797L48.5844 50.7977L48.4102 50.9188L48.2359 51.0398L48.0617 51.1609L47.8875 51.282L47.7133 51.4031L47.5391 51.5242L47.3648 51.6453L47.1906 51.7664L47.0164 51.8875L46.8422 52.0086L46.668 52.1297L46.4937 52.2508L46.3195 52.3719L46.1453 52.493L45.9711 52.6141L45.7969 52.7352L45.6227 52.8562L45.4484 52.9773L45.2742 53.0984L45.1 53.2195L44.9258 53.3406L44.7516 53.4617L44.5773 53.5828L44.4031 53.7039L44.2289 53.825L44.0547 53.9461L43.8805 54.0672L43.7062 54.1883L43.532 54.3094L43.3578 54.4305L43.1836 54.5516L43.0094 54.6727L42.8352 54.7938L42.6609 54.9148L42.4867 55.0359L42.3125 55.157L42.1383 55.2781L41.9641 55.3992L41.7898 55.5203L41.6156 55.6414L41.4414 55.7625L41.2672 55.8836L41.093 56.0047L40.9187 56.1258L40.7445 56.2469L40.5703 56.368L40.3891 56.475L40.2148 56.5961L40.0406 56.7172L39.8664 56.8383L39.6922 56.9594L39.518 57.0805L39.3437 57.2016L39.1695 57.3227L38.9953 57.4438L38.8211 57.5648L38.6469 57.6859L38.4727 57.807L38.2984 57.9281L38.1242 58.0492L37.95 58.1703L37.7758 58.2914L37.6016 58.4125L37.4273 58.5336L37.2531 58.6547L37.0789 58.7758L36.9047 58.8969L36.7305 59.018L36.5562 59.1391L36.382 59.2602L36.2078 59.3813L36.0336 59.5023L35.8594 59.6234L35.6852 59.7445L35.5109 59.8656L35.3367 59.9867L35.1625 60.1078L34.9883 60.2289L34.8141 60.35L34.6398 60.4711L34.4656 60.5922L34.2914 60.7133L34.1172 60.8344L33.943 60.9555L33.7688 61.0766L33.5945 61.1977L33.4203 61.3187L33.2461 61.4398L33.0719 61.5609L32.8977 61.682L32.7172 61.7898L32.543 61.9109L32.5242 61.8836L32.5055 61.8563L32.4867 61.8289L32.468 61.8016L32.4492 61.7742L32.4305 61.7469L32.4117 61.7195L32.393 61.6922L32.3742 61.6648L32.3555 61.6375L32.3367 61.6102L32.318 61.5828L32.2992 61.5547L32.2805 61.5266L32.2625 61.4984L32.2445 61.4703L32.2266 61.4422L32.2086 61.4141L32.1906 61.3859L32.1727 61.3578L32.1547 61.3297L32.1367 61.3016L32.1187 61.2734L32.1008 61.2453L32.0828 61.2172L32.0648 61.1891L32.0469 61.1609L32.0289 61.1328L32.0109 61.1047L31.993 61.0766L31.975 61.0484L31.957 61.0203L31.9398 60.9922L31.9227 60.9641L31.9055 60.9359L31.8883 60.9078L31.8711 60.8797L31.8539 60.8516L31.8367 60.8234L31.8195 60.7953L31.8023 60.7664L31.7852 60.7375L31.768 60.7086L31.7508 60.6797L31.7336 60.6508L31.7164 60.6219L31.6992 60.593L31.682 60.5641L31.6648 60.5352L31.6484 60.5062L31.632 60.4773L31.6156 60.4484L31.5992 60.4195L31.5828 60.3906L31.5664 60.3617L31.55 60.3328L31.5336 60.3039L31.5172 60.275L31.5008 60.2461L31.4844 60.2172L31.468 60.1883L31.4516 60.1594L31.4352 60.1305L31.4187 60.1016L31.4023 60.0727L31.3859 60.0438L31.3695 60.0148L31.3539 59.9859L31.3383 59.957L31.3227 59.9281L31.307 59.8984L31.2914 59.8687L31.2758 59.8391L31.2602 59.8094L31.2445 59.7797L31.2289 59.75L31.2133 59.7203L31.1977 59.6906L31.182 59.6609L31.1664 59.6313L31.1508 59.6016L31.1352 59.5719L31.1195 59.5422L31.1047 59.5125L31.0898 59.4828L31.075 59.4531L31.0602 59.4234L31.0453 59.3938L31.0305 59.3641L31.0156 59.3344L31.0008 59.3047L30.9859 59.275L30.9711 59.2453L30.9562 59.2156L30.9414 59.1859L30.9266 59.1563L30.9117 59.1266L30.8969 59.0945L30.882 59.0648L30.8672 59.0352L31.0586 58.943L31.25 58.8508L31.4414 58.7586L31.6328 58.6664L31.8242 58.5742L32.0156 58.482L32.207 58.3898L32.3984 58.2977L32.5898 58.2055L32.7813 58.1133L32.9727 58.0211L33.1641 57.9289L33.3555 57.8367L33.5469 57.7445L33.7383 57.6523L33.9297 57.5602L34.1211 57.468L34.3125 57.3758L34.5039 57.2836L34.6953 57.1914L34.8867 57.0992L35.0781 57.007L35.2695 56.9148L35.4609 56.8227L35.6523 56.7305L35.8437 56.6383L36.0352 56.5461L36.2266 56.4539L36.418 56.3617L36.6094 56.2695L36.8008 56.1773L36.9922 56.0852L37.1836 55.993L37.375 55.9008L37.5664 55.8086L37.7578 55.7164L37.9492 55.6242L38.1406 55.532L38.332 55.4398L38.5234 55.3477L38.7148 55.2555L38.9062 55.1633L39.0977 55.0711L39.2891 54.9789L39.4805 54.8867L39.6719 54.7945L39.8633 54.7023L40.0547 54.6102L40.2461 54.518L40.4375 54.4258L40.6289 54.3336L40.8203 54.2414L41.0117 54.1492L41.2031 54.057L41.3945 53.9648L41.5859 53.8727L41.7773 53.7805L41.9687 53.6883L42.1602 53.5961L42.3516 53.5039L42.543 53.4117L42.7344 53.3195L42.9258 53.2273L43.1172 53.1352L43.3086 53.043L43.5 52.9508L43.6914 52.8586L43.8828 52.7664L44.0742 52.6742L44.2656 52.582L44.457 52.4898L44.6484 52.3977L44.8398 52.3055L45.0312 52.2133L45.2227 52.1211L45.4141 52.0289L45.6055 51.9367L45.7969 51.8445L45.9883 51.7523L46.1797 51.6602L46.3711 51.568L46.5625 51.4758L46.7539 51.3836L46.9453 51.2914L47.1367 51.1992L47.3281 51.107L47.5195 51.0148L47.7109 50.9227L47.9023 50.8305L48.0937 50.7383L48.2852 50.6461L48.4766 50.5539L48.668 50.4617L48.8594 50.3695L49.0508 50.2773L49.2422 50.1852L49.4336 50.093L49.625 50.0008L49.8164 49.9086L49.9789 49.832Z" fill="#29FFCE"/>
<path opacity="0.6" d="M49.9812 49.832L50.0258 50.0938L50.0703 50.3555L50.1148 50.6172L50.1594 50.8789L50.2039 51.1406L50.2484 51.4023L50.293 51.6641L50.3375 51.9258L50.382 52.1875L50.4266 52.4492L50.4711 52.7109L50.5156 52.9727L50.5602 53.2344L50.6047 53.4961L50.6492 53.7578L50.6938 54.0195L50.7383 54.2812L50.7828 54.543L50.8273 54.8047L50.8719 55.0664L50.9164 55.3281L50.9609 55.5898L51.0055 55.8516L51.05 56.1133L51.0945 56.375L51.1391 56.6367L51.1836 56.8984L51.2281 57.1602L51.2727 57.4219L51.3172 57.6836L51.3617 57.9453L51.4063 58.207L51.4508 58.4687L51.4953 58.7305L51.5398 58.9922L51.5844 59.2539L51.6289 59.5156L51.6734 59.7773L51.718 60.0391L51.7625 60.3008L51.807 60.5625L51.8516 60.8242L51.8961 61.0859L51.9406 61.3477L51.9852 61.6094L52.0297 61.8711L52.0742 62.1328L52.1187 62.3945L52.1633 62.6562L52.2078 62.918L52.2523 63.1797L52.2969 63.4414L52.3414 63.7031L52.3859 63.9648L52.4305 64.2266L52.475 64.4883L52.5195 64.75L52.5641 65.0117L52.6086 65.2734L52.6531 65.5352L52.6977 65.7969L52.7422 66.0586L52.7867 66.3203L52.8313 66.582L52.8758 66.8437L52.9203 67.1055L52.9648 67.3672L53.0094 67.6289L53.0539 67.8906L53.0984 68.1523L53.143 68.4141L53.1875 68.6758L53.232 68.9375L53.2766 69.1992L53.3211 69.4609L53.3656 69.7227L53.4102 69.9844L53.4547 70.2461L53.4992 70.5078L53.5438 70.7695L53.5883 71.0312L53.6328 71.293L53.6773 71.5547L53.7219 71.8164L53.7664 72.0781L53.8109 72.3398L53.8555 72.6016L53.9 72.8633L53.9445 73.125L53.9891 73.3867L54.0336 73.6484L54.0781 73.9102L54.1227 74.1719L54.1672 74.4336L54.2117 74.6953L54.2562 74.957L54.3008 75.2187L54.3453 75.4805L54.3898 75.7422L54.4344 76.0039L54.332 76.0211L54.2289 76.0383L54.1258 76.0547L54.0227 76.0711L53.9195 76.0867L53.8164 76.1016L53.7133 76.1164L53.6102 76.1305L53.507 76.1445L53.4039 76.1578L53.3008 76.1711L53.1977 76.1836L53.0945 76.1961L52.9914 76.2078L52.8883 76.2195L52.7852 76.2305L52.6812 76.2414L52.5773 76.2516L52.4734 76.2617L52.3695 76.2711L52.2656 76.2805L52.1617 76.2891L52.0578 76.2977L51.9539 76.3055L51.85 76.3133L51.7461 76.3203L51.6422 76.3273L51.5383 76.3336L51.4344 76.3391L51.3305 76.3445L51.2266 76.35L51.1227 76.3547L51.0188 76.3586L50.9148 76.3625L50.8109 76.3656L50.707 76.3687L50.6031 76.3711L50.4992 76.3734L50.3953 76.375L50.2914 76.3766L50.1875 76.3773L50.0836 76.3781H49.8758L49.7719 76.3773L49.668 76.3766L49.5641 76.375L49.4602 76.3734L49.3562 76.3711L49.2523 76.3687L49.1484 76.3656L49.0289 76.3289L48.925 76.325L48.8211 76.3211L48.7172 76.3164L48.6133 76.3109L48.5086 76.3055L48.4047 76.2992L48.3008 76.293L48.1969 76.2859L48.093 76.2789L47.9891 76.2711L47.8852 76.2633L47.7813 76.2547L47.6773 76.2461L47.5734 76.2367L47.4695 76.2273L47.3656 76.2172L47.2617 76.207L47.1578 76.1961L47.0547 76.1844L46.9531 76.1727L46.85 76.1609L46.7469 76.1484L46.6437 76.1352L46.5406 76.1219L46.4375 76.1078L46.3344 76.0938L46.2312 76.0789L46.1281 76.0641L46.025 76.0484L45.9219 76.0328L45.8187 76.0164L45.7156 76L45.6133 75.9828L45.5109 75.9656L45.4086 75.9477L45.3063 75.9297L45.2039 75.9109L45.1016 75.8922L44.9992 75.8727L44.8969 75.8531L44.7945 75.8328L44.6922 75.8125L44.5898 75.7914L44.4883 75.7703L44.3867 75.7484L44.2852 75.7266L44.1836 75.7039L44.082 75.6813L44.1414 75.4227L44.2008 75.1641L44.2602 74.9055L44.3195 74.6469L44.3789 74.3883L44.4383 74.1297L44.4977 73.8711L44.557 73.6125L44.6164 73.3539L44.6758 73.0953L44.7352 72.8367L44.7945 72.5781L44.8539 72.3195L44.9133 72.0609L44.9727 71.8023L45.032 71.5437L45.0914 71.2852L45.1508 71.0266L45.2102 70.768L45.2695 70.5094L45.3289 70.2508L45.3883 69.9922L45.4477 69.7336L45.507 69.475L45.5664 69.2164L45.6258 68.9578L45.6852 68.6992L45.7445 68.4406L45.8039 68.182L45.8633 67.9234L45.9227 67.6648L45.982 67.4062L46.0414 67.1477L46.1008 66.8891L46.1602 66.6305L46.2195 66.3719L46.2789 66.1133L46.3383 65.8547L46.3977 65.5961L46.457 65.3375L46.5164 65.0789L46.5758 64.8203L46.6352 64.5617L46.6945 64.3031L46.7539 64.0445L46.8133 63.7859L46.8727 63.5273L46.932 63.2688L46.9914 63.0102L47.0508 62.7516L47.1102 62.493L47.1695 62.2344L47.2289 61.9758L47.2883 61.7172L47.3477 61.4586L47.407 61.2L47.4664 60.9414L47.5258 60.6828L47.5852 60.4242L47.6445 60.1656L47.7039 59.907L47.7633 59.6484L47.8227 59.3898L47.882 59.1312L47.9414 58.8727L48.0008 58.6141L48.0602 58.3555L48.1195 58.0969L48.1789 57.8383L48.2383 57.5797L48.2977 57.3211L48.357 57.0625L48.4164 56.8039L48.4758 56.5453L48.5352 56.2867L48.5945 56.0281L48.6539 55.7695L48.7133 55.5109L48.7727 55.2523L48.832 54.9937L48.8914 54.7352L48.9508 54.4766L49.0102 54.218L49.0695 53.9594L49.1289 53.7008L49.1883 53.4422L49.2477 53.1836L49.307 52.925L49.3664 52.6664L49.4258 52.4078L49.4852 52.1492L49.5445 51.8906L49.6039 51.632L49.6633 51.3734L49.7227 51.1148L49.782 50.8563L49.8414 50.5977L49.9008 50.3391L49.9602 50.0805L49.9812 49.832Z" fill="#7DFF7A"/>
<path opacity="0.6" d="M49.9805 49.832L50.3148 50.093L50.6492 50.3539L50.9836 50.6148L51.318 50.8758L51.6523 51.1367L51.9867 51.3977L52.3211 51.6586L52.6555 51.9195L52.9898 52.1805L53.3242 52.4414L53.6586 52.7023L53.993 52.9633L54.3273 53.2242L54.6617 53.4852L55 53.743L55.3344 54.0039L55.6687 54.2648L56.0031 54.5258L56.3375 54.7867L56.6719 55.0477L57.0063 55.3086L57.3406 55.5695L57.675 55.8305L58.0094 56.0914L58.3438 56.3523L58.6781 56.6133L59.0125 56.8742L59.3469 57.1352L59.6812 57.3961L60.0156 57.657L60.35 57.918L60.6844 58.1789L61.0187 58.4398L61.3531 58.7008L61.6875 58.9617L62.0219 59.2227L62.3563 59.4836L62.6906 59.7445L63.025 60.0055L63.3594 60.2664L63.6938 60.5273L64.0281 60.7883L64.3625 61.0492L64.6969 61.3102L65.0312 61.5711L65.3656 61.832L65.7 62.093L66.0344 62.3539L66.3688 62.6148L66.7031 62.8758L67.0375 63.1367L67.3719 63.3977L67.7063 63.6586L68.0406 63.9195L68.375 64.1805L68.7094 64.4414L69.0438 64.7023L69.3781 64.9633L69.7125 65.2242L70.0469 65.4852L70.3812 65.7461L70.7156 66.007L71.05 66.268L71.3844 66.5289L71.7188 66.7898L72.0531 67.0508L72.3875 67.3117L72.7219 67.5727L73.0563 67.8336L73.3906 68.0945L73.725 68.3555L74.0594 68.6164L74.3938 68.8773L74.7281 69.1383L75.0625 69.3992L75.3969 69.6602L75.7312 69.9211L76.0656 70.182L76.4 70.443L76.7344 70.7039L77.0688 70.9648L77.4031 71.2258L77.7375 71.4867L78.0719 71.7477L78.4063 72.0086L78.7406 72.2695L79.075 72.5305L79.4094 72.7914L79.7438 73.0523L80.0781 73.3133L80.4125 73.5742L80.7469 73.8352L81.0812 74.0961L81.4156 74.357L81.75 74.618L82.0844 74.8789L82.4188 75.1398L82.7531 75.4008L83.0875 75.6617L83.4219 75.9227L83.3602 76.0016L83.2984 76.0805L83.2367 76.1586L83.175 76.2367L83.1125 76.3148L83.05 76.393L82.9875 76.4711L82.925 76.5492L82.8617 76.6266L82.7984 76.7039L82.7352 76.7812L82.6719 76.8586L82.6078 76.9359L82.5437 77.0125L82.4797 77.0891L82.4156 77.1656L82.3508 77.2422L82.2859 77.3188L82.2211 77.3945L82.1563 77.4703L82.0914 77.5461L82.0258 77.6219L81.9602 77.6977L81.8945 77.7727L81.8289 77.8477L81.7625 77.9227L81.6961 77.9977L81.6297 78.0727L81.5633 78.1469L81.4969 78.2211L81.4297 78.2953L81.3625 78.3695L81.2953 78.4437L81.2281 78.5172L81.1602 78.5906L81.0922 78.6641L81.0242 78.7375L80.9563 78.8109L80.8883 78.8836L80.8195 78.9563L80.7508 79.0289L80.682 79.1016L80.6133 79.1742L80.5438 79.2461L80.4742 79.318L80.4047 79.3898L80.3352 79.4617L80.2656 79.5336L80.1953 79.6047L80.125 79.6758L80.0547 79.7469L79.9844 79.818L79.9141 79.8883L79.843 79.9586L79.7719 80.0289L79.7008 80.0992L79.6297 80.1695L79.5578 80.2391L79.4859 80.3086L79.4141 80.3781L79.3422 80.4477L79.2703 80.5172L79.1977 80.5859L79.125 80.6547L79.0523 80.7234L78.9797 80.7922L78.907 80.8602L78.8336 80.9281L78.7602 80.9961L78.6867 81.0641L78.6133 81.132L78.5398 81.1992L78.4867 81.2508L78.4125 81.318L78.3383 81.3852L78.2641 81.4516L78.1898 81.518L78.1148 81.5844L78.0398 81.6508L77.9648 81.7164L77.8898 81.782L77.8148 81.8477L77.7391 81.9133L77.6633 81.9789L77.5875 82.0437L77.5117 82.1086L77.4359 82.1734L77.3594 82.2383L77.2828 82.3023L77.2062 82.3664L77.1297 82.4305L77.0531 82.4945L76.9758 82.5586L76.8984 82.6219L76.8211 82.6852L76.7438 82.7484L76.6664 82.8117L76.5883 82.8742L76.5102 82.9367L76.432 82.9992L76.1672 82.6672L75.9031 82.3359L75.6383 82.0039L75.3734 81.6719L75.1086 81.3398L74.8438 81.0078L74.5789 80.6758L74.3141 80.3437L74.0492 80.0117L73.7844 79.6797L73.5195 79.3477L73.2547 79.0156L72.9898 78.6836L72.725 78.3516L72.4602 78.0195L72.1953 77.6875L71.9305 77.3555L71.6656 77.0234L71.4008 76.6914L71.1359 76.3594L70.8711 76.0273L70.6063 75.6953L70.3414 75.3633L70.0766 75.0313L69.8117 74.6992L69.5539 74.3758L69.2891 74.0438L69.0242 73.7117L68.7594 73.3797L68.4945 73.0477L68.2297 72.7156L67.9648 72.3836L67.7 72.0516L67.4352 71.7195L67.1703 71.3875L66.9055 71.0555L66.6406 70.7234L66.3758 70.3914L66.1109 70.0594L65.8461 69.7273L65.5813 69.3953L65.3164 69.0633L65.0516 68.7312L64.7867 68.3992L64.5219 68.0672L64.257 67.7352L63.9922 67.4031L63.7273 67.0711L63.4625 66.7391L63.1977 66.407L62.9328 66.075L62.668 65.743L62.4031 65.4109L62.1383 65.0789L61.8734 64.7469L61.6086 64.4148L61.3437 64.0828L61.0789 63.7508L60.8141 63.4188L60.5492 63.0867L60.2844 62.7547L60.0195 62.4227L59.7547 62.0906L59.4898 61.7586L59.225 61.4266L58.9602 61.0945L58.6953 60.7625L58.4305 60.4305L58.1656 60.0984L57.9008 59.7664L57.6359 59.4344L57.3711 59.1023L57.1063 58.7703L56.8414 58.4383L56.5766 58.1062L56.3117 57.7742L56.0469 57.4422L55.782 57.1102L55.5172 56.7781L55.2523 56.4461L54.9875 56.1141L54.7227 55.782L54.4578 55.45L54.193 55.118L53.9281 54.7859L53.6633 54.4539L53.3984 54.1219L53.1336 53.7898L52.8687 53.4578L52.6039 53.1258L52.3391 52.7937L52.0742 52.4617L51.8094 52.1297L51.5445 51.7977L51.2797 51.4656L51.0148 51.1336L50.75 50.8016L50.4852 50.4695L50.2203 50.1375L49.9805 49.832Z" fill="#FF6800"/>
<path d="M60.5859 50.1554L49.9796 50.1546C49.9033 50.1537 49.8298 50.1258 49.7721 50.0759C49.7144 50.026 49.6761 49.9573 49.6642 49.8819C49.6522 49.8066 49.6673 49.7294 49.7067 49.6641C49.7461 49.5987 49.8074 49.5495 49.8796 49.5249L59.9671 46.2484C60.0075 46.2352 60.05 46.2301 60.0923 46.2334C60.1345 46.2367 60.1758 46.2483 60.2136 46.2675C60.2514 46.2867 60.285 46.3132 60.3126 46.3455C60.3401 46.3777 60.3611 46.4151 60.3742 46.4554C60.7296 47.5476 60.9093 48.6843 60.9085 49.8327C60.9085 49.8751 60.9002 49.9171 60.884 49.9562C60.8678 49.9954 60.844 50.0309 60.814 50.0609C60.7841 50.0909 60.7485 50.1146 60.7094 50.1308C60.6702 50.1471 60.6283 50.1554 60.5859 50.1554ZM52.0195 49.5085H60.2578C60.231 48.6465 60.0956 47.7913 59.8546 46.9632L52.0195 49.5085Z" fill="#2C2C2C"/>
<path d="M49.9788 50.1548C49.9267 50.1547 49.8754 50.1419 49.8293 50.1177C49.7832 50.0935 49.7436 50.0585 49.7139 50.0157C49.6842 49.9729 49.6653 49.9235 49.6588 49.8719C49.6523 49.8202 49.6583 49.7677 49.6764 49.7189L60.8569 19.9306C60.8717 19.8908 60.8942 19.8543 60.9231 19.8233C60.952 19.7922 60.9868 19.7672 61.0254 19.7496C61.064 19.732 61.1057 19.7223 61.1482 19.7209C61.1906 19.7195 61.2328 19.7265 61.2725 19.7415C64.4312 20.9246 67.3832 22.5991 70.0194 24.7032C70.0863 24.7567 70.1294 24.8344 70.139 24.9195C70.1487 25.0046 70.1242 25.0901 70.071 25.1571L50.2311 50.0329C50.2009 50.0708 50.1625 50.1014 50.1188 50.1225C50.0751 50.1436 50.0273 50.1546 49.9788 50.1548ZM61.3475 20.461L50.9983 48.0353L69.3632 25.0079C66.9296 23.1061 64.2286 21.5739 61.3475 20.461Z" fill="#2C2C2C"/>
<path d="M49.9802 50.1541C49.933 50.154 49.8864 50.1436 49.8436 50.1236C49.8008 50.1036 49.7629 50.0746 49.7325 50.0384L22.5443 17.472C22.517 17.4396 22.4963 17.402 22.4836 17.3615C22.4709 17.3211 22.4663 17.2785 22.47 17.2362C22.4738 17.194 22.4859 17.1529 22.5056 17.1153C22.5253 17.0778 22.5523 17.0445 22.5849 17.0173C27.7647 12.6955 33.8928 9.65933 40.4693 8.1564C40.5529 8.1375 40.6406 8.15255 40.7131 8.19826C40.7856 8.24396 40.837 8.31658 40.856 8.40015L50.2958 49.7603C50.3118 49.8311 50.3036 49.9053 50.2724 49.9709C50.2412 50.0365 50.189 50.0897 50.1239 50.122C50.0789 50.1429 50.0299 50.1538 49.9802 50.1541ZM23.2474 17.3064L49.3654 48.5908L40.2974 8.85875C34.0446 10.3386 28.2128 13.2281 23.2474 17.3064Z" fill="#2C2C2C"/>
<path d="M13.458 56.7815C13.3825 56.7814 13.3094 56.7549 13.2515 56.7065C13.1935 56.6581 13.1544 56.5909 13.1408 56.5167C11.7244 48.7948 12.8275 40.6503 16.2479 33.5831C16.2851 33.506 16.3515 33.4468 16.4323 33.4185C16.5132 33.3902 16.6019 33.3952 16.6791 33.4323L50.1229 49.5378C50.1847 49.5671 50.2357 49.6154 50.2683 49.6756C50.3009 49.7358 50.3135 49.8049 50.3043 49.8727C50.2951 49.9406 50.2645 50.0038 50.217 50.0531C50.1695 50.1024 50.1075 50.1354 50.0401 50.1471L13.5166 56.776C13.4974 56.7802 13.4777 56.782 13.458 56.7815ZM16.6893 34.1565C13.4838 40.9362 12.433 48.6956 13.7197 56.0838L48.9463 49.6909L16.6893 34.1565Z" fill="#2C2C2C"/>
<path d="M32.5462 62.2337C32.4939 62.2335 32.4425 62.2207 32.3962 62.1965C32.3498 62.1723 32.3099 62.1374 32.2798 62.0947C31.6376 61.1671 31.0689 60.1907 30.579 59.1744C30.5606 59.1362 30.5498 59.0947 30.5474 59.0523C30.545 59.0099 30.5509 58.9675 30.565 58.9275C30.579 58.8874 30.6007 58.8505 30.629 58.8189C30.6573 58.7872 30.6916 58.7615 30.7298 58.7431L49.8407 49.54C49.9143 49.5019 49.9996 49.4936 50.0792 49.5168C50.1587 49.5399 50.2262 49.5927 50.2679 49.6643C50.3095 49.7358 50.3221 49.8207 50.3029 49.9012C50.2838 49.9818 50.2344 50.0519 50.165 50.097L32.7306 62.1767C32.6764 62.214 32.612 62.2339 32.5462 62.2337ZM31.304 59.1837C31.6982 59.9692 32.141 60.7292 32.6298 61.4595L46.4236 51.9033L31.304 59.1837Z" fill="#2C2C2C"/>
<path d="M49.9932 76.6651C47.9776 76.6651 45.958 76.4409 44.0088 75.9955C43.9253 75.9762 43.8529 75.9246 43.8073 75.8519C43.7618 75.7793 43.7469 75.6916 43.7658 75.608L49.6658 49.758C49.7002 49.608 49.8401 49.4815 49.9901 49.5073C50.0648 49.5091 50.1366 49.537 50.193 49.586C50.2495 49.6351 50.2871 49.7023 50.2994 49.776L54.7408 75.9166C54.7551 76.0012 54.7352 76.0879 54.6855 76.1578C54.6359 76.2277 54.5605 76.275 54.476 76.2893C52.9949 76.5403 51.4954 76.6661 49.9932 76.6651ZM44.4682 75.4354C47.5932 76.1073 50.89 76.201 54.0494 75.7041L49.9346 51.4862L44.4682 75.4354Z" fill="#2C2C2C"/>
<path d="M76.4321 83.3215C76.3835 83.3216 76.3354 83.3106 76.2916 83.2895C76.2478 83.2684 76.2093 83.2377 76.179 83.1996L49.7282 50.0316C49.6782 49.9699 49.6527 49.892 49.6566 49.8126C49.6605 49.7333 49.6936 49.6582 49.7494 49.6017C49.8052 49.5453 49.8799 49.5113 49.9592 49.5065C50.0384 49.5016 50.1167 49.5261 50.179 49.5754L83.6423 75.6527C83.7099 75.7055 83.7538 75.7829 83.7644 75.868C83.7749 75.9532 83.7513 76.039 83.6985 76.1066C81.6323 78.7581 79.2604 81.1564 76.6321 83.252C76.5753 83.2972 76.5048 83.3217 76.4321 83.3215ZM51.936 51.7637L76.4829 82.5441C78.8867 80.596 81.0689 78.3892 82.9899 75.9637L51.936 51.7637Z" fill="#2C2C2C"/>
</svg>
