<svg width="100" height="100" viewBox="0 0 100 100" fill="none" xmlns="http://www.w3.org/2000/svg">
<g clip-path="url(#clip0_280_5251)">
<path d="M3.29167 29.666H96.7083C98.525 29.666 100 31.1452 100 32.966V67.0327C100 68.8493 98.525 70.3244 96.7083 70.3244H3.29167C2.41867 70.3244 1.58142 69.9776 0.964109 69.3602C0.346802 68.7429 2.63737e-06 67.9057 2.63737e-06 67.0327V32.966C-0.000544981 32.5334 0.0841924 32.1049 0.249369 31.7051C0.414545 31.3052 0.656921 30.9419 0.962635 30.6358C1.26835 30.3297 1.6314 30.0868 2.03104 29.9211C2.43067 29.7555 2.85905 29.666 3.29167 29.666ZM13.7375 61.3535V48.3452L21.6125 56.2202L29.6667 48.166V61.1744H34.0625V37.5494L21.6042 50.0077L9.33334 37.7327V61.3577H13.7292L13.7375 61.3535ZM48.9042 53.666L42.7625 47.5285L39.6542 50.6369L51.1 62.0827L62.5375 50.6369L59.4292 47.5285L53.2917 53.666V36.9994H48.9V53.666H48.9042ZM90.7417 57.7785L81.6792 48.716L90.9292 39.466L87.8208 36.3577L78.5708 45.6077L69.3208 36.3577L66.2083 39.466L75.4583 48.716L66.3917 57.7869L69.5 60.8952L78.5708 51.8243L87.6375 60.8869L90.7417 57.7785Z" fill="black"/>
</g>
<defs>
<clipPath id="clip0_280_5251">
<rect width="100" height="100" fill="white"/>
</clipPath>
</defs>
</svg>
