<svg width="100" height="100" viewBox="0 0 100 100" fill="none" xmlns="http://www.w3.org/2000/svg">
<path d="M19.1406 39.4531C17.9688 39.4531 17.1875 40.3906 17.1875 41.5625V52.5781L4.76562 40.0781C4.14062 39.4531 3.04688 39.2969 2.26563 39.6094C1.48438 39.9219 0.78125 40.7031 0.78125 41.5625V57.7344C0.78125 58.9063 1.95312 59.8437 3.125 59.8437C4.29688 59.8437 5.46875 58.9063 5.46875 57.7344V46.7187L18.0469 59.2188C18.4375 59.6094 18.9844 59.8437 19.5312 59.8437C19.7656 59.8437 19.8438 59.7656 20.0781 59.6875C20.8594 59.375 21.0938 58.5938 21.0938 57.7344V41.6406C21.0938 40.4687 20.3125 39.4531 19.1406 39.4531ZM34.5313 48.6719C33.4375 48.6719 32.4219 49.7656 32.4219 50.8594C32.4219 51.9531 33.4375 53.0469 34.5313 53.0469L39.6875 53.3594L38.5156 56.25H31.875L28.5937 50.0781L31.9531 43.75H39.0625L40.7031 46.875H45L42.1875 40.7031L41.5625 39.8438H29.375L28.8281 40.7813L24.2188 48.8281L23.6719 49.8437L24.2188 50.8594L28.75 58.9063L29.375 60.1562H41.1719L41.7188 58.8281L45.0781 51.7969L46.5625 48.4375H43.125L34.5313 48.6719ZM50.7812 39.4531C49.6875 39.4531 48.4375 40.4688 48.4375 41.5625V46.875H53.125V41.6406C53.125 40.4687 51.875 39.4531 50.7812 39.4531ZM74.5313 39.6875C73.75 39.375 72.6563 39.5313 72.1094 40.1563L59.375 52.6563V41.6406C59.375 40.4687 58.5938 39.5312 57.4219 39.5312C56.25 39.5312 55.4688 40.4687 55.4688 41.6406V57.8125C55.4688 58.6719 56.0156 59.4531 56.7969 59.7656C57.0312 59.8438 57.3437 59.9219 57.5781 59.9219C58.125 59.9219 58.8281 59.6875 59.2188 59.2969L71.875 46.7969V57.8125C71.875 58.9844 72.6562 59.9219 73.8281 59.9219C75 59.9219 75.7812 58.9844 75.7812 57.8125V41.6406C75.7812 40.7812 75.3125 40 74.5313 39.6875ZM91.5625 49.6875L98.125 43.125C98.9844 42.2656 98.9844 40.9375 98.125 40.1563C97.2656 39.2969 95.9375 39.2969 95.1563 40.1563L88.5938 46.7187L82.0312 40.1563C81.1719 39.2969 79.8437 39.2969 79.0625 40.1563C78.2031 41.0156 78.2031 42.3438 79.0625 43.125L85.625 49.6875L79.0625 56.25C78.2031 57.1094 78.2031 58.4375 79.0625 59.2188C79.4531 59.6094 80 59.8437 80.5469 59.8437C81.0937 59.8437 81.6406 59.6094 82.0312 59.2188L88.5938 52.6563L95.1563 59.2188C95.5469 59.6094 96.0937 59.8437 96.6406 59.8437C97.1875 59.8437 97.7344 59.6094 98.125 59.2188C98.9844 58.3594 98.9844 57.0312 98.125 56.25L91.5625 49.6875ZM48.4375 57.7344C48.4375 58.8281 49.6094 59.8437 50.7812 59.8437C51.875 59.8437 53.125 58.8281 53.125 57.7344V48.4375H48.4375V57.7344Z" fill="#009900"/>
</svg>
