<svg width="100" height="100" viewBox="0 0 100 100" fill="none" xmlns="http://www.w3.org/2000/svg">
<path d="M88.1023 23.6977L53.6516 3.69375C51.4789 2.45625 48.65 2.45625 46.4602 3.69375L11.6414 23.6977C9.39922 24.9875 7.8125 27.4117 7.8125 30.0047V69.9594C7.8125 72.5523 9.44063 74.9773 11.6828 76.2742L20.882 81.4992C25.2789 83.6648 26.8328 83.6648 28.8336 83.6648C35.3438 83.6648 39.0625 79.7281 39.0625 72.8617V33.4164C39.0625 32.8594 38.7727 32.0305 38.2258 32.0305H33.8328C33.2766 32.0305 32.0312 32.8594 32.0312 33.4156V72.8609C32.0312 75.9047 29.2781 78.9336 24.1328 76.3609L14.6273 70.882C14.2961 70.7023 14.0625 70.3406 14.0625 69.9594V30.0047C14.0625 29.6281 14.4961 29.25 14.8297 29.057L49.5359 9.0875C49.8602 8.90391 50.3367 8.90391 50.6602 9.0875L84.943 29.0523C85.2711 29.25 85.1555 29.6164 85.1555 30.0047V69.9594C85.1555 70.3406 85.2984 70.7117 84.9742 70.8953L50.532 90.8766C50.2367 91.0539 49.8703 91.0539 49.5469 90.8766L40.7133 85.6039C40.4469 85.4492 40.1305 85.3937 39.875 85.5367C37.4172 86.9297 36.9641 87.1148 34.6586 87.9141C34.0914 88.1117 33.2547 88.4547 34.9789 89.4211L46.5398 96.2602C47.6436 96.8977 48.8957 97.2334 50.1703 97.2336C51.4531 97.2336 52.7094 96.9008 53.8164 96.2602L88.1016 76.2742C90.3437 74.968 91.4062 72.5523 91.4062 69.9594V30.0047C91.4062 27.4117 90.3438 24.9937 88.1023 23.6977ZM60.8672 63.6281C51.7063 63.6281 49.6883 61.1008 49.0156 56.5453C48.9375 56.0547 48.5211 55.468 48.0219 55.468H43.5445C42.9906 55.468 42.5453 56.1398 42.5453 56.6914C42.5453 62.5242 45.7164 69.5914 60.868 69.5914C71.8359 69.5914 78.1242 65.3297 78.1242 57.7875C78.1242 50.3094 73.0719 48.3469 62.4352 46.9391C51.6836 45.518 50.5914 44.8 50.5914 42.2812C50.5914 40.2047 51.5164 37.4352 59.4773 37.4352C66.5906 37.4352 69.2125 38.9617 70.2914 43.7562C70.3836 44.207 70.7953 44.5305 71.2602 44.5305H75.7555C76.032 44.5305 76.2961 44.4187 76.4898 44.2211C76.6773 44.0086 76.7766 43.7422 76.7516 43.4562C76.0555 35.2 70.5703 31.3523 59.4766 31.3523C49.6086 31.3523 43.7219 35.5195 43.7219 42.5047C43.7219 50.0813 49.5789 52.175 59.0516 53.1117C70.3836 54.2227 71.2648 55.8789 71.2648 58.1078C71.2648 61.9789 68.157 63.6281 60.8672 63.6281Z" fill="#83CD29"/>
</svg>
