<svg width="85" height="100" viewBox="0 0 85 100" fill="none" xmlns="http://www.w3.org/2000/svg">
<g clip-path="url(#clip0_280_5259)">
<path d="M5.28425 42.7047C21.6753 40.0138 34.5272 27.162 37.2181 10.771L38.5394 2.79567C38.7838 1.24627 37.5281 -0.107421 35.9622 0.00673533C23.4856 0.968985 11.7265 5.11159 5.21903 7.77003C2.07132 9.0585 0 12.1247 0 15.5497V40.7475C0 42.2319 1.3211 43.3572 2.78895 43.1125L5.28425 42.7047Z" fill="#E6E6E6"/>
<path d="M45.1051 10.771C47.7963 27.1621 60.6482 40.0141 77.0391 42.705L79.5344 43.1128C81.0022 43.3575 82.3232 42.2322 82.3232 40.7478V15.5497C82.3232 12.141 80.2519 9.07479 77.1041 7.77004C70.6132 5.09528 58.8375 0.968985 46.361 0.00673533C44.7954 -0.107421 43.5232 1.24627 43.7841 2.79567L45.1051 10.771Z" fill="#E6E6E6"/>
<path d="M77.0552 50.6259C60.6642 53.3168 47.8123 66.1687 45.1211 82.5596L43.4901 98.119C43.3436 99.5215 44.893 100.517 46.0673 99.7337C46.0673 99.7337 46.0836 99.7337 46.0998 99.7175C56.3748 92.7859 79.8277 74.6334 82.1436 51.9634C82.258 50.8543 81.263 49.9409 80.1702 50.1203L77.0714 50.6259H77.0552Z" fill="#E6E6E6"/>
<path d="M37.2182 82.5464C34.5272 66.1555 21.6752 53.3036 5.2842 50.6124L1.94078 50.058C0.962208 49.8949 0.0814714 50.7102 0.179328 51.7052C2.38111 74.5058 26.1603 92.7724 36.5169 99.7039C37.5935 100.421 39.0122 99.557 38.8819 98.2686L37.2347 82.5302L37.2182 82.5464Z" fill="#E6E6E6"/>
</g>
<defs>
<clipPath id="clip0_280_5259">
<rect width="84.375" height="100" fill="white"/>
</clipPath>
</defs>
</svg>
