<svg width="27" height="32" viewBox="0 0 27 32" fill="#e6e6e6" xmlns="http://www.w3.org/2000/svg">
    <path
        d="M1.69096 13.6655C6.93608 12.8044 11.0487 8.69184 11.9098 3.44672L12.3326 0.894615C12.4108 0.398805 12.009 -0.0343747 11.5079 0.0021553C7.51539 0.310075 3.75249 1.63571 1.67009 2.48641C0.662823 2.89872 0 3.8799 0 4.97589V13.0392C0 13.5142 0.422753 13.8743 0.892465 13.796L1.69096 13.6655Z"
 />
    <path
        d="M14.4336 3.44672C15.2948 8.69186 19.4074 12.8045 24.6525 13.6656L25.451 13.7961C25.9207 13.8744 26.3434 13.5143 26.3434 13.0393V4.97589C26.3434 3.88511 25.6806 2.90393 24.6733 2.48641C22.5962 1.63049 18.828 0.310075 14.8355 0.0021553C14.3345 -0.0343747 13.9274 0.398805 14.0109 0.894615L14.4336 3.44672Z"
 />
    <path
        d="M24.658 16.2003C19.4129 17.0614 15.3003 21.174 14.4391 26.4191L13.9172 31.3981C13.8703 31.8469 14.3661 32.1653 14.7419 31.9148C14.7419 31.9148 14.7471 31.9148 14.7523 31.9096C18.0403 29.6915 25.5452 23.8827 26.2863 16.6283C26.3229 16.2734 26.0045 15.9811 25.6548 16.0385L24.6632 16.2003H24.658Z"
 />
    <path
        d="M11.9095 26.4147C11.0484 21.1696 6.93575 17.057 1.69063 16.1958L0.620736 16.0184C0.307594 15.9662 0.0257584 16.2271 0.0570725 16.5455C0.761641 23.8417 8.37099 29.687 11.6851 31.9051C12.0296 32.1347 12.4836 31.8581 12.4419 31.4458L11.9148 26.4095L11.9095 26.4147Z"
 />
</svg>