<svg width="100" height="100" viewBox="0 0 100 100" fill="none" xmlns="http://www.w3.org/2000/svg">
<path d="M49.5224 9.56898C46.224 9.58461 43.0755 9.86507 40.3037 10.3557C32.1396 11.7979 30.6584 14.8166 30.6584 20.3846V27.7369H49.9498V30.1877H23.4177C17.8115 30.1877 12.9021 33.5573 11.3662 39.9698C9.5943 47.3174 9.51617 51.9034 11.3662 59.576C12.7373 65.2877 16.0123 69.3565 21.6193 69.3565H28.2529V60.5424C28.2529 54.1744 33.7615 48.558 40.3045 48.558H59.574C64.9381 48.558 69.2193 44.1409 69.2193 38.7549V20.3854C69.2193 15.1565 64.8084 11.2291 59.574 10.3565C56.2584 9.80492 52.8201 9.55414 49.5224 9.56898ZM39.0896 15.4823C41.0818 15.4823 42.7099 17.1362 42.7099 19.1705C42.7099 21.1963 41.0826 22.8346 39.0896 22.8346C37.0896 22.8346 35.4701 21.1963 35.4701 19.1705C35.4693 17.1362 37.0896 15.4823 39.0896 15.4823Z" fill="url(#paint0_linear_280_5264)"/>
<path d="M71.6266 30.1883V38.7555C71.6266 45.3961 65.9953 50.9859 59.575 50.9859H40.3055C35.0273 50.9859 30.6602 55.5039 30.6602 60.7898V79.1609C30.6602 84.3883 35.2055 87.4641 40.3055 88.9633C46.4117 90.7578 52.268 91.0828 59.575 88.9633C64.4312 87.5563 69.2203 84.7266 69.2203 79.1609V71.8078H49.9516V69.3563H78.8672C84.4734 69.3563 86.5641 65.4461 88.5141 59.5758C90.5281 53.5328 90.4414 47.7211 88.5141 39.9695C87.1281 34.3875 84.482 30.1875 78.8672 30.1875L71.6266 30.1883ZM60.7883 76.7094C62.7891 76.7094 64.4086 78.3477 64.4086 80.375C64.4086 82.4078 62.7883 84.0617 60.7883 84.0617C58.7961 84.0617 57.1688 82.4078 57.1688 80.375C57.1688 78.3477 58.7961 76.7094 60.7883 76.7094Z" fill="url(#paint1_linear_280_5264)"/>
<path opacity="0.444" d="M76.0219 93.4352C76.0219 96.2031 64.4469 98.4477 50.1695 98.4477C35.8914 98.4477 24.3164 96.2031 24.3164 93.4352C24.3164 90.6664 35.8906 88.4219 50.1695 88.4219C64.4469 88.4219 76.0219 90.6656 76.0219 93.4352Z" fill="url(#paint2_radial_280_5264)"/>
<defs>
<linearGradient id="paint0_linear_280_5264" x1="8.07389" y1="11.8679" x2="52.569" y2="49.8131" gradientUnits="userSpaceOnUse">
<stop stop-color="#5A9FD4"/>
<stop offset="1" stop-color="#306998"/>
</linearGradient>
<linearGradient id="paint1_linear_280_5264" x1="69.3116" y1="73.4011" x2="53.3549" y2="51.0244" gradientUnits="userSpaceOnUse">
<stop stop-color="#FFD43B"/>
<stop offset="1" stop-color="#FFE873"/>
</linearGradient>
<radialGradient id="paint2_radial_280_5264" cx="0" cy="0" r="1" gradientUnits="userSpaceOnUse" gradientTransform="translate(50.065 93.2916) rotate(-90) scale(5.01431 22.0421)">
<stop stop-color="#B8B8B8" stop-opacity="0.498"/>
<stop offset="1" stop-color="#7F7F7F" stop-opacity="0"/>
</radialGradient>
</defs>
</svg>
