<svg width="100" height="100" viewBox="0 0 100 100" fill="none" xmlns="http://www.w3.org/2000/svg">
<path d="M50 58.9063C54.9188 58.9063 58.9063 54.9188 58.9063 50C58.9063 45.0812 54.9188 41.0938 50 41.0938C45.0812 41.0938 41.0938 45.0812 41.0938 50C41.0938 54.9188 45.0812 58.9063 50 58.9063Z" fill="#61DAFB"/>
<path d="M83.8281 35.3125C82.1094 34.6875 80.3125 34.0625 78.4375 33.5156C78.9063 31.6406 79.2969 29.7656 79.6094 27.9687C81.25 17.6562 79.4531 10.3906 74.4531 7.57812C72.9688 6.71875 71.3281 6.32812 69.4531 6.32812C63.9844 6.32812 57.0312 10.3906 50 17.1875C42.9687 10.3906 36.0156 6.32812 30.5469 6.32812C28.6719 6.32812 27.0313 6.71875 25.5469 7.57812C20.5469 10.4687 18.75 17.7344 20.3906 27.9687C20.7031 29.7656 21.0938 31.6406 21.5625 33.5156C19.6875 34.0625 17.8906 34.6094 16.1719 35.3125C6.40625 39.0625 1.09375 44.2188 1.09375 50C1.09375 55.7813 6.48438 60.9375 16.1719 64.6875C17.8906 65.3125 19.6875 65.9375 21.5625 66.4844C21.0938 68.3594 20.7031 70.2344 20.3906 72.0312C18.75 82.3437 20.5469 89.6094 25.5469 92.4219C27.0313 93.2813 28.6719 93.6719 30.5469 93.6719C36.0937 93.6719 43.0469 89.6094 50 82.8125C57.0312 89.6094 63.9844 93.6719 69.4531 93.6719C71.3281 93.6719 72.9688 93.2813 74.4531 92.4219C79.4531 89.5313 81.25 82.2656 79.6094 72.0312C79.2969 70.2344 78.9063 68.3594 78.4375 66.4844C80.3125 65.9375 82.1094 65.3906 83.8281 64.6875C93.5938 60.9375 98.9062 55.7813 98.9062 50C98.9062 44.2188 93.5938 39.0625 83.8281 35.3125ZM72.2656 11.4844C75.4687 13.3594 76.5625 19.1406 75.2344 27.3437C75 28.9844 74.6094 30.7031 74.1406 32.5C70.0781 31.5625 65.7813 30.9375 61.25 30.5469C58.5937 26.7969 55.8594 23.4375 53.125 20.3906C58.9062 14.6875 64.7656 10.7812 69.5312 10.7812C70.5469 10.7812 71.4844 11.0156 72.2656 11.4844ZM63.5156 57.8125C62.1094 60.3125 60.4687 62.8125 58.75 65.3125C55.8594 65.5469 52.9687 65.625 50 65.625C46.9531 65.625 44.0625 65.5469 41.25 65.3125C39.5312 62.8125 37.9687 60.3125 36.5625 57.8125C35.0781 55.2344 33.6719 52.5781 32.4219 50C33.6719 47.4219 35.0781 44.7656 36.5625 42.1875C37.9687 39.6875 39.6094 37.1875 41.3281 34.6875C44.2188 34.4531 47.1094 34.375 50.0781 34.375C53.125 34.375 56.0156 34.4531 58.8281 34.6875C60.5469 37.1875 62.1094 39.6875 63.5156 42.1875C65 44.7656 66.4062 47.4219 67.6562 50C66.3281 52.5781 65 55.1563 63.5156 57.8125ZM70 55.2344C71.1719 57.9687 72.1094 60.625 72.9688 63.2813C70.3125 63.9063 67.5 64.375 64.5312 64.7656C65.4687 63.2813 66.4844 61.7188 67.3437 60.0781C68.2812 58.4375 69.1406 56.7969 70 55.2344ZM50 76.4063C48.125 74.375 46.3281 72.1875 44.6094 69.9219C46.4062 70 48.2031 70.0781 50 70.0781C51.7969 70.0781 53.5938 70 55.3906 69.9219C53.6719 72.1875 51.875 74.375 50 76.4063ZM35.4688 64.6875C32.5 64.2969 29.6875 63.8281 27.0312 63.2031C27.8906 60.625 28.8281 57.8906 30 55.1562C30.8594 56.7188 31.7187 58.3594 32.6562 59.9219C33.5937 61.6406 34.5312 63.125 35.4688 64.6875ZM30 44.7656C28.8281 42.0312 27.8906 39.375 27.0312 36.7188C29.6875 36.0938 32.5 35.625 35.4688 35.2344C34.5312 36.7187 33.5156 38.2813 32.6562 39.9219C31.7187 41.5625 30.8594 43.2031 30 44.7656ZM50 23.5938C51.875 25.625 53.6719 27.8125 55.3906 30.0781C53.5938 30 51.7969 29.9219 50 29.9219C48.2031 29.9219 46.4062 30 44.6094 30.0781C46.3281 27.8125 48.125 25.625 50 23.5938ZM67.3437 40L64.5312 35.3125C67.5 35.7031 70.3125 36.1719 72.9688 36.7969C72.1094 39.375 71.1719 42.1094 70 44.8438C69.1406 43.2031 68.2812 41.5625 67.3437 40ZM24.7656 27.3437C23.4375 19.1406 24.5312 13.3594 27.7344 11.4844C28.5156 11.0156 29.4531 10.7812 30.4687 10.7812C35.1562 10.7812 41.0156 14.6094 46.875 20.3906C44.1406 23.3594 41.4062 26.7969 38.75 30.5469C34.2187 30.9375 29.9219 31.6406 25.8594 32.5C25.3906 30.7031 25.0781 28.9844 24.7656 27.3437ZM5.46875 50C5.46875 46.3281 9.92188 42.4219 17.7344 39.5312C19.2969 38.9062 21.0156 38.3594 22.7344 37.8906C23.9844 41.7969 25.5469 45.9375 27.4219 50.0781C25.5469 54.2188 23.9063 58.2812 22.7344 62.1875C11.9531 59.0625 5.46875 54.375 5.46875 50ZM27.7344 88.5156C24.5312 86.6406 23.4375 80.8594 24.7656 72.6563C25 71.0156 25.3906 69.2969 25.8594 67.5C29.9219 68.4375 34.2187 69.0625 38.75 69.4531C41.4062 73.2031 44.1406 76.5625 46.875 79.6094C41.0937 85.3125 35.2344 89.2187 30.4687 89.2187C29.4531 89.2187 28.5156 88.9844 27.7344 88.5156ZM75.2344 72.6563C76.5625 80.8594 75.4687 86.6406 72.2656 88.5156C71.4844 88.9844 70.5469 89.2187 69.5312 89.2187C64.8437 89.2187 58.9844 85.3906 53.125 79.6094C55.8594 76.6406 58.5937 73.2031 61.25 69.4531C65.7813 69.0625 70.0781 68.3594 74.1406 67.5C74.6094 69.2969 74.9219 71.0156 75.2344 72.6563ZM82.2656 60.4688C80.7031 61.0938 78.9844 61.6406 77.2656 62.1094C76.0156 58.2031 74.4531 54.0625 72.5781 49.9219C74.4531 45.7813 76.0938 41.7188 77.2656 37.8125C88.0469 40.9375 94.5312 45.625 94.5312 50C94.5312 53.6719 90 57.5781 82.2656 60.4688Z" fill="#61DAFB"/>
</svg>
