<svg width="100" height="100" viewBox="0 0 100 100" fill="none" xmlns="http://www.w3.org/2000/svg">
<g clip-path="url(#clip0_280_5280)">
<path d="M71.7941 1.28125H28.2043C13.3351 1.28125 1.28125 13.3351 1.28125 28.2043V71.7941C1.28125 86.6633 13.3351 98.7171 28.2043 98.7171H71.7941C86.6633 98.7171 98.7171 86.6633 98.7171 71.7941V28.2043C98.7171 13.3351 86.6633 1.28125 71.7941 1.28125Z" stroke="#FDFDFD" stroke-opacity="0.1" stroke-width="2"/>
<path d="M55.1506 26.9238C64.0896 26.9238 69.4057 32.2401 69.4057 39.2973C69.4057 46.3543 64.0896 51.6706 55.1506 51.6706H50.6338L73.0757 73.0777H57.2205L40.1421 56.8461C38.9191 55.717 38.3544 54.3997 38.3544 53.2707C38.3544 51.6711 39.4839 50.2597 41.648 49.6481L50.4456 47.2952C53.786 46.4014 56.0914 43.8137 56.0914 40.4263C56.0914 36.2863 52.7037 33.8869 48.5165 33.8869H26.9219V26.9238H55.1506Z" fill="url(#paint0_linear_280_5280)"/>
<path d="M69.4086 39.2961C69.4084 32.2389 64.0923 26.9226 55.1533 26.9226V26.3457C59.7366 26.3457 63.4475 27.7101 66.0196 30.0348C68.515 32.2902 69.8975 35.4135 69.9815 38.9524L69.9855 39.2961C69.9855 42.9762 68.5953 46.2292 66.0196 48.5572C63.5278 50.8094 59.9674 52.1602 55.5804 52.2425L55.1533 52.2463H52.0771L74.5191 73.6534H56.9928L56.826 73.4945L39.7533 57.268C38.4348 56.0507 37.7803 54.588 37.7802 53.2695C37.7802 51.3445 39.1527 49.7537 41.4942 49.0919L41.5015 49.0897L50.2991 46.7369C53.43 45.899 55.5173 43.5094 55.5173 40.4251C55.5173 38.5281 54.7479 37.0574 53.5121 36.0497C52.2646 35.0326 50.5078 34.4626 48.5192 34.4626H26.3477V26.3457H55.1533V26.9226H26.9246V33.8857H48.5192C52.7064 33.8857 56.0941 36.2851 56.0942 40.4251C56.0942 43.8125 53.7887 46.4002 50.4483 47.294L41.6509 49.6469C39.4866 50.2585 38.3571 51.6699 38.3571 53.2695C38.3573 54.3985 38.9218 55.7158 40.1448 56.8448L57.2233 73.0765H73.0786L50.6365 51.6694H55.1533C64.0924 51.6694 69.4086 46.3531 69.4086 39.2961Z" fill="url(#paint1_linear_280_5280)"/>
</g>
<defs>
<linearGradient id="paint0_linear_280_5280" x1="49.9988" y1="26.9238" x2="74.5997" y2="72.3395" gradientUnits="userSpaceOnUse">
<stop stop-color="#FDFDFD"/>
<stop offset="1" stop-color="#ADADAD"/>
</linearGradient>
<linearGradient id="paint1_linear_280_5280" x1="50.4334" y1="26.3457" x2="75.3986" y2="73.2751" gradientUnits="userSpaceOnUse">
<stop stop-color="#FDFDFD"/>
<stop offset="1" stop-color="#ADADAD"/>
</linearGradient>
<clipPath id="clip0_280_5280">
<rect width="100" height="100" fill="white"/>
</clipPath>
</defs>
</svg>
