<svg width="100" height="100" viewBox="0 0 100 100" fill="none" xmlns="http://www.w3.org/2000/svg">
<g clip-path="url(#clip0_280_5284)">
<path d="M54.2961 77.4805C54.25 76.9102 54.2227 76.543 54.2227 76.543C54.2227 76.543 52.4992 64.9109 50.4445 61.4383C50.1211 60.8859 50.4781 58.6305 51.3875 55.282C51.9188 56.1953 54.1531 60.1195 54.6047 61.3836C55.1109 62.8086 55.2141 63.2172 55.2141 63.2172C55.2141 63.2172 53.9875 56.9031 51.9766 53.2195C52.4653 51.5776 52.9873 49.9458 53.5422 48.325C54.3023 49.6609 56.1305 52.9023 56.5328 54.0281C56.6125 54.257 56.6828 54.4523 56.7438 54.6328C56.7617 54.5258 56.7828 54.4187 56.8016 54.3094C56.3406 52.3531 55.4344 48.95 54.1953 46.4328C56.9453 32.1141 66.3289 12.9766 75.9453 4.4375H13.2023C8.99375 4.4375 5.55469 7.87969 5.55469 12.0852V81.2805C5.55469 85.4859 8.99687 88.9281 13.2031 88.9281H54.5289C54.2158 85.1209 54.1383 81.298 54.2969 77.4812" fill="#0B7FCC"/>
<path d="M51.3883 55.282C51.9195 56.1945 54.1539 60.1164 54.6047 61.3828C55.1117 62.8078 55.2148 63.2164 55.2148 63.2164C55.2148 63.2164 53.9883 56.9023 51.9773 53.2188C52.4665 51.5757 52.9885 49.9425 53.543 48.3203C54.2359 49.5445 55.8258 52.3586 56.3961 53.6891L56.4602 52.9383C55.9539 50.9883 55.1844 48.4336 54.1961 46.432C56.7289 33.2516 64.8836 15.9867 73.6695 6.66797H13.2023C11.7661 6.66921 10.3891 7.24024 9.37346 8.25572C8.35783 9.2712 7.7866 10.6482 7.78516 12.0844V76.2328C21.4781 70.9742 37.9914 66.1703 52.2031 66.3781C51.6781 64.343 51.0773 62.5031 50.4453 61.4375C50.1219 60.8852 50.4789 58.6273 51.3883 55.282Z" fill="url(#paint0_linear_280_5284)"/>
<path d="M90.5871 2.17209C86.2903 -1.66072 81.084 -0.119316 75.9512 4.43693C75.1585 5.14612 74.3988 5.89145 73.6746 6.67053C64.8856 15.9877 56.734 33.251 54.2012 46.4322C55.1871 48.4346 55.959 50.9885 56.4621 52.9385C56.5934 53.4385 56.7121 53.9088 56.8075 54.3088C57.0301 55.2518 57.1489 55.8682 57.1489 55.8682C57.1489 55.8682 57.07 55.569 56.7465 54.6322C56.6856 54.4526 56.6153 54.2541 56.5356 54.0283C56.502 53.9307 56.4535 53.8143 56.4012 53.6893C55.8278 52.3588 54.241 49.5447 53.545 48.3244C52.9496 50.0822 52.4223 51.7307 51.9793 53.219C53.9934 56.9026 55.2207 63.2166 55.2207 63.2166C55.2207 63.2166 55.1137 62.808 54.6098 61.383C54.1582 60.1166 51.9215 56.1955 51.3934 55.2822C50.484 58.6268 50.1239 60.8854 50.4504 61.4385C51.0825 62.5026 51.6801 64.3463 52.2082 66.3783C53.3989 70.9619 54.2285 76.544 54.2285 76.544C54.2285 76.544 54.2528 76.9104 54.302 77.4815C54.1434 81.298 54.2209 85.1206 54.534 88.9276C54.9278 93.701 55.6692 97.8049 56.6153 99.9994L57.2621 99.6487C55.8707 95.3244 55.3059 89.6541 55.5528 83.1205C55.9278 73.126 58.2262 61.0776 62.4715 48.5197C69.652 29.5588 79.6106 14.3494 88.7231 7.08615C80.416 14.5877 69.1739 38.8705 65.8075 47.8635C62.0418 57.9346 59.3715 67.3822 57.7598 76.4369C60.5332 67.9502 69.5153 64.3041 69.5153 64.3041C69.5153 64.3041 73.9192 58.8682 79.0676 51.1104C75.9817 51.8158 70.9192 53.0182 69.2254 53.7291C66.7254 54.7791 66.0481 55.1354 66.0481 55.1354C66.0481 55.1354 74.1504 50.2041 81.1028 47.9705C90.6606 32.9158 101.073 11.5268 90.5879 2.17287" fill="#003956"/>
</g>
<defs>
<linearGradient id="paint0_linear_280_5284" x1="45.7735" y1="8.08532" x2="45.7735" y2="72.3608" gradientUnits="userSpaceOnUse">
<stop stop-color="#95D7F4"/>
<stop offset="0.92" stop-color="#0F7FCC"/>
<stop offset="1" stop-color="#0F7FCC"/>
</linearGradient>
<clipPath id="clip0_280_5284">
<rect width="100" height="100" fill="white"/>
</clipPath>
</defs>
</svg>
