<svg width="100" height="42" viewBox="0 0 100 42" fill="none" xmlns="http://www.w3.org/2000/svg">
<g clip-path="url(#clip0_280_5288)">
<path d="M68.3594 8.78906C69.9219 8.59375 72.0703 9.375 73.2422 10.1562C77.5391 13.0859 78.5156 18.75 78.125 23.4375C77.5391 28.125 75.3906 33.0078 70.3125 33.9844C67.8385 34.375 65.625 33.8542 63.6719 32.4219V40.2344L56.6406 41.6016V12.5L56.8359 9.17969H62.8906L63.0859 10.9375C64.5182 9.63542 66.276 8.91927 68.3594 8.78906ZM63.6719 16.4062V26.5625L64.0625 26.9531C65.1042 27.7344 66.3411 27.9948 67.7734 27.7344C71.2891 26.5625 71.6797 21.4844 70.7031 18.3594C70.3125 16.7969 68.75 14.8438 66.9922 15.0391C65.8203 14.9089 64.7786 15.2995 63.8672 16.2109L63.6719 16.4062ZM25.5859 3.32031H25.7812V9.17969H31.0547V15.2344H25.7812V22.2656C25.651 23.4375 25.7161 24.6745 25.9766 25.9766C26.5625 28.7109 29.2969 27.9297 31.0547 27.5391V33.2031L30.0781 33.5938L26.7578 33.9844C24.5443 34.2448 22.6562 33.5938 21.0938 32.0312C18.9453 30.0781 18.9453 27.7344 18.9453 25.1953V4.6875L25.5859 3.32031ZM43.3594 8.98438C44.1406 8.85417 44.8568 8.91927 45.5078 9.17969V15.625C43.4245 15.1042 41.6667 15.625 40.2344 17.1875V33.5938H33.2031V9.17969H39.2578L39.6484 11.3281C40.5599 9.89583 41.7969 9.11458 43.3594 8.98438ZM47.0703 9.17969H54.1016L54.2969 11.9141V33.5938H47.0703V9.17969ZM53.9062 0H54.1016L54.2969 1.95312L54.1016 5.66406L49.0234 6.83594L47.4609 7.03125H47.0703V1.36719L49.4141 0.976562L53.9062 0Z" fill="#5F5CFE"/>
<path d="M98.6328 32.2271C96.5029 33.3415 94.1471 33.9558 91.7443 34.0235C89.3415 34.0912 86.9549 33.6104 84.7656 32.6177C82.1615 31.0552 80.5339 28.7766 79.8828 25.7818C78.7109 21.6151 79.1667 17.5787 81.25 13.6724C83.9844 8.98493 90.2344 7.42243 94.9219 9.96149C97.8516 11.7193 99.4141 15.2349 99.8047 18.3599L100 19.9224V24.024H86.3281C86.4583 25.0657 86.9141 25.9771 87.6953 26.7584C89.8438 28.9068 93.5547 28.1256 96.2891 27.5396L98.6328 26.5631V32.2271ZM86.3281 18.7506H90.2344L93.3594 18.9459C93.4896 18.0344 93.3594 17.2532 92.9688 16.6021C92.3177 15.0396 91.1458 14.3235 89.4531 14.4537C88.5417 14.5839 87.7604 15.0396 87.1094 15.8209C86.5885 16.8625 86.3281 17.8391 86.3281 18.7506ZM0 15.6256C0.976562 8.39899 9.57031 8.00837 15.2344 9.76618L16.4062 10.1568L16.2109 16.6021C16.0156 16.7974 14.4531 16.0162 14.0625 15.8209C12.3047 15.4302 8.78906 14.2584 7.22656 15.8209C6.83594 16.4719 7.03125 17.0578 7.8125 17.5787L10.7422 18.9459C13.8672 19.9224 16.7969 21.4849 17.5781 24.8052C17.9688 26.8886 17.5781 28.8417 16.4062 30.6646C13.4766 34.7662 7.03125 34.7662 2.53906 33.5943L0.195312 32.8131V26.1724C0.716146 26.0422 1.10677 26.1724 1.36719 26.5631C3.58073 27.4745 5.85938 28.0605 8.20312 28.3209C10.5469 28.3209 11.5234 26.1724 9.17969 25.0006C5.85938 23.2427 1.17188 22.8521 0.195312 18.5552L0 17.9693V15.6256Z" fill="#5F5CFE"/>
</g>
<defs>
<clipPath id="clip0_280_5288">
<rect width="100" height="41.7969" fill="white"/>
</clipPath>
</defs>
</svg>
