<svg width="97" height="100" viewBox="0 0 97 100" fill="none" xmlns="http://www.w3.org/2000/svg">
<g clip-path="url(#clip0_280_5291)">
<mask id="mask0_280_5291" style="mask-type:luminance" maskUnits="userSpaceOnUse" x="0" y="0" width="97" height="100">
<path d="M96.4603 0H0V100H96.4603V0Z" fill="white"/>
</mask>
<g mask="url(#mask0_280_5291)">
<path d="M56.368 97.592C53.8377 100.779 48.7067 99.0327 48.6458 94.9636L47.7539 35.4492H87.7714C95.0198 35.4492 99.0623 43.8208 94.5552 49.4973L56.368 97.592Z" fill="url(#paint0_linear_280_5291)"/>
<path d="M56.368 97.592C53.8377 100.779 48.7067 99.0327 48.6458 94.9636L47.7539 35.4492H87.7714C95.0198 35.4492 99.0623 43.8208 94.5552 49.4973L56.368 97.592Z" fill="url(#paint1_linear_280_5291)" fill-opacity="0.2"/>
<path d="M40.1053 1.8412C42.6356 -1.34588 47.7665 0.400406 47.8278 4.4695L48.2184 63.9838H8.70174C1.45328 63.9838 -2.58931 55.6122 1.91799 49.9353L40.1053 1.8412Z" fill="#3ECF8E"/>
</g>
</g>
<defs>
<linearGradient id="paint0_linear_280_5291" x1="47.7539" y1="48.6448" x2="83.3202" y2="63.5614" gradientUnits="userSpaceOnUse">
<stop stop-color="#249361"/>
<stop offset="1" stop-color="#3ECF8E"/>
</linearGradient>
<linearGradient id="paint1_linear_280_5291" x1="31.9858" y1="27.0556" x2="48.2058" y2="57.5889" gradientUnits="userSpaceOnUse">
<stop/>
<stop offset="1" stop-opacity="0"/>
</linearGradient>
<clipPath id="clip0_280_5291">
<rect width="96.875" height="100" fill="white"/>
</clipPath>
</defs>
</svg>
