<svg width="100" height="100" viewBox="0 0 100 100" fill="none" xmlns="http://www.w3.org/2000/svg">
<g clip-path="url(#clip0_280_5299)">
<path d="M95.7949 59.9695C101.268 54.4961 101.268 45.5902 95.7949 40.1168C93.1438 37.4652 89.6184 36.0055 85.8688 36.0055C84.9781 36.0055 84.102 36.0867 83.2469 36.2465C86.9727 33.698 89.3875 29.4125 89.3875 24.6473C89.3875 16.9066 83.0898 10.6094 75.3492 10.6094C70.5746 10.6094 66.2816 13.0332 63.7348 16.7719C64.5773 12.3277 63.2559 7.57773 59.8793 4.20156C57.2289 1.55 53.7031 0.0898438 49.9539 0.0898438C46.2039 0.0898438 42.6789 1.55 40.0273 4.20156C36.6512 7.57773 35.3297 12.3277 36.1719 16.7719C33.6254 13.0336 29.3324 10.6094 24.5574 10.6094C16.8172 10.6094 10.5199 16.9063 10.5199 24.6473C10.5199 29.4129 12.934 33.698 16.6598 36.2465C15.7952 36.0854 14.9177 36.0048 14.0383 36.0055C10.2883 36.0055 6.76328 37.4656 4.11211 40.1172C1.46016 42.7684 0 46.2937 0 50.043C0 53.793 1.46016 57.318 4.11172 59.9695C6.76289 62.6207 10.2883 64.0813 14.0375 64.0813C14.9281 64.0813 15.8043 64 16.6594 63.8398C12.9336 66.3887 10.5195 70.6742 10.5195 75.4395C10.5195 83.1797 16.8164 89.477 24.557 89.477C29.332 89.477 33.6254 87.0527 36.1719 83.3145C35.3293 87.759 36.6508 92.509 40.0273 95.8848C42.6785 98.5363 46.2039 99.9965 49.9531 99.9965C53.7031 99.9965 57.2285 98.5363 59.8797 95.8848C63.2559 92.5086 64.5773 87.7586 63.7348 83.3145C66.2816 87.0527 70.5746 89.477 75.3492 89.477C83.0898 89.477 89.3871 83.1801 89.3871 75.4395C89.3871 70.6738 86.9731 66.3887 83.2469 63.8398C84.102 64 84.9785 64.0813 85.8688 64.0813C89.6184 64.0813 93.1438 62.6207 95.7949 59.9695Z" fill="black"/>
<path d="M91.5598 44.3518C88.4156 41.208 83.318 41.208 80.1738 44.3518H63.6957L75.3477 32.7002C79.7941 32.7002 83.3984 29.0955 83.3984 24.649C83.3984 20.2025 79.7941 16.5975 75.3477 16.5975C70.9008 16.5975 67.2965 20.2025 67.2965 24.649L55.6445 36.301V19.8225C58.7887 16.6783 58.7887 11.5807 55.6445 8.43652C52.5 5.29199 47.4023 5.29199 44.2582 8.43652C41.1141 11.5811 41.1141 16.6787 44.2582 19.8225V36.301L32.6066 24.6486C32.6066 20.2025 29.002 16.5979 24.5555 16.5979C20.109 16.5979 16.5043 20.2025 16.5043 24.6486C16.5043 29.0955 20.109 32.7002 24.5551 32.7002L36.2074 44.3518H19.7289C16.5844 41.2076 11.4867 41.208 8.34219 44.3518C5.19844 47.4963 5.19844 52.5939 8.34219 55.7385C11.4867 58.8822 16.5844 58.8822 19.7289 55.7385H36.2066L24.5555 67.3896C20.109 67.3896 16.5043 70.9939 16.5043 75.4404C16.5043 79.8873 20.109 83.492 24.5551 83.492C29.002 83.492 32.6066 79.8873 32.6066 75.4408L44.2582 63.7889V80.267C41.1141 83.4111 41.1141 88.5092 44.2582 91.6533C47.4027 94.7975 52.5004 94.7975 55.6449 91.6533C58.7887 88.5088 58.7887 83.4111 55.6449 80.2666V63.7889L67.2965 75.4408C67.2965 79.8873 70.9008 83.4916 75.3473 83.4916C79.7941 83.4916 83.3988 79.8873 83.3988 75.4408C83.3988 70.9939 79.7941 67.3896 75.3477 67.3896L63.6953 55.7377H80.1738C83.3184 58.8822 88.416 58.8822 91.5598 55.7377C94.7043 52.5936 94.7043 47.4959 91.5598 44.3518Z" fill="#FFB13B"/>
</g>
<defs>
<clipPath id="clip0_280_5299">
<rect width="100" height="100" fill="white"/>
</clipPath>
</defs>
</svg>
