<svg width="100" height="100" viewBox="0 0 100 100" fill="none" xmlns="http://www.w3.org/2000/svg">
<g clip-path="url(#clip0_280_5302)">
<path d="M50.0039 20.002C36.6703 20.002 28.3398 26.666 25.0039 39.9996C30.0023 33.3348 35.8375 30.8355 42.5023 32.502C46.3078 33.4504 49.0273 36.2098 52.0391 39.2676C56.9406 44.2418 62.6141 50.0004 75.0039 50.0004C88.3367 50.0004 96.668 43.3355 100.004 29.9988C95.0047 36.6676 89.1703 39.1668 82.5047 37.5004C78.7 36.5512 75.9836 33.7926 72.968 30.7348C68.0695 25.7605 62.3977 20.002 50.0039 20.002ZM25.0039 50.0004C11.6711 50.0004 3.33984 56.6652 0.00390625 70.002C5.00234 63.3332 10.8367 60.834 17.5023 62.5004C21.3078 63.4496 24.0273 66.2082 27.0391 69.266C31.9406 74.2402 37.6141 79.9988 50.0039 79.9988C63.3367 79.9988 71.668 73.3348 75.0039 60.0012C70.0047 66.666 64.1703 69.1652 57.5047 67.4988C53.7 66.5504 50.9836 63.791 47.968 60.7332C43.0695 55.759 37.3977 50.0004 25.0039 50.0004Z" fill="#38BDF8"/>
</g>
<defs>
<clipPath id="clip0_280_5302">
<rect width="100" height="100" fill="white"/>
</clipPath>
</defs>
</svg>
