<svg width="100" height="100" viewBox="0 0 100 100" fill="none" xmlns="http://www.w3.org/2000/svg">
<path d="M97.4724 15.2491L52.5958 95.4975C51.6685 97.1546 49.288 97.164 48.3482 95.5163L2.58099 15.2585C1.5552 13.46 3.09036 11.2843 5.12864 11.6475L50.0536 19.6765C50.3403 19.7288 50.6341 19.7288 50.9208 19.6765L94.9052 11.66C96.9349 11.2905 98.4794 13.4483 97.4724 15.2491Z" fill="url(#paint0_linear_280_5307)"/>
<path d="M71.4521 1.11726L38.2442 7.62351C37.9792 7.6753 37.7388 7.81366 37.561 8.01686C37.3831 8.22006 37.2777 8.47659 37.2614 8.74616L35.2169 43.2524C35.2059 43.4416 35.2391 43.6308 35.3139 43.805C35.3887 43.9792 35.503 44.1335 35.6478 44.2559C35.7926 44.3782 35.9638 44.4652 36.1481 44.5099C36.3323 44.5546 36.5243 44.5557 36.7091 44.5133L45.956 42.3766C46.1551 42.3309 46.3626 42.3358 46.5593 42.3911C46.756 42.4464 46.9357 42.5501 47.0819 42.6929C47.2281 42.8357 47.3361 43.0129 47.396 43.2082C47.4559 43.4036 47.4657 43.6108 47.4247 43.811L44.6771 57.2633C44.6351 57.4704 44.6475 57.6848 44.7133 57.8856C44.779 58.0864 44.8957 58.2666 45.052 58.4088C45.2083 58.5509 45.3989 58.65 45.605 58.6964C45.8111 58.7428 46.0257 58.7349 46.2278 58.6735L51.9372 56.9368C52.8224 56.668 53.6739 57.4462 53.488 58.3524L49.1208 79.4829C48.8489 80.8048 50.6067 81.5251 51.3396 80.3923L51.8278 79.636L78.8903 25.6282C79.345 24.7219 78.5614 23.6907 77.57 23.8829L68.0505 25.7204C67.8457 25.7602 67.634 25.7466 67.4359 25.6811C67.2378 25.6155 67.0599 25.5001 66.9192 25.346C66.7786 25.1918 66.6799 25.0041 66.6327 24.8008C66.5855 24.5976 66.5914 24.3856 66.6497 24.1852L72.8606 2.65241C72.919 2.45135 72.9247 2.23864 72.8769 2.03478C72.8292 1.83092 72.7298 1.64279 72.5883 1.48853C72.4467 1.33426 72.2678 1.21906 72.0688 1.15403C71.8698 1.089 71.6574 1.07633 71.4521 1.11726Z" fill="url(#paint1_linear_280_5307)"/>
<defs>
<linearGradient id="paint0_linear_280_5307" x1="1.46239" y1="8.78004" x2="57.3169" y2="84.6349" gradientUnits="userSpaceOnUse">
<stop stop-color="#41D1FF"/>
<stop offset="1" stop-color="#BD34FE"/>
</linearGradient>
<linearGradient id="paint1_linear_280_5307" x1="47.4755" y1="2.88286" x2="57.5793" y2="72.194" gradientUnits="userSpaceOnUse">
<stop stop-color="#FFEA83"/>
<stop offset="0.083" stop-color="#FFDD35"/>
<stop offset="1" stop-color="#FFA800"/>
</linearGradient>
</defs>
</svg>
