<svg width="25" height="32" viewBox="0 0 25 32" fill="none" xmlns="http://www.w3.org/2000/svg">
    <g clip-path="url(#clip0_1154_720)">
        <path
            d="M2.02166 4.2048C2.99072 4.2048 3.53651 3.7152 3.8651 3.11616L2.79022 2.48832C2.62871 2.78784 2.42265 2.9952 2.05507 2.9952C1.62624 2.9952 1.32549 2.62656 1.32549 2.1024V2.09088C1.32549 1.60704 1.6151 1.2096 2.05507 1.2096C2.41151 1.2096 2.61757 1.4112 2.76238 1.6992L3.83725 1.04832C3.50866 0.432 2.92946 0 2.07178 0C0.907797 0 0 0.89856 0 2.1024V2.11392C0 3.36384 0.941213 4.2048 2.02166 4.2048ZM3.7645 4.1184H5.15683L5.35733 3.57696H6.72181L6.92787 4.1184H8.34247L6.69953 0.0576003H5.40745L3.7645 4.1184ZM5.68592 2.6208L6.04235 1.6416L6.39879 2.6208H5.68592ZM8.50289 4.1184H9.79497V2.25792L11.243 4.1184H12.4014V0.0864003H11.1093V1.86624L9.72257 0.0864003H8.50289V4.1184ZM14.1462 4.1472H15.3937L16.9754 0.0864003H15.5385L14.7811 2.35008L14.0236 0.0864003H12.5645L14.1462 4.1472ZM16.2954 4.1184H17.6877L17.8882 3.57696H19.2527L19.4588 4.1184H20.8734L19.2304 0.0576003H17.9384L16.2954 4.1184ZM18.2168 2.6208L18.5733 1.6416L18.9297 2.6208H18.2168ZM22.6558 4.19328C23.7028 4.19328 24.3767 3.67488 24.3767 2.82816V2.81664C24.3767 2.00448 23.7084 1.70496 22.7115 1.51488C22.2994 1.43424 22.1936 1.36512 22.1936 1.25568V1.24416C22.1936 1.14624 22.2827 1.07712 22.4776 1.07712C22.8396 1.07712 23.2796 1.19808 23.6472 1.47456L24.2821 0.56448C23.8309 0.19584 23.274 0.0115199 22.5222 0.0115199C21.4473 0.0115199 20.8681 0.6048 20.8681 1.37088V1.3824C20.8681 2.23488 21.6366 2.49408 22.511 2.6784C22.9287 2.7648 23.0512 2.82816 23.0512 2.94336V2.95488C23.0512 3.06432 22.951 3.12768 22.7171 3.12768C22.2604 3.12768 21.7759 2.98944 21.3526 2.65536L20.6564 3.5136C21.1521 3.96288 21.865 4.19328 22.6558 4.19328Z"
            fill="#ECEFF4" style="fill:#ECEFF4;fill:color(display-p3 0.9255 0.9373 0.9569);fill-opacity:1;" />
        <path d="M3.53327 29.439L1.53906 6.28906H23.4634L21.4692 29.4266L12.4831 32.0016" fill="#434C5E"
            style="fill:#434C5E;fill:color(display-p3 0.2627 0.2980 0.3686);fill-opacity:1;" />
        <path d="M12.5 30.0312V8.1875H21.4619L19.7517 27.9375" fill="#4C566A"
            style="fill:#4C566A;fill:color(display-p3 0.2980 0.3373 0.4157);fill-opacity:1;" />
        <path
            d="M6.86982 25.4078L5.57031 11.0078H12.501V13.8238H8.54061L9.40695 23.2958L12.501 24.1278V27.1358L6.86982 25.4078Z"
            fill="#ECEFF4" style="fill:#ECEFF4;fill:color(display-p3 0.9255 0.9373 0.9569);fill-opacity:1;" />
        <path d="M19.3688 11.0078H12.5V13.8238H16.3366L16.0891 16.7678H18.8119L19.3688 11.0078Z" fill="white"
            style="fill:white;fill-opacity:1;" />
        <path d="M12.5 27.138L17.8218 25.602L18.3168 21.25H15.7797L15.5941 23.17L12.5 24.13V27.138Z" fill="white"
            style="fill:white;fill-opacity:1;" />
    </g>
    <defs>
        <clipPath id="clip0_1154_720">
            <rect width="25" height="32" fill="white" style="fill:white;fill-opacity:1;" />
        </clipPath>
    </defs>
</svg>