<svg width="27" height="32" viewBox="0 0 27 32" fill="none" xmlns="http://www.w3.org/2000/svg">
    <path
        d="M18.4871 3.66406H25.7193L26.7481 4.69284V27.3259L25.7193 28.3546H15.8637L16.3626 27.5831H25.4004L25.9765 27.0069V5.01176L25.4004 4.43564H19.1661L18.4305 8.23696H17.6435L18.3482 4.39964L18.4922 3.66406H18.4871ZM1.02877 28.3546L0 27.3259V4.69284L1.02877 3.66406H11.2651L10.7455 4.43564H1.34769L0.77158 5.01176V27.0069L1.34769 27.5831H8.79601L8.67256 28.3546H1.02877ZM2.57193 25.7827H6.94422L6.78991 26.5543H2.05755L1.80035 26.2971V21.6676L2.57193 23.2108V25.7827ZM20.0611 25.7827L20.8327 26.5543H16.9748L17.4892 25.7827H20.0611Z"
        fill="#B7BBBD" style="fill:#B7BBBD;fill:color(display-p3 0.7176 0.7333 0.7412);fill-opacity:1;" />
    <path
        d="M11.6583 19.094H4.62662L3.77274 17.4892L15.6036 0L17.4657 0.77158L15.1304 12.9214H22.1158L22.9799 14.5109L11.6634 32L9.78078 31.2799L11.6583 19.094ZM2.82627 7.26314C2.62163 7.26314 2.42538 7.18185 2.28068 7.03715C2.13598 6.89245 2.05469 6.6962 2.05469 6.49156C2.05469 6.28693 2.13598 6.09067 2.28068 5.94597C2.42538 5.80127 2.62163 5.71998 2.82627 5.71998C3.0309 5.71998 3.22716 5.80127 3.37186 5.94597C3.51656 6.09067 3.59785 6.28693 3.59785 6.49156C3.59785 6.6962 3.51656 6.89245 3.37186 7.03715C3.22716 7.18185 3.0309 7.26314 2.82627 7.26314ZM4.88381 7.26314C4.67918 7.26314 4.48292 7.18185 4.33823 7.03715C4.19353 6.89245 4.11223 6.6962 4.11223 6.49156C4.11223 6.28693 4.19353 6.09067 4.33823 5.94597C4.48292 5.80127 4.67918 5.71998 4.88381 5.71998C5.08845 5.71998 5.2847 5.80127 5.4294 5.94597C5.5741 6.09067 5.65539 6.28693 5.65539 6.49156C5.65539 6.6962 5.5741 6.89245 5.4294 7.03715C5.2847 7.18185 5.08845 7.26314 4.88381 7.26314ZM6.94136 7.26314C6.73673 7.26314 6.54047 7.18185 6.39577 7.03715C6.25107 6.89245 6.16978 6.6962 6.16978 6.49156C6.16978 6.28693 6.25107 6.09067 6.39577 5.94597C6.54047 5.80127 6.73673 5.71998 6.94136 5.71998C7.146 5.71998 7.34225 5.80127 7.48695 5.94597C7.63165 6.09067 7.71294 6.28693 7.71294 6.49156C7.71294 6.6962 7.63165 6.89245 7.48695 7.03715C7.34225 7.18185 7.146 7.26314 6.94136 7.26314Z"
        fill="url(#paint0_linear_1155_738)" style="" />
    <defs>
        <linearGradient id="paint0_linear_1155_738" x1="2475" y1="-76.4801" x2="-633.142" y2="1892.19"
            gradientUnits="userSpaceOnUse">
            <stop stop-color="#FBB743"
                style="stop-color:#FBB743;stop-color:color(display-p3 0.9843 0.7176 0.2627);stop-opacity:1;" />
            <stop offset="1" stop-color="#EA6B00"
                style="stop-color:#EA6B00;stop-color:color(display-p3 0.9176 0.4196 0.0000);stop-opacity:1;" />
        </linearGradient>
    </defs>
</svg>