<svg width="31" height="32" viewBox="0 0 31 32" fill="none" xmlns="http://www.w3.org/2000/svg">
<g clip-path="url(#clip0_1154_696)">
<path d="M18.0377 31.2295C17.228 32.2492 15.5861 31.6905 15.5666 30.3884L15.2812 11.3438H28.0868C30.4063 11.3438 31.6999 14.0227 30.2576 15.8392L18.0377 31.2295Z" fill="url(#paint0_linear_1154_696)" style=""/>
<path d="M18.0377 31.2295C17.228 32.2492 15.5861 31.6905 15.5666 30.3884L15.2812 11.3438H28.0868C30.4063 11.3438 31.6999 14.0227 30.2576 15.8392L18.0377 31.2295Z" fill="url(#paint1_linear_1154_696)" fill-opacity="0.2" style=""/>
<path d="M12.834 0.589183C13.6437 -0.430683 15.2856 0.12813 15.3052 1.43024L15.4302 20.4748H2.78487C0.465362 20.4748 -0.828268 17.7959 0.614068 15.9793L12.834 0.589183Z" fill="#3ECF8E" style="fill:#3ECF8E;fill:color(display-p3 0.2431 0.8118 0.5569);fill-opacity:1;"/>
</g>
<defs>
<linearGradient id="paint0_linear_1154_696" x1="15.2812" y1="15.5664" x2="26.6624" y2="20.3397" gradientUnits="userSpaceOnUse">
<stop stop-color="#249361" style="stop-color:#249361;stop-color:color(display-p3 0.1412 0.5765 0.3804);stop-opacity:1;"/>
<stop offset="1" stop-color="#3ECF8E" style="stop-color:#3ECF8E;stop-color:color(display-p3 0.2431 0.8118 0.5569);stop-opacity:1;"/>
</linearGradient>
<linearGradient id="paint1_linear_1154_696" x1="10.2354" y1="8.65785" x2="15.4258" y2="18.4285" gradientUnits="userSpaceOnUse">
<stop style="stop-color:black;stop-opacity:1;"/>
<stop offset="1" stop-opacity="0" style="stop-color:none;stop-opacity:0;"/>
</linearGradient>
<clipPath id="clip0_1154_696">
<rect width="30.8673" height="32" fill="white" style="fill:white;fill-opacity:1;"/>
</clipPath>
</defs>
</svg>
